<svg viewBox="0 0 1024 1024" width="200" height="200" xmlns="http://www.w3.org/2000/svg"><g transform="scale(51.2)"><ns0:g xmlns:ns0="http://www.w3.org/2000/svg"><ns0:rect fill="none" height="20" width="20" /></ns0:g><ns0:g xmlns:ns0="http://www.w3.org/2000/svg"><ns0:path d="M17,14.88V11.5h2v-3h-8.38L17,14.88z M2.93,2.93L1.87,3.99l1.66,1.66C2.02,6.51,1,8.14,1,10c0,2.76,2.24,5,5,5 c1.87,0,3.48-1.03,4.33-2.55l5.68,5.68l1.06-1.06L2.93,2.93z M6,12c-1.1,0-2-0.9-2-2c0-1.06,0.83-1.94,1.88-2L8,10.12 C7.93,11.17,7.06,12,6,12z" /></ns0:g></g></svg>