<svg viewBox="0 0 1024 1024" width="200" height="200" xmlns="http://www.w3.org/2000/svg"><g transform="scale(42.666666666666664)"><ns0:g xmlns:ns0="http://www.w3.org/2000/svg"><ns0:rect fill="none" height="24" width="24" /></ns0:g><ns0:g xmlns:ns0="http://www.w3.org/2000/svg"><ns0:path d="M21,10h-8.35C11.83,7.67,9.61,6,7,6c-3.31,0-6,2.69-6,6s2.69,6,6,6c2.61,0,4.83-1.67,5.65-4H13l2,2l2-2l2,2l4-4.04L21,10z M7,15c-1.65,0-3-1.35-3-3c0-1.65,1.35-3,3-3s3,1.35,3,3C10,13.65,8.65,15,7,15z" /></ns0:g></g></svg>