<svg viewBox="0 0 1024 1024" width="200" height="200" xmlns="http://www.w3.org/2000/svg"><g transform="scale(51.2)"><ns0:g xmlns:ns0="http://www.w3.org/2000/svg"><ns0:rect fill="none" height="20" width="20" /></ns0:g><ns0:g xmlns:ns0="http://www.w3.org/2000/svg"><ns0:g><ns0:path d="M15,4H5C4.45,4,4,4.45,4,5v10c0,0.55,0.45,1,1,1h10c0.55,0,1-0.45,1-1V5C16,4.45,15.55,4,15,4z M15,14.5 c0,0.28-0.22,0.5-0.5,0.5h-9C5.22,15,5,14.78,5,14.5V7h10V14.5z" /><ns0:path d="M8.59,13.12c0.2,0.2,0.51,0.2,0.71,0l3.54-3.54c0.2-0.2,0.2-0.51,0-0.71s-0.51-0.2-0.71,0l-3.18,3.18L7.88,11 c-0.2-0.2-0.51-0.2-0.71,0s-0.2,0.51,0,0.71L8.59,13.12z" /></ns0:g></ns0:g></g></svg>