<svg viewBox="0 0 1024 1024" width="200" height="200" xmlns="http://www.w3.org/2000/svg"><g transform="scale(42.666666666666664)"><ns0:g xmlns:ns0="http://www.w3.org/2000/svg"><ns0:rect fill="none" height="24" width="24" /></ns0:g><ns0:g xmlns:ns0="http://www.w3.org/2000/svg"><ns0:g><ns0:path d="M5,18h14V8H5V18z M8.82,11.58l2.12,2.12l4.24-4.24l1.41,1.41l-5.66,5.66L7.4,13L8.82,11.58z" opacity=".3" /><ns0:polygon points="16.6,10.88 15.18,9.46 10.94,13.71 8.82,11.58 7.4,13 10.94,16.54" /><ns0:path d="M19,4H5C3.89,4,3,4.9,3,6v12c0,1.1,0.89,2,2,2h14c1.1,0,2-0.9,2-2V6C21,4.9,20.11,4,19,4z M19,18H5V8h14V18z" /></ns0:g></ns0:g></g></svg>