<svg viewBox="0 0 1024 1024" width="200" height="200" xmlns="http://www.w3.org/2000/svg"><g transform="scale(51.2)"><ns0:rect xmlns:ns0="http://www.w3.org/2000/svg" fill="none" height="20" width="20" /><ns0:path xmlns:ns0="http://www.w3.org/2000/svg" d="M14.12,12H15v-1.5h-2.38l-1.25-1.25H15v-1.5H9.87L8.62,6.5H15V5H7.12l-3-3H16.5C17.33,2,18,2.67,18,3.5v12.38L14.12,12z M2.22,2.22L1.16,3.28L2,4.12v9.38C2,14.33,2.67,15,3.5,15h9.38l3.84,3.84l1.06-1.06L2.22,2.22z M5,9.25v-1.5h0.63l1.5,1.5H5z M8,12 v-1.5h0.38l1.5,1.5H8z" /></g></svg>