<svg viewBox="0 0 1024 1024" width="200" height="200" xmlns="http://www.w3.org/2000/svg"><g transform="scale(42.666666666666664)"><ns0:g xmlns:ns0="http://www.w3.org/2000/svg"><ns0:rect fill="none" height="24" width="24" /></ns0:g><ns0:g xmlns:ns0="http://www.w3.org/2000/svg"><ns0:g><ns0:path d="M20,16H4V4h10.1c-0.08-0.39-0.18-1.11,0-2H4C2.9,2,2,2.9,2,4v18l4-4h14c1.1,0,2-0.9,2-2V6.98c-0.58,0.44-1.26,0.77-2,0.92 V16z" /><ns0:circle cx="19" cy="3" r="3" /><ns0:rect height="2" width="8" x="6" y="12" /><ns0:rect height="2" width="12" x="6" y="9" /><ns0:path d="M6,8h12V7.9c-1.21-0.25-2.25-0.95-2.97-1.9H6V8z" /></ns0:g></ns0:g></g></svg>