<svg viewBox="0 0 1024 1024" width="200" height="200" xmlns="http://www.w3.org/2000/svg"><g transform="scale(42.666666666666664)"><ns0:g xmlns:ns0="http://www.w3.org/2000/svg"><ns0:rect fill="none" height="24" width="24" /></ns0:g><ns0:g xmlns:ns0="http://www.w3.org/2000/svg"><ns0:g><ns0:polygon opacity=".3" points="16,16.5 12,12.5 8,16.5 8,20 16,20" /><ns0:polygon opacity=".3" points="16,16.5 12,12.5 8,16.5 8,20 16,20" /><ns0:path d="M6,22h12v-6l-4-4l3.99-4.01L18,2H6l0.01,5.99L10,12l-4,3.99V22z M8,7.5V4h8v3.5l-4,4L8,7.5z M8,16.5l4-4l4,4V20H8V16.5z" /></ns0:g></ns0:g></g></svg>