<svg viewBox="0 0 1024 1024" width="200" height="200" xmlns="http://www.w3.org/2000/svg"><g transform="scale(51.2)"><ns0:g xmlns:ns0="http://www.w3.org/2000/svg"><ns0:rect fill="none" height="20" width="20" /></ns0:g><ns0:g xmlns:ns0="http://www.w3.org/2000/svg"><ns0:g><ns0:path d="M10.14,10.93C7.85,10.59,4,11.52,4,13.21V14c0,0.55,0.45,1,1,1h4.35C9.04,14.36,8.47,12.47,10.14,10.93z" /><ns0:circle cx="9" cy="7.5" r="2.5" /><ns0:path d="M16.06,16.35l-1.48-1.48c0.26-0.4,0.42-0.87,0.42-1.38c0-1.38-1.12-2.5-2.5-2.5S10,12.12,10,13.5c0,1.38,1.12,2.5,2.5,2.5 c0.51,0,0.98-0.15,1.38-0.42l1.48,1.48L16.06,16.35z M12.5,15c-0.83,0-1.5-0.67-1.5-1.5s0.67-1.5,1.5-1.5s1.5,0.67,1.5,1.5 S13.33,15,12.5,15z" /></ns0:g></ns0:g></g></svg>