<svg viewBox="0 0 1024 1024" width="200" height="200" xmlns="http://www.w3.org/2000/svg"><g transform="scale(51.2)"><ns0:g xmlns:ns0="http://www.w3.org/2000/svg"><ns0:rect fill="none" height="20" width="20" x="0" /></ns0:g><ns0:g xmlns:ns0="http://www.w3.org/2000/svg"><ns0:g><ns0:path d="M4,9h5V4H4V9z M4.94,4.94h3.12v3.12H4.94V4.94z" /><ns0:path d="M4,16h5v-5H4V16z M4.94,11.94h3.12v3.12H4.94V11.94z" /><ns0:path d="M11,4v5h5V4H11z M15.06,8.06h-3.12V4.94h3.12V8.06z" /><ns0:rect height="1" width="1" x="15" y="15" /><ns0:rect height="1" width="1" x="15" y="13" /><ns0:rect height="1" width="1" x="15" y="11" /><ns0:rect height="1" width="1" x="12" y="12" /><ns0:rect height="1" width="1" x="11" y="11" /><ns0:rect height="1" width="1" x="13" y="13" /><ns0:rect height="1" width="1" x="14" y="14" /><ns0:rect height="1" width="1" x="13" y="11" /><ns0:rect height="1" width="1" x="14" y="12" /><ns0:rect height="1" width="1" x="11" y="13" /><ns0:rect height="1" width="1" x="12" y="14" /><ns0:rect height="1" width="1" x="11" y="15" /><ns0:rect height="1" width="1" x="13" y="15" /></ns0:g></ns0:g></g></svg>