<svg viewBox="0 0 1024 1024" width="200" height="200" xmlns="http://www.w3.org/2000/svg"><g transform="scale(51.2)"><ns0:g xmlns:ns0="http://www.w3.org/2000/svg"><ns0:rect fill="none" height="20" width="20" /></ns0:g><ns0:g xmlns:ns0="http://www.w3.org/2000/svg"><ns0:g><ns0:path d="M17,11.32V4.5C17,3.67,16.33,3,15.5,3H12c0-1.1-0.9-2-2-2S8,1.9,8,3H4.5C3.67,3,3,3.67,3,4.5V8c1.1,0,2,0.9,2,2 s-0.9,2-2,2v3.5C3,16.33,3.67,17,4.5,17H8c0-0.93,0.64-1.71,1.5-1.93V10V7.57l2.17,1.09L17,11.32z" /><ns0:polygon points="11,10 11,13 14,14 11,15 11,18 19,14" /></ns0:g></ns0:g></g></svg>