<svg viewBox="0 0 1024 1024" width="200" height="200" xmlns="http://www.w3.org/2000/svg"><g transform="scale(42.666666666666664)"><ns0:g xmlns:ns0="http://www.w3.org/2000/svg"><ns0:rect fill="none" height="24" width="24" /></ns0:g><ns0:g xmlns:ns0="http://www.w3.org/2000/svg"><ns0:g><ns0:rect height="4" width="4" x="10" y="4" /><ns0:rect height="4" width="4" x="4" y="16" /><ns0:rect height="4" width="4" x="4" y="10" /><ns0:rect height="4" width="4" x="4" y="4" /><ns0:polygon points="14,12.42 14,10 10,10 10,14 12.42,14" /><ns0:path d="M20.88,11.29l-1.17-1.17c-0.16-0.16-0.42-0.16-0.58,0L18.25,11L20,12.75l0.88-0.88C21.04,11.71,21.04,11.45,20.88,11.29z" /><ns0:polygon points="11,18.25 11,20 12.75,20 19.42,13.33 17.67,11.58" /><ns0:rect height="4" width="4" x="16" y="4" /></ns0:g></ns0:g></g></svg>