<svg viewBox="0 0 1024 1024" width="200" height="200" xmlns="http://www.w3.org/2000/svg"><g transform="scale(42.666666666666664)"><ns0:g xmlns:ns0="http://www.w3.org/2000/svg"><ns0:rect fill="none" height="24" width="24" /></ns0:g><ns0:g xmlns:ns0="http://www.w3.org/2000/svg"><ns0:g><ns0:rect height="4" width="4" x="10" y="4" /><ns0:rect height="4" width="4" x="4" y="16" /><ns0:rect height="4" width="4" x="4" y="10" /><ns0:rect height="4" width="4" x="4" y="4" /><ns0:rect height="4" width="4" x="16" y="4" /><ns0:polygon points="11,17.86 11,20 13.1,20 19.08,14.03 16.96,11.91" /><ns0:polygon points="14,12.03 14,10 10,10 10,14 12.03,14" /><ns0:path d="M20.85,11.56l-1.41-1.41c-0.2-0.2-0.51-0.2-0.71,0l-1.06,1.06l2.12,2.12l1.06-1.06C21.05,12.07,21.05,11.76,20.85,11.56z" /></ns0:g></ns0:g></g></svg>