<svg viewBox="0 0 1024 1024" width="200" height="200" xmlns="http://www.w3.org/2000/svg"><g transform="scale(42.666666666666664)"><ns0:g xmlns:ns0="http://www.w3.org/2000/svg"><ns0:rect fill="none" height="24" width="24" /></ns0:g><ns0:g xmlns:ns0="http://www.w3.org/2000/svg"><ns0:g><ns0:polygon opacity=".3" points="8,7.5 12,11.5 16,7.5 16,4 8,4" /><ns0:polygon opacity=".3" points="8,7.5 12,11.5 16,7.5 16,4 8,4" /><ns0:path d="M18,2H6v6l4,4l-3.99,4.01L6,22h12l-0.01-5.99L14,12l4-3.99V2z M16,16.5V20H8v-3.5l4-4L16,16.5z M16,7.5l-4,4l-4-4V4h8V7.5 z" /></ns0:g></ns0:g></g></svg>