<svg viewBox="0 0 1024 1024" width="200" height="200" xmlns="http://www.w3.org/2000/svg"><g transform="scale(42.666666666666664)"><ns0:g xmlns:ns0="http://www.w3.org/2000/svg"><ns0:rect fill="none" height="24" width="24" /><ns0:rect fill="none" height="24" width="24" /></ns0:g><ns0:g xmlns:ns0="http://www.w3.org/2000/svg"><ns0:path d="M16.29,13.29c0.39,0.39,1.02,0.39,1.41,0l2.59-2.59c0.39-0.39,0.39-1.02,0-1.41l-2.59-2.59c-0.39-0.39-1.02-0.39-1.41,0 c-0.39,0.39-0.39,1.02,0,1.41L17.17,9L9,9c-1.1,0-2,0.9-2,2v8c0,0.55,0.45,1,1,1s1-0.45,1-1v-8l8.17,0l-0.88,0.88 C15.9,12.27,15.9,12.9,16.29,13.29z" /></ns0:g></g></svg>