<svg viewBox="0 0 1024 1024" width="200" height="200" xmlns="http://www.w3.org/2000/svg"><g transform="scale(42.666666666666664)"><ns0:path xmlns:ns0="http://www.w3.org/2000/svg" d="M0 0h24v24H0V0z" fill="none" /><ns0:path xmlns:ns0="http://www.w3.org/2000/svg" d="M10 5h4v14h-4z" opacity=".3" /><ns0:path xmlns:ns0="http://www.w3.org/2000/svg" d="M20 21V3h-2v2h-2V3H8v2H6V3H4v18h2v-2h2v2h8v-2h2v2h2zM8 17H6v-2h2v2zm0-4H6v-2h2v2zm0-4H6V7h2v2zm6 10h-4V5h4v14zm2-12h2v2h-2V7zm0 4h2v2h-2v-2zm0 6v-2h2v2h-2z" /></g></svg>