<svg viewBox="0 0 1024 1024" width="200" height="200" xmlns="http://www.w3.org/2000/svg"><g transform="scale(51.2)"><ns0:g xmlns:ns0="http://www.w3.org/2000/svg"><ns0:rect fill="none" height="20" width="20" /></ns0:g><ns0:g xmlns:ns0="http://www.w3.org/2000/svg"><ns0:g><ns0:polygon points="13.5,7 6.5,7 5.56,9.5 14.44,9.5" /><ns0:path d="M12 3V1.75c0-.41-.34-.75-.75-.75s-.75.34-.75.75V3h-1V1.75c0-.41-.34-.75-.75-.75S8 1.34 8 1.75V3l-.94 2.5h5.88L12 3zm5.25 6c-.41 0-.75.34-.75.75V11h-13V9.75c0-.41-.34-.75-.75-.75S2 9.34 2 9.75V18h6v-2c0-1.1.9-2 2-2s2 .9 2 2v2h6V9.75c0-.41-.34-.75-.75-.75z" /></ns0:g></ns0:g></g></svg>