<svg viewBox="0 0 1024 1024" width="200" height="200" xmlns="http://www.w3.org/2000/svg"><g transform="scale(42.666666666666664)"><ns0:g xmlns:ns0="http://www.w3.org/2000/svg"><ns0:rect fill="none" height="24" width="24" /></ns0:g><ns0:g xmlns:ns0="http://www.w3.org/2000/svg"><ns0:path d="M18.58,1H5.43L3,8v9h3v-2h12v2h3V8L18.58,1z M6.5,12C5.67,12,5,11.33,5,10.5S5.67,9,6.5,9S8,9.67,8,10.5S7.33,12,6.5,12z M17.5,12c-0.83,0-1.5-0.67-1.5-1.5S16.67,9,17.5,9S19,9.67,19,10.5S18.33,12,17.5,12z M5,7l1.5-4.5h11L19,7H5z" /><ns0:polygon points="7,20 11,20 11,18 17,21 13,21 13,23" /></ns0:g></g></svg>