<svg viewBox="0 0 1024 1024" width="200" height="200" xmlns="http://www.w3.org/2000/svg"><g transform="scale(51.2)"><ns0:rect xmlns:ns0="http://www.w3.org/2000/svg" fill="none" height="20" width="20" /><ns0:rect xmlns:ns0="http://www.w3.org/2000/svg" height="3.75" opacity=".3" width="1.5" x="11.5" y="5.5" /><ns0:path xmlns:ns0="http://www.w3.org/2000/svg" d="M13,4h-1.5C10.67,4,10,4.67,10,5.5v3.75c0,0.83,0.67,1.5,1.5,1.5H13c0.83,0,1.5-0.67,1.5-1.5V5.5C14.5,4.67,13.83,4,13,4z M13,9.25h-1.5V5.5H13V9.25z M8.4,13H15v1.5H8.4c-0.66,0-1.24-0.43-1.43-1.06L5,7V4h1.5v3L8.4,13z M7.5,15.5H15V17H7.5V15.5z" /></g></svg>