<svg viewBox="0 0 1024 1024" width="200" height="200" xmlns="http://www.w3.org/2000/svg"><g transform="scale(51.2)"><ns0:g xmlns:ns0="http://www.w3.org/2000/svg"><ns0:rect fill="none" height="20" width="20" y="0" /></ns0:g><ns0:g xmlns:ns0="http://www.w3.org/2000/svg"><ns0:g><ns0:polygon points="2,18 13.49,13.93 6.07,6.51" /><ns0:polygon points="11.55,2.09 10.84,2.8 12.96,4.92 9.78,8.1 10.49,8.81 14.37,4.92" /><ns0:polygon points="9.07,3.15 8.36,3.86 9.78,5.27 8.36,6.69 9.07,7.39 11.19,5.27" /><ns0:polygon points="15.79,7.75 12.61,10.93 13.31,11.64 15.79,9.16 17.91,11.28 18.62,10.58" /><ns0:polygon points="19.32,5.63 17.2,3.5 11.19,9.51 11.9,10.22 17.2,4.92 18.62,6.33" /></ns0:g></ns0:g></g></svg>