<svg viewBox="0 0 1024 1024" width="200" height="200" xmlns="http://www.w3.org/2000/svg"><g transform="scale(51.2)"><ns0:g xmlns:ns0="http://www.w3.org/2000/svg"><ns0:rect fill="none" height="20" width="20" /></ns0:g><ns0:g xmlns:ns0="http://www.w3.org/2000/svg"><ns0:g><ns0:g><ns0:path d="M16,7h-3V5c0-0.55-0.45-1-1-1H8C7.45,4,7,4.45,7,5v2H4C3.45,7,3,7.45,3,8v8h14V8C17,7.45,16.55,7,16,7z M8,5h4v2H8V5z M16,15H4v-3h2v1h1v-1h6v1h1v-1h2V15z M16,11h-2v-1h-1v1H7v-1H6v1H4V8h3h6h3V11z" /></ns0:g><ns0:g opacity=".3"><ns0:polygon points="7,8 4,8 4,11 6,11 6,10 7,10 7,11 13,11 13,10 14,10 14,11 16,11 16,8 13,8" /></ns0:g><ns0:g opacity=".3"><ns0:polygon points="14,13 13,13 13,12 7,12 7,13 6,13 6,12 4,12 4,15 16,15 16,12 14,12" /></ns0:g></ns0:g></ns0:g></g></svg>