<svg viewBox="0 0 1024 1024" width="200" height="200" xmlns="http://www.w3.org/2000/svg"><g transform="scale(51.2)"><ns0:g xmlns:ns0="http://www.w3.org/2000/svg"><ns0:rect fill="none" height="20" width="20" y="0" /></ns0:g><ns0:g xmlns:ns0="http://www.w3.org/2000/svg"><ns0:path d="M18,6c0-1.66-1.34-3-3-3H5C3.34,3,2,4.34,2,6c0,1.3,0.84,2.4,2,2.82v6.68C4,16.33,4.67,17,5.5,17h9 c0.83,0,1.5-0.67,1.5-1.5l0-6.68C17.16,8.4,18,7.3,18,6z M12.71,11.71l-2,2c-0.39,0.39-1.02,0.39-1.41,0l-2-2 c-0.39-0.39-0.39-1.02,0-1.41l2-2c0.39-0.39,1.02-0.39,1.41,0l2,2C13.1,10.68,13.1,11.32,12.71,11.71z" /></ns0:g></g></svg>