<svg viewBox="0 0 1024 1024" width="200" height="200" xmlns="http://www.w3.org/2000/svg"><g transform="scale(51.2)"><ns0:g xmlns:ns0="http://www.w3.org/2000/svg"><ns0:rect fill="none" height="20" width="20" x="0" /></ns0:g><ns0:g xmlns:ns0="http://www.w3.org/2000/svg"><ns0:g><ns0:rect height="1" width="10" x="4" y="4" /><ns0:path d="M13,14h1v-3h1v-1l-1-4H4l-1,4v1h1v5h6v-5h3V14z M9,15H5v-4h4V15z M4.03,10l0.75-3h8.44l0.75,3H4.03z" /><ns0:polygon points="18,15 16,15 16,13 15,13 15,15 13,15 13,16 15,16 15,18 16,18 16,16 18,16" /></ns0:g></ns0:g></g></svg>