<svg viewBox="0 0 1024 1024" width="200" height="200" xmlns="http://www.w3.org/2000/svg"><g transform="scale(51.2)"><ns0:g xmlns:ns0="http://www.w3.org/2000/svg"><ns0:rect fill="none" height="20" width="20" /></ns0:g><ns0:g xmlns:ns0="http://www.w3.org/2000/svg"><ns0:path d="M8.25,16C8.66,16,9,15.66,9,15.25v-4.69l4-4l0,0.94c0,0.41,0.34,0.75,0.75,0.75c0.41,0,0.75-0.34,0.75-0.75l0-2.5 c0-0.55-0.45-1-1-1L11,4c-0.41,0-0.75,0.34-0.75,0.75c0,0.41,0.34,0.75,0.75,0.75l0.94,0l-4,4C7.66,9.78,7.5,10.16,7.5,10.56v4.69 C7.5,15.66,7.84,16,8.25,16z" /></ns0:g></g></svg>