<svg viewBox="0 0 1024 1024" width="200" height="200" xmlns="http://www.w3.org/2000/svg"><g transform="scale(42.666666666666664)"><ns0:g xmlns:ns0="http://www.w3.org/2000/svg"><ns0:rect fill="none" height="24" width="24" /></ns0:g><ns0:g xmlns:ns0="http://www.w3.org/2000/svg"><ns0:path d="M8,13c-2.21,0-4-1.79-4-4c0-2.21,1.79-4,4-4c2.21,0,4,1.79,4,4l0,1l6.17,0l-1.59,1.59L18,13l4-4l-4-4l-1.41,1.41L18.17,8 l-4.25,0C13.44,5.16,10.97,3,8,3C4.69,3,2,5.69,2,9c0,2.97,2.16,5.44,5,5.92L7,21h2l0-8L8,13z" /></ns0:g></g></svg>