<svg viewBox="0 0 1024 1024" width="200" height="200" xmlns="http://www.w3.org/2000/svg"><g transform="scale(51.2)"><ns0:g xmlns:ns0="http://www.w3.org/2000/svg"><ns0:rect fill="none" height="20" width="20" /></ns0:g><ns0:g xmlns:ns0="http://www.w3.org/2000/svg"><ns0:g><ns0:polygon opacity=".3" points="10.29,8.5 8,4.83 5.71,8.5 6.91,8.5 3.73,13.5 12.27,13.5 9.09,8.5" /><ns0:polygon opacity=".3" points="13.09,8.5 14.29,8.5 12,4.83 10.88,6.62 13,10 11.82,10 14.05,13.5 16.27,13.5" /><ns0:path d="M15.82,10H17l-5-8l-2,3.2L8,2l-5,8h1.18L1,15h5.5v3h3v-3h1v3h3v-3H19L15.82,10z M3.73,13.5l3.18-5H5.71L8,4.83l2.29,3.67 H9.09l3.18,5H3.73z M11.82,10H13l-2.12-3.38L12,4.83l2.29,3.67h-1.21l3.18,5h-2.22L11.82,10z" /></ns0:g></ns0:g></g></svg>