<svg viewBox="0 0 1024 1024" width="200" height="200" xmlns="http://www.w3.org/2000/svg"><g transform="scale(42.666666666666664)"><ns0:g xmlns:ns0="http://www.w3.org/2000/svg"><ns0:rect fill="none" height="24" width="24" y="0" /></ns0:g><ns0:g xmlns:ns0="http://www.w3.org/2000/svg"><ns0:g><ns0:g><ns0:g><ns0:path d="M3,14c0,1.3,0.84,2.4,2,2.82V20H3v2h6v-2H7v-3.18C8.16,16.4,9,15.3,9,14V6H3V14z M5,8h2v3H5V8z" /></ns0:g><ns0:g><ns0:path d="M22,9l-3-1.01V2h-5v6l-3,1.01V22h11V9z M16,4h1v1h-1V4z M13,10.44l3-0.98V7h1v2.46l3,0.98V12h-7V10.44z M20,20h-7v-2h7 V20z" /></ns0:g></ns0:g></ns0:g></ns0:g></g></svg>