<svg viewBox="0 0 1024 1024" width="200" height="200" xmlns="http://www.w3.org/2000/svg"><g transform="scale(51.2)"><ns0:g xmlns:ns0="http://www.w3.org/2000/svg"><ns0:rect fill="none" height="20" width="20" /></ns0:g><ns0:g xmlns:ns0="http://www.w3.org/2000/svg"><ns0:g><ns0:g><ns0:path d="M6.75,14H6v-3h3.36c0.65-0.31,1.37-0.5,2.14-0.5h5c0.17,0,0.33,0.03,0.5,0.05V3H3v14h3.75C6.6,16.52,6.5,16.03,6.5,15.5 S6.6,14.48,6.75,14z M11,6h3v3h-3V6z M6,6h3v3H6V6z" /></ns0:g><ns0:path d="M9.5,15.5c0-1.1,0.9-2,2-2h1.75V12H11.5C9.57,12,8,13.57,8,15.5S9.57,19,11.5,19h1.75v-1.5H11.5 C10.4,17.5,9.5,16.6,9.5,15.5z" /><ns0:path d="M16.5,12h-1.75v1.5h1.75c1.1,0,2,0.9,2,2s-0.9,2-2,2h-1.75V19h1.75c1.93,0,3.5-1.57,3.5-3.5S18.43,12,16.5,12z" /><ns0:rect height="1.5" width="4.5" x="11.75" y="14.75" /></ns0:g></ns0:g></g></svg>