<svg viewBox="0 0 1024 1024" width="200" height="200" xmlns="http://www.w3.org/2000/svg"><g transform="scale(51.2)"><ns0:g xmlns:ns0="http://www.w3.org/2000/svg"><ns0:rect fill="none" height="20" width="20" /></ns0:g><ns0:g xmlns:ns0="http://www.w3.org/2000/svg"><ns0:g><ns0:rect height="1.5" width="9" x="3" y="3" /><ns0:path d="M11.5,5.5h-8C2.67,5.5,2,6.17,2,7v8.5C2,16.33,2.67,17,3.5,17h8c0.83,0,1.5-0.67,1.5-1.5V7C13,6.17,12.33,5.5,11.5,5.5z M10.5,12h-2v2h-2v-2h-2v-2h2V8h2v2h2V12z" /><ns0:path d="M16.5,5.5c-1.38,0-2.5,1.46-2.5,3.25c0,1.45,0.74,2.67,1.75,3.08v4.42c0,0.41,0.34,0.75,0.75,0.75s0.75-0.34,0.75-0.75 v-4.42C18.26,11.42,19,10.2,19,8.75C19,6.96,17.88,5.5,16.5,5.5z" /></ns0:g></ns0:g></g></svg>