<svg viewBox="0 0 1024 1024" width="200" height="200" xmlns="http://www.w3.org/2000/svg"><g transform="scale(51.2)"><ns0:g xmlns:ns0="http://www.w3.org/2000/svg"><ns0:rect fill="none" height="20" width="20" /></ns0:g><ns0:g xmlns:ns0="http://www.w3.org/2000/svg"><ns0:g><ns0:g><ns0:path d="M3.5,15.5h8V7h-8V15.5z M4.5,10h2V8h2v2h2v2h-2v2h-2v-2h-2V10z" opacity=".3" /><ns0:path d="M11.5,5.5h-8C2.67,5.5,2,6.17,2,7v8.5C2,16.33,2.67,17,3.5,17h8c0.83,0,1.5-0.67,1.5-1.5V7C13,6.17,12.33,5.5,11.5,5.5 M11.5,15.5h-8V7h8V15.5z" /><ns0:rect height="1.5" width="9" x="3" y="3" /><ns0:polygon points="6.5,14 8.5,14 8.5,12 10.5,12 10.5,10 8.5,10 8.5,8 6.5,8 6.5,10 4.5,10 4.5,12 6.5,12" /></ns0:g><ns0:ellipse cx="16.5" cy="8.75" opacity=".3" rx="1" ry="1.75" /><ns0:path d="M16.5,5.5c-1.38,0-2.5,1.46-2.5,3.25c0,1.45,0.74,2.67,1.75,3.08v4.42c0,0.41,0.34,0.75,0.75,0.75s0.75-0.34,0.75-0.75 v-4.42C18.26,11.42,19,10.2,19,8.75C19,6.96,17.88,5.5,16.5,5.5z M16.5,10.5c-0.46,0-1-0.76-1-1.75c0-0.99,0.54-1.75,1-1.75 c0.46,0,1,0.76,1,1.75C17.5,9.74,16.96,10.5,16.5,10.5z" /></ns0:g></ns0:g></g></svg>