<svg viewBox="0 0 1024 1024" width="200" height="200" xmlns="http://www.w3.org/2000/svg"><g transform="scale(42.666666666666664)"><ns0:g xmlns:ns0="http://www.w3.org/2000/svg"><ns0:path d="M0,0h24v24H0V0z" fill="none" /></ns0:g><ns0:g xmlns:ns0="http://www.w3.org/2000/svg"><ns0:g><ns0:path d="M18,8l4,4l-4,4l-1.41-1.41L18.17,13H13v-2h5.17l-1.59-1.59L18,8z M7,1.01L17,1c1.1,0,2,0.9,2,2v4h-2V6H7v12h10v-1h2v4 c0,1.1-0.9,2-2,2H7c-1.1,0-2-0.9-2-2V3C5,1.9,5.9,1.01,7,1.01z M7,21h10v-1H7V21z M7,4h10V3H7V4z" /></ns0:g></ns0:g></g></svg>