<svg viewBox="0 0 1024 1024" width="200" height="200" xmlns="http://www.w3.org/2000/svg"><g transform="scale(42.666666666666664)"><ns0:g xmlns:ns0="http://www.w3.org/2000/svg"><ns0:path d="M0,0h24v24H0V0z" fill="none" /></ns0:g><ns0:g xmlns:ns0="http://www.w3.org/2000/svg"><ns0:g><ns0:rect height="1" opacity=".3" width="10" x="7" y="3" /><ns0:g><ns0:rect height="1" opacity=".3" width="10" x="7" y="20" /><ns0:path d="M22,12l-4-4v3h-5v2h5v3L22,12z M17,18H7V6h10v1h2V3c0-1.1-0.9-2-2-2L7,1.01C5.9,1.01,5,1.9,5,3v18c0,1.1,0.9,2,2,2h10 c1.1,0,2-0.9,2-2v-4h-2V18z M7,3h10v1H7V3z M17,21H7v-1h10V21z" /></ns0:g></ns0:g></ns0:g></g></svg>