<svg viewBox="0 0 1024 1024" width="200" height="200" xmlns="http://www.w3.org/2000/svg"><g transform="scale(51.2)"><ns0:rect xmlns:ns0="http://www.w3.org/2000/svg" fill="none" height="20" width="20" /><ns0:path xmlns:ns0="http://www.w3.org/2000/svg" d="M10,6c-2.21,0-4,1.79-4,4s1.79,4,4,4s4-1.79,4-4S12.21,6,10,6L10,6z" /><ns0:path xmlns:ns0="http://www.w3.org/2000/svg" d="M3.75,10.75c0.41,0,0.75-0.34,0.75-0.75c0-0.41-0.34-0.75-0.75-0.75h-2C1.34,9.25,1,9.59,1,10s0.34,0.75,0.75,0.75H3.75z" /><ns0:path xmlns:ns0="http://www.w3.org/2000/svg" d="M18.25,10.75c0.41,0,0.75-0.34,0.75-0.75c0-0.41-0.34-0.75-0.75-0.75h-2c-0.41,0-0.75,0.34-0.75,0.75s0.34,0.75,0.75,0.75 H18.25z" /><ns0:path xmlns:ns0="http://www.w3.org/2000/svg" d="M9.25,3.75C9.25,4.16,9.59,4.5,10,4.5c0.41,0,0.75-0.34,0.75-0.75v-2C10.75,1.34,10.41,1,10,1S9.25,1.34,9.25,1.75V3.75z" /><ns0:path xmlns:ns0="http://www.w3.org/2000/svg" d="M13.89,5.05c-0.29,0.29-0.29,0.77,0,1.06s0.77,0.29,1.06,0l1.06-1.06c0.29-0.29,0.29-0.77,0-1.06 c-0.29-0.29-0.77-0.29-1.06,0L13.89,5.05z" /><ns0:path xmlns:ns0="http://www.w3.org/2000/svg" d="M3.99,14.95c-0.29,0.29-0.29,0.77,0,1.06s0.77,0.29,1.06,0l1.06-1.06c0.29-0.29,0.29-0.77,0-1.06 c-0.29-0.29-0.77-0.29-1.06,0L3.99,14.95z" /><ns0:path xmlns:ns0="http://www.w3.org/2000/svg" d="M5.05,6.11c0.29,0.29,0.77,0.29,1.06,0s0.29-0.77,0-1.06L5.05,3.99c-0.29-0.29-0.77-0.29-1.06,0s-0.29,0.77,0,1.06 L5.05,6.11z" /><ns0:path xmlns:ns0="http://www.w3.org/2000/svg" d="M14.95,16.01c0.29,0.29,0.77,0.29,1.06,0s0.29-0.77,0-1.06l-1.06-1.06c-0.29-0.29-0.77-0.29-1.06,0 c-0.29,0.29-0.29,0.77,0,1.06L14.95,16.01z" /><ns0:path xmlns:ns0="http://www.w3.org/2000/svg" d="M9.25,18.25C9.25,18.66,9.59,19,10,19c0.41,0,0.75-0.34,0.75-0.75v-2c0-0.41-0.34-0.75-0.75-0.75s-0.75,0.34-0.75,0.75 V18.25z" /></g></svg>