<svg viewBox="0 0 1024 1024" width="200" height="200" xmlns="http://www.w3.org/2000/svg"><g transform="scale(42.666666666666664)"><ns0:g xmlns:ns0="http://www.w3.org/2000/svg"><ns0:path d="M0,0h24v24H0V0z" fill="none" /></ns0:g><ns0:g xmlns:ns0="http://www.w3.org/2000/svg"><ns0:g><ns0:path d="M12,2c-4.2,0-8,3.22-8,8.2c0,3.32,2.67,7.25,8,11.8c5.33-4.55,8-8.48,8-11.8C20,5.22,16.2,2,12,2z M12,19.33 c-4.05-3.7-6-6.79-6-9.14C6,6.57,8.65,4,12,4s6,2.57,6,6.2C18,12.54,16.05,15.64,12,19.33z" /><ns0:rect height="5" width="2" x="11" y="6" /><ns0:rect height="2" width="2" x="11" y="13" /></ns0:g></ns0:g></g></svg>