<svg viewBox="0 0 1024 1024" width="200" height="200" xmlns="http://www.w3.org/2000/svg"><g transform="scale(42.666666666666664)"><ns0:path xmlns:ns0="http://www.w3.org/2000/svg" d="M0 0h24v24H0V0z" fill="none" /><ns0:path xmlns:ns0="http://www.w3.org/2000/svg" d="M12 6c-3.9 0-7 3.1-7 7s3.1 7 7 7 7-3.1 7-7-3.1-7-7-7zm3.7 10.9L11 14V8h1.5v5.3l4 2.4-.8 1.2z" opacity=".3" /><ns0:path xmlns:ns0="http://www.w3.org/2000/svg" d="M22 5.7l-4.6-3.9-1.3 1.5 4.6 3.9zM12.5 8H11v6l4.7 2.9.8-1.2-4-2.4zM12 4c-5 0-9 4-9 9s4 9 9 9 9-4 9-9-4-9-9-9zm0 16c-3.9 0-7-3.1-7-7s3.1-7 7-7 7 3.1 7 7-3.1 7-7 7zM7.9 3.4L6.6 1.9 2 5.7l1.3 1.5z" /></g></svg>