<svg viewBox="0 0 1024 1024" width="200" height="200" xmlns="http://www.w3.org/2000/svg"><g transform="scale(42.666666666666664)"><ns0:g xmlns:ns0="http://www.w3.org/2000/svg"><ns0:path d="M0,0h24v24H0V0z" fill="none" /></ns0:g><ns0:g xmlns:ns0="http://www.w3.org/2000/svg"><ns0:g><ns0:path d="M18,2h-8L4,8v12c0,1.1,0.9,2,2,2h12c1.1,0,2-0.9,2-2V4C20,2.9,19.1,2,18,2z M18,4v16H6V8.83L10.83,4H18z" /><ns0:path d="M16,13l-4,4l-4-4l1.41-1.41L11,13.17V9.02L13,9v4.17l1.59-1.59L16,13z" /></ns0:g></ns0:g></g></svg>