<svg viewBox="0 0 1024 1024" width="200" height="200" xmlns="http://www.w3.org/2000/svg"><g transform="scale(42.666666666666664)"><ns0:g xmlns:ns0="http://www.w3.org/2000/svg"><ns0:path d="M0,0h24v24H0V0z" fill="none" /></ns0:g><ns0:g xmlns:ns0="http://www.w3.org/2000/svg"><ns0:g><ns0:path d="M12,11H6V8c0-0.55-0.45-1-1-1h0C4.45,7,4,7.45,4,8v8c0,0.55,0.45,1,1,1h0c0.55,0,1-0.45,1-1v-3h6v3c0,0.55,0.45,1,1,1h0 c0.55,0,1-0.45,1-1V8c0-0.55-0.45-1-1-1h0c-0.55,0-1,0.45-1,1V11z M21,11h-1v-1c0-0.55-0.45-1-1-1h0c-0.55,0-1,0.45-1,1v1h-1 c-0.55,0-1,0.45-1,1v0c0,0.55,0.45,1,1,1h1v1c0,0.55,0.45,1,1,1h0c0.55,0,1-0.45,1-1v-1h1c0.55,0,1-0.45,1-1v0 C22,11.45,21.55,11,21,11z" /></ns0:g></ns0:g></g></svg>