<svg viewBox="0 0 1024 1024" width="200" height="200" xmlns="http://www.w3.org/2000/svg"><g transform="scale(51.2)"><ns0:g xmlns:ns0="http://www.w3.org/2000/svg"><ns0:rect fill="none" height="20" width="20" /></ns0:g><ns0:g xmlns:ns0="http://www.w3.org/2000/svg"><ns0:g><ns0:g><ns0:path d="M16.56,11.53l-5.97,5.97L3,9.91v2.12l6.53,6.53C9.82,18.85,10.21,19,10.59,19c0.38,0,0.77-0.15,1.06-0.44l5.97-5.97 L16.56,11.53z" /></ns0:g><ns0:g><ns0:path d="M3,8.03l7.59,7.59l7.03-7.03L10.03,1H3V8.03z M6.5,3.5c0.55,0,1,0.45,1,1s-0.45,1-1,1s-1-0.45-1-1S5.95,3.5,6.5,3.5z" /></ns0:g></ns0:g></ns0:g></g></svg>