<svg viewBox="0 0 1024 1024" width="200" height="200" xmlns="http://www.w3.org/2000/svg"><g transform="scale(51.2)"><ns0:g xmlns:ns0="http://www.w3.org/2000/svg"><ns0:rect fill="none" height="20" width="20" /></ns0:g><ns0:g xmlns:ns0="http://www.w3.org/2000/svg"><ns0:g><ns0:g opacity=".3"><ns0:path d="M15.5,8.59L9.41,2.5H4.5v4.91l6.09,6.09L15.5,8.59z M6.5,5.5c-0.55,0-1-0.45-1-1s0.45-1,1-1s1,0.45,1,1S7.05,5.5,6.5,5.5 z" /></ns0:g><ns0:path d="M16.56,11.53l-5.97,5.97L3,9.91v1.5c0,0.4,0.16,0.78,0.44,1.06l6.09,6.09C9.82,18.85,10.21,19,10.59,19 c0.38,0,0.77-0.15,1.06-0.44l4.91-4.91C17.15,13.07,17.15,12.12,16.56,11.53L16.56,11.53z" /><ns0:path d="M9.53,14.56C9.82,14.85,10.21,15,10.59,15c0.38,0,0.77-0.15,1.06-0.44l4.91-4.91c0.59-0.59,0.59-1.54,0-2.12l-6.09-6.09 C10.19,1.16,9.81,1,9.41,1H4.5C3.67,1,3,1.67,3,2.5v4.91c0,0.4,0.16,0.78,0.44,1.06L9.53,14.56z M4.5,2.5h4.91l6.09,6.09 l-4.91,4.91L4.5,7.41V2.5z" /><ns0:circle cx="6.5" cy="4.5" r="1" /></ns0:g></ns0:g></g></svg>