<svg viewBox="0 0 1024 1024" width="200" height="200" xmlns="http://www.w3.org/2000/svg"><g transform="scale(42.666666666666664)"><ns0:g xmlns:ns0="http://www.w3.org/2000/svg"><ns0:path d="M0,0h24v24H0V0z" fill="none" /></ns0:g><ns0:g xmlns:ns0="http://www.w3.org/2000/svg"><ns0:g><ns0:path d="M17,14.76V8h5.92C19.97,5.51,16.16,4,12,4C7.31,4,3.07,5.9,0,8.98l6.35,6.36C7.8,13.89,9.79,13,12,13 C13.89,13,15.63,13.66,17,14.76z" fill-opacity=".3" /><ns0:g><ns0:path d="M6.35,15.34L12,21l5-5.01v-1.23c-1.37-1.1-3.11-1.76-5-1.76C9.79,13,7.8,13.89,6.35,15.34z" /><ns0:rect height="2" width="2" x="19" y="18" /><ns0:rect height="6" width="2" x="19" y="10" /></ns0:g></ns0:g></ns0:g></g></svg>