<svg viewBox="0 0 1024 1024" width="200" height="200" xmlns="http://www.w3.org/2000/svg"><g transform="scale(42.666666666666664)"><ns0:g xmlns:ns0="http://www.w3.org/2000/svg"><ns0:path d="M0,0h24v24H0V0z" fill="none" /></ns0:g><ns0:g xmlns:ns0="http://www.w3.org/2000/svg"><ns0:g><ns0:polygon points="11,8 6,8 6,6 11,6 11,4 8.5,4 8.5,3 6.5,3 6.5,4 4,4 4,10 9,10 9,12 4,12 4,14 6.5,14 6.5,15 8.5,15 8.5,14 11,14" /><ns0:polygon points="19.59,12.52 13.93,18.17 11.1,15.34 9.69,16.76 13.93,21 21,13.93" /></ns0:g></ns0:g></g></svg>