<svg viewBox="0 0 1024 1024" width="200" height="200" xmlns="http://www.w3.org/2000/svg"><g transform="scale(42.666666666666664)"><ns0:g xmlns:ns0="http://www.w3.org/2000/svg"><ns0:path d="M0,0h24v24H0V0z" fill="none" /></ns0:g><ns0:g xmlns:ns0="http://www.w3.org/2000/svg"><ns0:g><ns0:path d="M16,8L16,8c0-0.55-0.45-1-1-1H9C8.45,7,8,7.45,8,8v8c0,0.55,0.45,1,1,1h6c0.55,0,1-0.45,1-1v0c0-0.55-0.45-1-1-1h-5v-2h5 c0.55,0,1-0.45,1-1v0c0-0.55-0.45-1-1-1h-5V9h5C15.55,9,16,8.55,16,8z" /></ns0:g></ns0:g></g></svg>