<svg viewBox="0 0 1024 1024" width="200" height="200" xmlns="http://www.w3.org/2000/svg"><g transform="scale(51.2)"><ns0:g xmlns:ns0="http://www.w3.org/2000/svg"><ns0:g><ns0:rect fill="none" height="20" width="20" /></ns0:g></ns0:g><ns0:g xmlns:ns0="http://www.w3.org/2000/svg"><ns0:g><ns0:path d="M17.25,9c-0.41,0-0.75,0.34-0.75,0.75v4.55c0,0.41,0.34,0.75,0.75,0.75S18,14.71,18,14.3V9.75C18,9.34,17.66,9,17.25,9z" /><ns0:circle cx="17.25" cy="17.25" r=".75" /><ns0:path d="M16.29,3.71L3.71,16.29C3.08,16.92,3.52,18,4.41,18H15v-7.94c0-0.96,0.5-1.9,1.36-2.34c0.6-0.31,1.13-0.26,1.61-0.1 L18,7.5V4.41C18,3.52,16.92,3.08,16.29,3.71z" /></ns0:g></ns0:g></g></svg>