<svg viewBox="0 0 1024 1024" width="200" height="200" xmlns="http://www.w3.org/2000/svg"><g transform="scale(42.666666666666664)"><ns0:g xmlns:ns0="http://www.w3.org/2000/svg"><ns0:path d="M0,0h24v24H0V0z" fill="none" /></ns0:g><ns0:g xmlns:ns0="http://www.w3.org/2000/svg"><ns0:g><ns0:path d="M15,11H9V8c0-0.55-0.45-1-1-1h0C7.45,7,7,7.45,7,8v8c0,0.55,0.45,1,1,1h0c0.55,0,1-0.45,1-1v-3h6v3c0,0.55,0.45,1,1,1h0 c0.55,0,1-0.45,1-1V8c0-0.55-0.45-1-1-1h0c-0.55,0-1,0.45-1,1V11z" /></ns0:g></ns0:g></g></svg>