<svg viewBox="0 0 1024 1024" width="200" height="200" xmlns="http://www.w3.org/2000/svg"><g transform="scale(42.666666666666664)"><ns0:g xmlns:ns0="http://www.w3.org/2000/svg"><ns0:rect fill="none" height="24" width="24" /></ns0:g><ns0:g xmlns:ns0="http://www.w3.org/2000/svg"><ns0:g><ns0:path d="M20,3H4C2.89,3,2,3.89,2,5v12c0,1.1,0.89,2,2,2h4v2h8v-2h4c1.1,0,2-0.9,2-2V5C22,3.89,21.1,3,20,3z M20,17H4V5h16V17z" /><ns0:polygon points="6.5,7.5 9,7.5 9,6 5,6 5,10 6.5,10" /><ns0:polygon points="19,12 17.5,12 17.5,14.5 15,14.5 15,16 19,16" /></ns0:g></ns0:g></g></svg>