<svg viewBox="0 0 1024 1024" width="200" height="200" xmlns="http://www.w3.org/2000/svg"><g transform="scale(42.666666666666664)"><ns0:g xmlns:ns0="http://www.w3.org/2000/svg"><ns0:rect fill="none" height="24" width="24" /></ns0:g><ns0:g xmlns:ns0="http://www.w3.org/2000/svg"><ns0:path d="M10,7V4h4v3H10z M9,17v3H5v-3H9z M19,17v3h-4v-3H19z" opacity=".3" /><ns0:path d="M13,22h8v-7h-3v-4h-5V9h3V2H8v7h3v2H6v4H3v7h8v-7H8v-2h8v2h-3V22z M10,7V4h4v3H10z M9,17v3H5v-3H9z M19,17v3h-4v-3H19z" /></ns0:g></g></svg>