<svg viewBox="0 0 1024 1024" width="200" height="200" xmlns="http://www.w3.org/2000/svg"><g transform="scale(42.666666666666664)"><ns0:path xmlns:ns0="http://www.w3.org/2000/svg" d="M0 0h24v24H0V0z" fill="none" /><ns0:path xmlns:ns0="http://www.w3.org/2000/svg" d="M8 18c.55 0 1-.45 1-1V7c0-.55-.45-1-1-1s-1 .45-1 1v10c0 .55.45 1 1 1zm4 4c.55 0 1-.45 1-1V3c0-.55-.45-1-1-1s-1 .45-1 1v18c0 .55.45 1 1 1zm-8-8c.55 0 1-.45 1-1v-2c0-.55-.45-1-1-1s-1 .45-1 1v2c0 .55.45 1 1 1zm12 4c.55 0 1-.45 1-1V7c0-.55-.45-1-1-1s-1 .45-1 1v10c0 .55.45 1 1 1zm3-7v2c0 .55.45 1 1 1s1-.45 1-1v-2c0-.55-.45-1-1-1s-1 .45-1 1z" /></g></svg>