<svg viewBox="0 0 1024 1024" width="200" height="200" xmlns="http://www.w3.org/2000/svg"><g transform="scale(42.666666666666664)"><ns0:g xmlns:ns0="http://www.w3.org/2000/svg"><ns0:path d="M0,0h24v24H0V0z" fill="none" /></ns0:g><ns0:g xmlns:ns0="http://www.w3.org/2000/svg"><ns0:g><ns0:rect height="2" opacity=".3" width="10" x="7" y="11" /><ns0:path d="M5,15h14V9H5V15z M7,11h10v2H7V11z" /><ns0:rect height="3" width="2" x="11" y="2" /><ns0:rect height="2" transform="matrix(0.7046 -0.7096 0.7096 0.7046 1.1814 15.2381)" width="2.54" x="17.62" y="5.2" /><ns0:rect height="3" width="2" x="11" y="19" /><ns0:polygon points="17.29,17.71 19.08,19.51 20.5,18.09 18.7,16.3" /><ns0:rect height="2.53" transform="matrix(0.7071 -0.7071 0.7071 0.7071 -2.8904 5.4222)" width="1.99" x="4.1" y="4.93" /><ns0:rect height="2" transform="matrix(0.7096 -0.7046 0.7046 0.7096 -11.1263 8.7897)" width="2.54" x="3.83" y="16.89" /></ns0:g></ns0:g></g></svg>