<svg viewBox="0 0 1024 1024" width="200" height="200" xmlns="http://www.w3.org/2000/svg"><g transform="scale(42.666666666666664)"><ns0:g xmlns:ns0="http://www.w3.org/2000/svg"><ns0:path d="M0,0h24v24H0V0z" fill="none" /></ns0:g><ns0:g xmlns:ns0="http://www.w3.org/2000/svg"><ns0:g><ns0:path d="M15,3H3v18h18V9L15,3z M8,17c-0.55,0-1-0.45-1-1s0.45-1,1-1s1,0.45,1,1S8.55,17,8,17z M8,13c-0.55,0-1-0.45-1-1 s0.45-1,1-1s1,0.45,1,1S8.55,13,8,13z M8,9C7.45,9,7,8.55,7,8s0.45-1,1-1s1,0.45,1,1S8.55,9,8,9z M14,10V4.5l5.5,5.5H14z" /></ns0:g></ns0:g></g></svg>