<svg viewBox="0 0 1024 1024" width="200" height="200" xmlns="http://www.w3.org/2000/svg"><g transform="scale(51.2)"><ns0:g xmlns:ns0="http://www.w3.org/2000/svg"><ns0:rect fill="none" height="20" width="20" /></ns0:g><ns0:g xmlns:ns0="http://www.w3.org/2000/svg"><ns0:g><ns0:g><ns0:path d="M9.5,11c0-2.49,2.01-4.5,4.5-4.5c1.76,0,3.27,1.02,4.01,2.5L20,7.01C17.4,4.53,13.88,3,10,3C6.12,3,2.6,4.53,0,7.01 L10,17l1.99-1.99C10.52,14.27,9.5,12.76,9.5,11z" /></ns0:g><ns0:g><ns0:path d="M17,11c0-1.66-1.34-3-3-3s-3,1.34-3,3s1.34,3,3,3c0.56,0,1.07-0.16,1.52-0.42L17.94,16L19,14.94l-2.42-2.42 C16.84,12.07,17,11.56,17,11z M12.5,11c0-0.83,0.67-1.5,1.5-1.5s1.5,0.67,1.5,1.5s-0.67,1.5-1.5,1.5S12.5,11.83,12.5,11z" /></ns0:g></ns0:g></ns0:g></g></svg>