<svg viewBox="0 0 1024 1024" width="200" height="200" xmlns="http://www.w3.org/2000/svg"><g transform="scale(42.666666666666664)"><ns0:g xmlns:ns0="http://www.w3.org/2000/svg"><ns0:path d="M0,0h24v24H0V0z" fill="none" /></ns0:g><ns0:g xmlns:ns0="http://www.w3.org/2000/svg"><ns0:g><ns0:path d="M19,3H5C3.9,3,3,3.9,3,5v14c0,1.1,0.9,2,2,2h14c1.1,0,2-0.9,2-2V5C21,3.9,20.1,3,19,3z M12,12c-1.66,0-3-1.34-3-3 s1.34-3,3-3s3,1.34,3,3S13.66,12,12,12z" /><ns0:circle cx="10.5" cy="9" r=".5" /><ns0:circle cx="13.5" cy="9" r=".5" /><ns0:circle cx="12" cy="9" r=".5" /></ns0:g></ns0:g></g></svg>