<svg viewBox="0 0 1024 1024" width="200" height="200" xmlns="http://www.w3.org/2000/svg"><g transform="scale(42.666666666666664)"><ns0:path xmlns:ns0="http://www.w3.org/2000/svg" d="M0 0h24v24H0V0z" fill="none" /><ns0:path xmlns:ns0="http://www.w3.org/2000/svg" d="M23.64 7c-.45-.34-4.93-4-11.64-4-1.32 0-2.55.14-3.69.38L18.43 13.5 23.64 7zM4.12 2.01c-.39-.39-1.02-.39-1.41 0-.39.39-.39 1.02 0 1.41l1.35 1.35C1.91 5.76.59 6.82.36 7l10.08 12.56c.8 1 2.32 1 3.12 0l2.35-2.93 2.61 2.61c.39.39 1.02.39 1.41 0 .39-.39.39-1.02 0-1.41L4.12 2.01z" /></g></svg>