<svg viewBox="0 0 1024 1024" width="200" height="200" xmlns="http://www.w3.org/2000/svg"><g transform="scale(51.2)"><ns0:g xmlns:ns0="http://www.w3.org/2000/svg"><ns0:rect fill="none" height="20" width="20" /></ns0:g><ns0:g xmlns:ns0="http://www.w3.org/2000/svg"><ns0:polygon opacity=".3" points="12.5,16.5 5.5,16.5 5.5,3.5 11,3.5 11,7 14.5,7 14.5,12 12.5,12" /><ns0:path d="M14,17.74V13.5h4.24V15h-1.68l2.21,2.21l-1.06,1.06l-2.21-2.21v1.68H14z M12.5,16.5h-7v-13H11V7h3.5v5H16V6l-4-4H5.5 C4.67,2,4,2.67,4,3.5v13C4,17.33,4.67,18,5.5,18h7V16.5z" /></ns0:g></g></svg>