<svg viewBox="0 0 1024 1024" width="200" height="200" xmlns="http://www.w3.org/2000/svg"><g transform="scale(42.666666666666664)"><ns0:g xmlns:ns0="http://www.w3.org/2000/svg"><ns0:rect fill="none" height="24" width="24" /></ns0:g><ns0:g xmlns:ns0="http://www.w3.org/2000/svg"><ns0:path d="M7.4,10h1.59v5c0,0.55,0.45,1,1,1h4c0.55,0,1-0.45,1-1v-5h1.59c0.89,0,1.34-1.08,0.71-1.71L12.7,3.7 c-0.39-0.39-1.02-0.39-1.41,0L6.7,8.29C6.07,8.92,6.51,10,7.4,10z M5,19c0,0.55,0.45,1,1,1h12c0.55,0,1-0.45,1-1s-0.45-1-1-1H6 C5.45,18,5,18.45,5,19z" /></ns0:g></g></svg>