<svg viewBox="0 0 1024 1024" width="200" height="200" xmlns="http://www.w3.org/2000/svg"><g transform="scale(42.666666666666664)"><ns0:g xmlns:ns0="http://www.w3.org/2000/svg"><ns0:rect fill="none" height="24" width="24" /></ns0:g><ns0:g xmlns:ns0="http://www.w3.org/2000/svg"><ns0:g><ns0:rect height="4" opacity=".3" width="4" x="5" y="5" /><ns0:rect height="4" opacity=".3" width="4" x="5" y="15" /><ns0:rect height="4" opacity=".3" width="4" x="15" y="15" /><ns0:rect height="4" opacity=".3" width="4" x="15" y="5" /><ns0:path d="M3,21h8v-8H3V21z M5,15h4v4H5V15z" /><ns0:path d="M3,11h8V3H3V11z M5,5h4v4H5V5z" /><ns0:path d="M13,21h8v-8h-8V21z M15,15h4v4h-4V15z" /><ns0:path d="M13,3v8h8V3H13z M19,9h-4V5h4V9z" /></ns0:g></ns0:g></g></svg>