<svg viewBox="0 0 1024 1024" width="200" height="200" xmlns="http://www.w3.org/2000/svg"><g transform="scale(51.2)"><ns0:g xmlns:ns0="http://www.w3.org/2000/svg"><ns0:rect fill="none" height="20" width="20" /></ns0:g><ns0:g xmlns:ns0="http://www.w3.org/2000/svg"><ns0:g><ns0:polygon enable-background="new" opacity=".3" points="3.5,14.5 12.38,14.5 3.5,5.62" /><ns0:polygon enable-background="new" opacity=".3" points="9.62,7.5 16.5,14.38 16.5,7.5" /><ns0:path d="M16.5,7.5v6.88l1.12,1.12C17.85,15.23,18,14.88,18,14.5v-7C18,6.67,17.33,6,16.5,6H10L8,4H6.12l3.5,3.5H16.5z" /><ns0:path d="M2.22,2.22L1.16,3.28l1.22,1.22C2.15,4.77,2,5.12,2,5.5v9C2,15.33,2.67,16,3.5,16h10.38l2.84,2.84l1.06-1.06L2.22,2.22z M3.5,14.5V5.62l8.88,8.88H3.5z" /></ns0:g></ns0:g></g></svg>