<svg viewBox="0 0 1024 1024" width="200" height="200" xmlns="http://www.w3.org/2000/svg"><g transform="scale(42.666666666666664)"><ns0:path xmlns:ns0="http://www.w3.org/2000/svg" d="M0 0h24v24H0V0z" fill="none" /><ns0:path xmlns:ns0="http://www.w3.org/2000/svg" d="M12 21c4.97 0 9-4.03 9-9s-4.03-9-9-9h-1v4h2V5.08c3.39.49 6 3.39 6 6.92 0 3.87-3.13 7-7 7s-7-3.13-7-7c0-1.68.59-3.22 1.58-4.42L12 13l1.41-1.41-6.8-6.8v.02C4.42 6.45 3 9.05 3 12c0 4.97 4.02 9 9 9z" /><ns0:circle xmlns:ns0="http://www.w3.org/2000/svg" cx="12" cy="17" r="1" /><ns0:circle xmlns:ns0="http://www.w3.org/2000/svg" cx="17" cy="12" r="1" /><ns0:circle xmlns:ns0="http://www.w3.org/2000/svg" cx="7" cy="12" r="1" /></g></svg>