<svg viewBox="0 0 1024 1024" width="200" height="200" xmlns="http://www.w3.org/2000/svg"><g transform="scale(51.2)"><ns0:g xmlns:ns0="http://www.w3.org/2000/svg"><ns0:rect fill="none" height="20" width="20" /></ns0:g><ns0:g xmlns:ns0="http://www.w3.org/2000/svg"><ns0:g><ns0:path d="M3.5,3.5v10.88l0.88-0.88h8.12V9.4C12.19,8.83,12,8.19,12,7.5c0-0.69,0.19-1.34,0.5-1.91V3.5H3.5z M8,12H5 v-1.5h3V12z M11,9.25H5v-1.5h6V9.25z M11,6.5H5V5h6V6.5z" opacity=".3" /><ns0:path d="M12.5,9.4v4.1H4.38L3.5,14.38V3.5h9v2.09c0.35-0.64,0.87-1.18,1.5-1.54V3.5C14,2.67,13.33,2,12.5,2h-9 C2.67,2,2,2.67,2,3.5V18l3-3h7.5c0.83,0,1.5-0.67,1.5-1.5v-2.56C13.37,10.57,12.85,10.04,12.5,9.4z" /><ns0:rect height="1.5" width="6" x="5" y="5" /><ns0:rect height="1.5" width="3" x="5" y="10.5" /><ns0:rect height="1.5" width="6" x="5" y="7.75" /><ns0:path d="M17,5.21C16.69,5.08,16.36,5,16,5c-1.38,0-2.5,1.12-2.5,2.5c0,1.38,1.12,2.5,2.5,2.5s2.5-1.12,2.5-2.5v-5H20V1h-3V5.21z" /></ns0:g></ns0:g></g></svg>