<svg viewBox="0 0 1024 1024" width="200" height="200" xmlns="http://www.w3.org/2000/svg"><g transform="scale(42.666666666666664)"><ns0:rect xmlns:ns0="http://www.w3.org/2000/svg" fill="none" height="24" width="24" /><ns0:path xmlns:ns0="http://www.w3.org/2000/svg" d="M6.83,4H20c1.11,0,2,0.9,2,2v12c0,0.34-0.09,0.66-0.23,0.94L20,17.17V8h-9.17L6.83,4z M19.78,22.61L17.17,20H4 c-1.11,0-2-0.9-2-2V6c0-0.34,0.08-0.66,0.23-0.94L1.39,4.22C1,3.83,1,3.2,1.39,2.81l0,0c0.39-0.39,1.02-0.39,1.41,0l18.38,18.38 c0.39,0.39,0.39,1.02,0,1.41l0,0C20.8,23,20.17,23,19.78,22.61z M15.17,18l-10-10H4v10H15.17z" /></g></svg>