<svg viewBox="0 0 1024 1024" width="200" height="200" xmlns="http://www.w3.org/2000/svg"><g transform="scale(42.666666666666664)"><ns0:g xmlns:ns0="http://www.w3.org/2000/svg"><ns0:rect fill="none" height="24" width="24" /></ns0:g><ns0:g xmlns:ns0="http://www.w3.org/2000/svg"><ns0:g><ns0:path d="M12,2C6.48,2,2,6.48,2,12s4.48,10,10,10s10-4.48,10-10S17.52,2,12,2z M10,16L10,16c-0.55,0-1-0.45-1-1V9 c0-0.55,0.45-1,1-1l0,0c0.55,0,1,0.45,1,1v6C11,15.55,10.55,16,10,16z M14,16L14,16c-0.55,0-1-0.45-1-1V9c0-0.55,0.45-1,1-1l0,0 c0.55,0,1,0.45,1,1v6C15,15.55,14.55,16,14,16z" /></ns0:g></ns0:g></g></svg>