<svg viewBox="0 0 1024 1024" width="200" height="200" xmlns="http://www.w3.org/2000/svg"><g transform="scale(42.666666666666664)"><ns0:path xmlns:ns0="http://www.w3.org/2000/svg" d="M0 0h24v24H0V0z" fill="none" /><ns0:path xmlns:ns0="http://www.w3.org/2000/svg" d="M20 6H8.3l8.26-3.34L15.88 1 3.24 6.15C2.51 6.43 2 7.17 2 8v12c0 1.1.89 2 2 2h16c1.11 0 2-.9 2-2V8c0-1.11-.89-2-2-2zm0 2v3h-2V9h-2v2H4V8h16zM4 20v-7h16v7H4z" /><ns0:circle xmlns:ns0="http://www.w3.org/2000/svg" cx="8" cy="16.48" r="2.5" /></g></svg>