<svg viewBox="0 0 1024 1024" width="200" height="200" xmlns="http://www.w3.org/2000/svg"><g transform="scale(42.666666666666664)"><ns0:g xmlns:ns0="http://www.w3.org/2000/svg"><ns0:rect fill="none" height="24" width="24" /><ns0:rect fill="none" height="24" width="24" /><ns0:rect fill="none" height="24" width="24" /></ns0:g><ns0:g xmlns:ns0="http://www.w3.org/2000/svg"><ns0:g><ns0:path d="M12,14c1.66,0,3-1.34,3-3V5c0-1.66-1.34-3-3-3S9,3.34,9,5v6C9,12.66,10.34,14,12,14z" /><ns0:path d="M17,11c0,2.76-2.24,5-5,5s-5-2.24-5-5H5c0,3.53,2.61,6.43,6,6.92V21h2v-3.08c3.39-0.49,6-3.39,6-6.92H17z" /></ns0:g></ns0:g></g></svg>