<svg viewBox="0 0 1024 1024" width="200" height="200" xmlns="http://www.w3.org/2000/svg"><g transform="scale(42.666666666666664)"><ns0:path xmlns:ns0="http://www.w3.org/2000/svg" d="M0 0h24v24H0V0z" fill="none" /><ns0:path xmlns:ns0="http://www.w3.org/2000/svg" d="M5.54 8.46L2 12l3.54 3.54 1.76-1.77L5.54 12l1.76-1.77zm6.46 10l-1.77-1.76-1.77 1.76L12 22l3.54-3.54-1.77-1.76zm6.46-10l-1.76 1.77L18.46 12l-1.76 1.77 1.76 1.77L22 12zm-10-2.92l1.77 1.76L12 5.54l1.77 1.76 1.77-1.76L12 2z" /><ns0:circle xmlns:ns0="http://www.w3.org/2000/svg" cx="12" cy="12" r="3" /></g></svg>