<svg viewBox="0 0 1024 1024" width="200" height="200" xmlns="http://www.w3.org/2000/svg"><g transform="scale(42.666666666666664)"><ns0:path xmlns:ns0="http://www.w3.org/2000/svg" d="M14 6H4c-.55 0-1 .45-1 1s.45 1 1 1h10c.55 0 1-.45 1-1s-.45-1-1-1zm0 4H4c-.55 0-1 .45-1 1s.45 1 1 1h10c.55 0 1-.45 1-1s-.45-1-1-1zM4 16h6c.55 0 1-.45 1-1s-.45-1-1-1H4c-.55 0-1 .45-1 1s.45 1 1 1zM19 6c-1.1 0-2 .9-2 2v6.18c-.31-.11-.65-.18-1-.18-1.84 0-3.28 1.64-2.95 3.54.21 1.21 1.2 2.2 2.41 2.41 1.9.33 3.54-1.11 3.54-2.95V8h2c.55 0 1-.45 1-1s-.45-1-1-1h-2z" /></g></svg>