<svg viewBox="0 0 1024 1024" width="200" height="200" xmlns="http://www.w3.org/2000/svg"><g transform="scale(51.2)"><ns0:g xmlns:ns0="http://www.w3.org/2000/svg"><ns0:rect fill="none" height="20" width="20" /></ns0:g><ns0:g xmlns:ns0="http://www.w3.org/2000/svg"><ns0:g><ns0:path d="M10,3.5c-3.58,0-6.5,2.92-6.5,6.5s2.92,6.5,6.5,6.5s6.5-2.92,6.5-6.5 S13.58,3.5,10,3.5z M8,13.5v-7l5.5,3.5L8,13.5z" enable-background="new" opacity=".3" /><ns0:path d="M10,2c-4.42,0-8,3.58-8,8s3.58,8,8,8s8-3.58,8-8S14.42,2,10,2z M10,16.5c-3.58,0-6.5-2.92-6.5-6.5S6.42,3.5,10,3.5 s6.5,2.92,6.5,6.5S13.58,16.5,10,16.5z" /><ns0:polygon points="8,13.5 13.5,10 8,6.5" /></ns0:g></ns0:g></g></svg>