<svg viewBox="0 0 1024 1024" width="200" height="200" xmlns="http://www.w3.org/2000/svg"><g transform="scale(42.666666666666664)"><ns0:g xmlns:ns0="http://www.w3.org/2000/svg"><ns0:rect fill="none" height="24" width="24" x="0" /></ns0:g><ns0:g xmlns:ns0="http://www.w3.org/2000/svg"><ns0:g><ns0:g><ns0:path d="M22,10V6c0-1.11-0.9-2-2-2H4C2.9,4,2.01,4.89,2.01,6v4C3.11,10,4,10.9,4,12s-0.89,2-2,2v4c0,1.1,0.9,2,2,2h16 c1.1,0,2-0.9,2-2v-4c-1.1,0-2-0.9-2-2S20.9,10,22,10z M13,17.5h-2v-2h2V17.5z M13,13h-2v-2h2V13z M13,8.5h-2v-2h2V8.5z" /></ns0:g></ns0:g></ns0:g></g></svg>