<svg viewBox="0 0 1024 1024" width="200" height="200" xmlns="http://www.w3.org/2000/svg"><g transform="scale(42.666666666666664)"><ns0:path xmlns:ns0="http://www.w3.org/2000/svg" d="M0 0h24v24H0V0z" fill="none" /><ns0:path xmlns:ns0="http://www.w3.org/2000/svg" d="M5 5h14v2H5z" opacity=".3" /><ns0:path xmlns:ns0="http://www.w3.org/2000/svg" d="M19 3h-1V1h-2v2H8V1H6v2H5c-1.1 0-2 .9-2 2v14c0 1.1.9 2 2 2h14c1.1 0 2-.9 2-2V5c0-1.1-.9-2-2-2zm0 16H5V9h14v10zm0-12H5V5h14v2zM9.29 17.47l2.44-2.44 2.44 2.44 1.06-1.06-2.44-2.44 2.44-2.44-1.06-1.06-2.44 2.44-2.44-2.44-1.06 1.06 2.44 2.44-2.44 2.44z" /></g></svg>