<svg viewBox="0 0 1024 1024" width="200" height="200" xmlns="http://www.w3.org/2000/svg"><g transform="scale(42.666666666666664)"><ns0:g xmlns:ns0="http://www.w3.org/2000/svg"><ns0:rect fill="none" height="24" width="24" /></ns0:g><ns0:g xmlns:ns0="http://www.w3.org/2000/svg"><ns0:path d="M17,11v2h-1.17l4.51,4.51C21.39,15.93,22,14.04,22,12c0-5.52-4.48-10-10-10C9.96,2,8.07,2.61,6.49,3.66L13.83,11H17z M1.39,4.22l2.27,2.27C2.61,8.07,2,9.96,2,12c0,5.52,4.48,10,10,10c2.04,0,3.93-0.61,5.51-1.66l2.27,2.27l1.41-1.41L2.81,2.81 L1.39,4.22z M7,11h1.17l2,2H7V11z" /></ns0:g></g></svg>