<svg viewBox="0 0 1024 1024" width="200" height="200" xmlns="http://www.w3.org/2000/svg"><g transform="scale(42.666666666666664)"><ns0:g xmlns:ns0="http://www.w3.org/2000/svg"><ns0:rect fill="none" height="24" width="24" /></ns0:g><ns0:g xmlns:ns0="http://www.w3.org/2000/svg"><ns0:g><ns0:g><ns0:path d="M12,2C6.48,2,2,6.48,2,12s4.48,10,10,10s10-4.48,10-10S17.52,2,12,2z M12,20c-4.42,0-8-3.58-8-8 c0-1.85,0.63-3.55,1.69-4.9L16.9,18.31C15.55,19.37,13.85,20,12,20z M18.31,16.9L7.1,5.69C8.45,4.63,10.15,4,12,4 c4.42,0,8,3.58,8,8C20,13.85,19.37,15.55,18.31,16.9z" /></ns0:g></ns0:g></ns0:g></g></svg>