<svg viewBox="0 0 1024 1024" width="200" height="200" xmlns="http://www.w3.org/2000/svg"><g transform="scale(51.2)"><ns0:g xmlns:ns0="http://www.w3.org/2000/svg"><ns0:rect fill="none" height="20" width="20" /></ns0:g><ns0:g xmlns:ns0="http://www.w3.org/2000/svg"><ns0:circle cx="5" cy="14" r="1" /><ns0:circle cx="15" cy="14" r="1" /><ns0:circle cx="7.5" cy="17" r="1" /><ns0:circle cx="10" cy="14" r="1" /><ns0:circle cx="12.5" cy="17" r="1" /><ns0:path d="M10 6c-2.21 0-4 1.79-4 4v1h8v-1c0-2.21-1.79-4-4-4z" /><ns0:rect height="3" width="1.5" x="9.25" y="1.5" /><ns0:rect height="3" transform="matrix(-1.836970e-16 1 -1 -1.836970e-16 27 -7)" width="1.5" x="16.25" y="8.5" /><ns0:rect height="3" transform="matrix(0.7071 0.7071 -0.7071 0.7071 7.9497 -9.0919)" width="1.5" x="14.2" y="3.55" /><ns0:rect height="3" transform="matrix(-0.7071 0.7071 -0.7071 -0.7071 12.1924 5.0503)" width="1.5" x="4.3" y="3.55" /><ns0:rect height="1.5" width="3" x="1.5" y="9.25" /></ns0:g></g></svg>