<svg viewBox="0 0 1024 1024" width="200" height="200" xmlns="http://www.w3.org/2000/svg"><g transform="scale(51.2)"><ns0:g xmlns:ns0="http://www.w3.org/2000/svg"><ns0:rect fill="none" height="20" width="20" /></ns0:g><ns0:g xmlns:ns0="http://www.w3.org/2000/svg"><ns0:g><ns0:g><ns0:rect height="1.5" width="5" x="3" y="3" /></ns0:g><ns0:g><ns0:rect height="1.5" width="4" x="1" y="6.5" /></ns0:g><ns0:g><ns0:rect height="1.5" width="4" x="3" y="15.5" /></ns0:g><ns0:g><ns0:circle cx="10.5" cy="11" r="1.5" /></ns0:g><ns0:g><ns0:path d="M8.54,12.54C8.21,12.11,8,11.58,8,11c0-0.82,0.4-1.54,1.01-2H1v3.16l5.53,1.58L8.54,12.54z" /></ns0:g><ns0:g><ns0:path d="M16.2,18.75l2.24-2.24l-2.8-5.03l-2.66-0.66c0.13,1.71-1.31,2.69-2.48,2.69c-0.26,0-0.51-0.05-0.75-0.13v4.05H9.58 C8.71,17.42,8,18.13,8,19h5c0-0.87-0.71-1.58-1.58-1.58h-0.17V13.8L16.2,18.75z" /></ns0:g><ns0:g><ns0:path d="M12.65,9.74l4.27-7.11L14.2,1L10,4.93v3.62c0.16-0.03,0.33-0.05,0.5-0.05C11.42,8.5,12.21,9,12.65,9.74z" /></ns0:g></ns0:g></ns0:g></g></svg>