<svg viewBox="0 0 1024 1024" width="200" height="200" xmlns="http://www.w3.org/2000/svg"><g transform="scale(51.2)"><ns0:g xmlns:ns0="http://www.w3.org/2000/svg"><ns0:rect fill="none" height="20" width="20" /></ns0:g><ns0:g xmlns:ns0="http://www.w3.org/2000/svg"><ns0:g><ns0:rect height="1.5" opacity=".3" width="5.5" x="5.5" y="7.75" /><ns0:rect height="1.75" opacity=".3" width="5.5" x="5.5" y="4.5" /><ns0:rect height="1.5" opacity=".3" width="2" x="12.5" y="7.75" /><ns0:rect height="1.75" opacity=".3" width="2" x="12.5" y="4.5" /><ns0:path d="M16,15.5V3H4v12.5H2V17h16v-1.5H16z M5.5,4.5H11v1.75H5.5V4.5z M5.5,7.75H11v1.5H5.5V7.75z M14.5,15.5h-9v-4.75H11v1.53 c-0.3,0.23-0.5,0.57-0.5,0.97c0,0.69,0.56,1.25,1.25,1.25S13,13.94,13,13.25c0-0.4-0.2-0.75-0.5-0.97v-1.53h2V15.5z M14.5,9.25h-2 v-1.5h2V9.25z M14.5,6.25h-2V4.5h2V6.25z" /></ns0:g></ns0:g></g></svg>