<svg viewBox="0 0 1024 1024" width="200" height="200" xmlns="http://www.w3.org/2000/svg"><g transform="scale(51.2)"><ns0:g xmlns:ns0="http://www.w3.org/2000/svg"><ns0:rect fill="none" height="20" width="20" /></ns0:g><ns0:g xmlns:ns0="http://www.w3.org/2000/svg"><ns0:g><ns0:path d="M14,6.5H6c-1.93,0-3.5,1.57-3.5,3.5s1.57,3.5,3.5,3.5h8c1.93,0,3.5-1.57,3.5-3.5S15.93,6.5,14,6.5z" opacity=".3" /><ns0:path d="M14,5h-1V4c0-0.83-0.67-1.5-1.5-1.5h-3C7.67,2.5,7,3.17,7,4v1H6c-2.76,0-5,2.24-5,5s2.24,5,5,5v2h1.5v-2h5v2H14v-2 c2.76,0,5-2.24,5-5S16.76,5,14,5z M8.5,4h3v1h-3V4z M14,13.5H6c-1.93,0-3.5-1.57-3.5-3.5S4.07,6.5,6,6.5h8 c1.93,0,3.5,1.57,3.5,3.5S15.93,13.5,14,13.5z" /></ns0:g></ns0:g></g></svg>