<svg viewBox="0 0 1024 1024" width="200" height="200" xmlns="http://www.w3.org/2000/svg"><g transform="scale(51.2)"><ns0:g xmlns:ns0="http://www.w3.org/2000/svg"><ns0:rect fill="none" height="20" width="20" /></ns0:g><ns0:g xmlns:ns0="http://www.w3.org/2000/svg"><ns0:path d="M17,3H3v14h14V3z M10.5,6.3c0.66,0.09,1.26,0.34,1.76,0.73L10.5,8.79V6.3z M9.5,6.3v2.49L7.74,7.03 C8.24,6.64,8.84,6.39,9.5,6.3z M7.03,7.74L8.79,9.5H6.3C6.39,8.84,6.64,8.24,7.03,7.74z M6.3,10.5h2.49l-1.76,1.76 C6.64,11.76,6.39,11.16,6.3,10.5z M9.5,13.7c-0.66-0.09-1.26-0.34-1.76-0.73l1.76-1.76V13.7z M9.25,10c0-0.41,0.34-0.75,0.75-0.75 s0.75,0.34,0.75,0.75c0,0.41-0.34,0.75-0.75,0.75S9.25,10.41,9.25,10z M10.5,13.7v-2.49l1.76,1.76 C11.76,13.36,11.16,13.61,10.5,13.7z M12.97,12.26l-1.76-1.76h2.49C13.61,11.16,13.36,11.76,12.97,12.26z M11.21,9.5l1.76-1.76 c0.38,0.5,0.64,1.1,0.73,1.76H11.21z" /></ns0:g></g></svg>