<svg viewBox="0 0 1024 1024" width="200" height="200" xmlns="http://www.w3.org/2000/svg"><g transform="scale(51.2)"><ns0:g xmlns:ns0="http://www.w3.org/2000/svg"><ns0:rect fill="none" height="20" width="20" /></ns0:g><ns0:g xmlns:ns0="http://www.w3.org/2000/svg"><ns0:g><ns0:rect height="1.5" opacity=".3" width="5.5" x="5.5" y="7.75" /><ns0:rect height="1.5" opacity=".3" width="5.5" x="5.5" y="10.75" /><ns0:rect height="1.75" opacity=".3" width="5.5" x="5.5" y="4.5" /><ns0:rect height="1.75" opacity=".3" width="5.5" x="5.5" y="13.75" /><ns0:rect height="1.75" opacity=".3" width="2" x="12.5" y="4.5" /><ns0:rect height="1.75" opacity=".3" width="2" x="12.5" y="13.75" /><ns0:rect height="1.5" opacity=".3" width="2" x="12.5" y="7.75" /><ns0:rect height="1.5" opacity=".3" width="2" x="12.5" y="10.75" /><ns0:path d="M16,15.5V3H4v12.5H2V17h8.5c0,0.69,0.56,1.25,1.25,1.25S13,17.69,13,17h5v-1.5H16z M11,15.5H5.5v-1.75H11V15.5z M11,12.25 H5.5v-1.5H11V12.25z M11,9.25H5.5v-1.5H11V9.25z M11,6.25H5.5V4.5H11V6.25z M14.5,15.5h-2v-1.75h2V15.5z M14.5,12.25h-2v-1.5h2 V12.25z M14.5,9.25h-2v-1.5h2V9.25z M14.5,6.25h-2V4.5h2V6.25z" /></ns0:g></ns0:g></g></svg>