<svg viewBox="0 0 1024 1024" width="200" height="200" xmlns="http://www.w3.org/2000/svg"><g transform="scale(42.666666666666664)"><ns0:g xmlns:ns0="http://www.w3.org/2000/svg"><ns0:rect fill="none" height="24" width="24" /></ns0:g><ns0:g xmlns:ns0="http://www.w3.org/2000/svg"><ns0:g><ns0:path d="M1,11v10h6v-5h2v5h6V11L8,6L1,11z M13,19h-2v-5H5v5H3v-6.97l5-3.57l5,3.57V19z" /><ns0:rect height="2" width="2" x="17" y="7" /><ns0:rect height="2" width="2" x="17" y="11" /><ns0:rect height="2" width="2" x="17" y="15" /><ns0:polygon points="10,3 10,4.97 12,6.4 12,5 21,5 21,19 17,19 17,21 23,21 23,3" /></ns0:g></ns0:g></g></svg>