<svg viewBox="0 0 1024 1024" width="200" height="200" xmlns="http://www.w3.org/2000/svg"><g transform="scale(42.666666666666664)"><ns0:rect xmlns:ns0="http://www.w3.org/2000/svg" fill="none" height="24" width="24" /><ns0:path xmlns:ns0="http://www.w3.org/2000/svg" d="M5.71,9.7L5.71,9.7c0.39,0.39,1.02,0.39,1.41,0L11,5.83V21c0,0.55,0.45,1,1,1h0c0.55,0,1-0.45,1-1V5.83l3.88,3.88 c0.39,0.39,1.02,0.39,1.41,0l0,0c0.39-0.39,0.39-1.02,0-1.41L12.7,2.7c-0.39-0.39-1.02-0.39-1.41,0L5.71,8.29 C5.32,8.68,5.32,9.32,5.71,9.7z" /></g></svg>