<svg viewBox="0 0 1024 1024" width="200" height="200" xmlns="http://www.w3.org/2000/svg"><g transform="scale(42.666666666666664)"><ns0:path xmlns:ns0="http://www.w3.org/2000/svg" d="M24 24H0V0h24v24z" fill="none" opacity=".87" /><ns0:path xmlns:ns0="http://www.w3.org/2000/svg" d="M18.29 15.71l-4.58 4.58c-.39.39-1.03.39-1.42 0-.39-.39-.39-1.03 0-1.42L15.17 16H5c-.55 0-1-.45-1-1V5c0-.55.45-1 1-1s1 .45 1 1v9h9.17l-2.88-2.87c-.39-.39-.39-1.03 0-1.42.39-.39 1.03-.39 1.42 0l4.58 4.58c.39.39.39 1.03 0 1.42z" /></g></svg>