<svg viewBox="0 0 1024 1024" width="200" height="200" xmlns="http://www.w3.org/2000/svg"><g transform="scale(42.666666666666664)"><ns0:rect xmlns:ns0="http://www.w3.org/2000/svg" fill="none" height="24" width="24" /><ns0:path xmlns:ns0="http://www.w3.org/2000/svg" d="M18.3,14.29L18.3,14.29c-0.39-0.39-1.02-0.39-1.41,0L13,18.17V3c0-0.55-0.45-1-1-1h0c-0.55,0-1,0.45-1,1v15.18l-3.88-3.88 c-0.39-0.39-1.02-0.39-1.41,0l0,0c-0.39,0.39-0.39,1.02,0,1.41l5.59,5.59c0.39,0.39,1.02,0.39,1.41,0l5.59-5.59 C18.68,15.32,18.68,14.68,18.3,14.29z" /></g></svg>