<svg viewBox="0 0 1024 1024" width="200" height="200" xmlns="http://www.w3.org/2000/svg"><g transform="scale(42.666666666666664)"><ns0:g xmlns:ns0="http://www.w3.org/2000/svg"><ns0:path d="M0 0v24h24V0H0zm1 13V7c0-1.66 1.34-3 3-3h12c1.66 0 3 1.34 3 3v7c0 1.1-.9 2-2 2H4c-1.66 0-3-1.34-3-3zm22 5c0 1.1-.9 2-2 2H5c-.55 0-1-.45-1-1s.45-1 1-1h16V8c0-.55.45-1 1-1s1 .45 1 1v10z" fill="none" /><ns0:path d="M23 8v10c0 1.1-.9 2-2 2H5c-.55 0-1-.45-1-1s.45-1 1-1h16V8c0-.55.45-1 1-1s1 .45 1 1zM4 16c-1.66 0-3-1.34-3-3V7c0-1.66 1.34-3 3-3h12c1.66 0 3 1.34 3 3v7c0 1.1-.9 2-2 2H4zm3-6c0 1.66 1.34 3 3 3s3-1.34 3-3-1.34-3-3-3-3 1.34-3 3z" /></ns0:g></g></svg>