<svg viewBox="0 0 1024 1024" width="200" height="200" xmlns="http://www.w3.org/2000/svg"><g transform="scale(42.666666666666664)"><ns0:path xmlns:ns0="http://www.w3.org/2000/svg" d="M0 0h24v24H0V0z" fill="none" /><ns0:path xmlns:ns0="http://www.w3.org/2000/svg" d="M12 5.83l2.46 2.46c.39.39 1.02.39 1.41 0 .39-.39.39-1.02 0-1.41L12.7 3.7c-.39-.39-1.02-.39-1.41 0L8.12 6.88c-.39.39-.39 1.02 0 1.41.39.39 1.02.39 1.41 0L12 5.83zm0 12.34l-2.46-2.46c-.39-.39-1.02-.39-1.41 0-.39.39-.39 1.02 0 1.41l3.17 3.18c.39.39 1.02.39 1.41 0l3.17-3.17c.39-.39.39-1.02 0-1.41-.39-.39-1.02-.39-1.41 0L12 18.17z" /></g></svg>