<svg viewBox="0 0 1024 1024" width="200" height="200" xmlns="http://www.w3.org/2000/svg"><g transform="scale(51.2)"><ns0:g xmlns:ns0="http://www.w3.org/2000/svg"><ns0:rect fill="none" height="20" width="20" /><ns0:path d="M15.5,15h-11C4.22,15,4,14.78,4,14.5v0C4,14.22,4.22,14,4.5,14h11c0.28,0,0.5,0.22,0.5,0.5v0C16,14.78,15.78,15,15.5,15z M15.5,11h-11C4.22,11,4,11.22,4,11.5v0C4,11.78,4.22,12,4.5,12h11c0.28,0,0.5-0.22,0.5-0.5v0C16,11.22,15.78,11,15.5,11z M4.79,8.45L8,6.22L12,9l3.79-2.63C15.92,6.27,16,6.12,16,5.96v0c0-0.4-0.45-0.64-0.79-0.41L12,7.78L8,5L4.21,7.63 C4.08,7.73,4,7.88,4,8.04v0C4,8.45,4.45,8.68,4.79,8.45z" /></ns0:g></g></svg>