<svg viewBox="0 0 1024 1024" width="200" height="200" xmlns="http://www.w3.org/2000/svg"><g transform="scale(42.666666666666664)"><ns0:g xmlns:ns0="http://www.w3.org/2000/svg"><ns0:path d="M0,0h24v24H0V0z" fill="none" /></ns0:g><ns0:g xmlns:ns0="http://www.w3.org/2000/svg"><ns0:g><ns0:path d="M21,5c0-1.1-0.9-2-2-2h-9v5h11V5z" /><ns0:path d="M3,19c0,1.1,0.9,2,2,2h3V10H3V19z" /><ns0:path d="M3,5v3h5V3H5C3.9,3,3,3.9,3,5z" /><ns0:path d="M18,9l-4,4h3v2c0,1.1-0.9,2-2,2h-2v-3l-4,4l4,4v-3h2c2.21,0,4-1.79,4-4v-2h3L18,9z" /></ns0:g></ns0:g></g></svg>