<svg viewBox="0 0 1024 1024" width="200" height="200" xmlns="http://www.w3.org/2000/svg"><g transform="scale(51.2)"><ns0:g xmlns:ns0="http://www.w3.org/2000/svg"><ns0:rect fill="none" height="20" width="20" /></ns0:g><ns0:g xmlns:ns0="http://www.w3.org/2000/svg"><ns0:g /><ns0:g><ns0:path d="M13,4H7C6.45,4,6,4.45,6,5v9c0,0.55,0.45,1,1,1h6c0.55,0,1-0.45,1-1V5C14,4.45,13.55,4,13,4z" /><ns0:path d="M3.5,5C3.22,5,3,5.22,3,5.5v8C3,13.78,3.22,14,3.5,14S4,13.78,4,13.5v-8C4,5.22,3.78,5,3.5,5z" /><ns0:path d="M16.5,5C16.22,5,16,5.22,16,5.5v8c0,0.28,0.22,0.5,0.5,0.5s0.5-0.22,0.5-0.5v-8C17,5.22,16.78,5,16.5,5z" /></ns0:g></ns0:g></g></svg>