<svg viewBox="0 0 1024 1024" width="200" height="200" xmlns="http://www.w3.org/2000/svg"><g transform="scale(42.666666666666664)"><ns0:g xmlns:ns0="http://www.w3.org/2000/svg"><ns0:rect fill="none" height="24" width="24" /><ns0:rect fill="none" height="24" width="24" /></ns0:g><ns0:g xmlns:ns0="http://www.w3.org/2000/svg"><ns0:g /><ns0:g><ns0:path d="M16,4H8C7.45,4,7,4.45,7,5v13c0,0.55,0.45,1,1,1h8c0.55,0,1-0.45,1-1V5C17,4.45,16.55,4,16,4z" /><ns0:path d="M4,6C3.45,6,3,6.45,3,7v9c0,0.55,0.45,1,1,1s1-0.45,1-1V7C5,6.45,4.55,6,4,6z" /><ns0:path d="M20,6c-0.55,0-1,0.45-1,1v9c0,0.55,0.45,1,1,1s1-0.45,1-1V7C21,6.45,20.55,6,20,6z" /></ns0:g></ns0:g></g></svg>