<svg viewBox="0 0 1024 1024" width="200" height="200" xmlns="http://www.w3.org/2000/svg"><g transform="scale(51.2)"><ns0:g xmlns:ns0="http://www.w3.org/2000/svg"><ns0:rect fill="none" height="20" width="20" /></ns0:g><ns0:g xmlns:ns0="http://www.w3.org/2000/svg"><ns0:g><ns0:path d="M11,2H3.5C2.67,2,2,2.67,2,3.5v13C2,17.33,2.67,18,3.5,18H11c0.83,0,1.5-0.67,1.5-1.5v-13C12.5,2.67,11.83,2,11,2z" /><ns0:path d="M14,4v12c0.83,0,1.5-0.67,1.5-1.5v-9C15.5,4.67,14.83,4,14,4z" /><ns0:path d="M17,5v10c0.58-0.21,1-0.76,1-1.41V6.41C18,5.76,17.58,5.21,17,5z" /></ns0:g></ns0:g></g></svg>