<svg viewBox="0 0 1024 1024" width="200" height="200" xmlns="http://www.w3.org/2000/svg"><g transform="scale(42.666666666666664)"><ns0:g xmlns:ns0="http://www.w3.org/2000/svg"><ns0:rect fill="none" height="24" width="24" /></ns0:g><ns0:g xmlns:ns0="http://www.w3.org/2000/svg"><ns0:path d="M16,9V4l1,0c0.55,0,1-0.45,1-1v0c0-0.55-0.45-1-1-1H7C6.45,2,6,2.45,6,3v0 c0,0.55,0.45,1,1,1l1,0v5c0,1.66-1.34,3-3,3h0v2h5.97v7l1,1l1-1v-7H19v-2h0C17.34,12,16,10.66,16,9z" fill-rule="evenodd" /></ns0:g></g></svg>