<svg viewBox="0 0 1024 1024" width="200" height="200" xmlns="http://www.w3.org/2000/svg"><g transform="scale(42.666666666666664)"><ns0:path xmlns:ns0="http://www.w3.org/2000/svg" d="M0 0h24v24H0z" fill="none" /><ns0:circle xmlns:ns0="http://www.w3.org/2000/svg" cx="20" cy="12" r="2" /><ns0:circle xmlns:ns0="http://www.w3.org/2000/svg" cx="4" cy="12" r="2" /><ns0:circle xmlns:ns0="http://www.w3.org/2000/svg" cx="12" cy="20" r="2" /><ns0:path xmlns:ns0="http://www.w3.org/2000/svg" d="M10.05 8.59L6.03 4.55h-.01l-.31-.32-1.42 1.41 4.02 4.05.01-.01.31.32zm3.893.027l4.405-4.392L19.76 5.64l-4.405 4.393zM10.01 15.36l-1.42-1.41-4.03 4.01-.32.33 1.41 1.41 4.03-4.02zm9.75 2.94l-3.99-4.01-.36-.35L14 15.35l3.99 4.01.35.35z" /><ns0:circle xmlns:ns0="http://www.w3.org/2000/svg" cx="12" cy="4" r="2" /></g></svg>