<svg viewBox="0 0 1024 1024" width="200" height="200" xmlns="http://www.w3.org/2000/svg"><g transform="scale(51.2)"><ns0:g xmlns:ns0="http://www.w3.org/2000/svg"><ns0:rect fill="none" height="20" width="20" /></ns0:g><ns0:g xmlns:ns0="http://www.w3.org/2000/svg"><ns0:g /><ns0:g><ns0:path d="M10,13c-1.66,0-3-1.34-3-3s1.34-3,3-3s3,1.34,3,3c0,0.65-0.21,1.24-0.56,1.73l2.1,2.1C15.46,12.52,16,10.94,16,9.31V5 l-6-2L4,5v4.31c0,3.55,2.56,6.88,6,7.69c1.53-0.36,2.89-1.22,3.92-2.37l-2.19-2.19C11.24,12.79,10.65,13,10,13z" /><ns0:circle cx="10" cy="10" r="2" /></ns0:g></ns0:g></g></svg>