<svg viewBox="0 0 1024 1024" width="200" height="200" xmlns="http://www.w3.org/2000/svg"><g transform="scale(42.666666666666664)"><ns0:g xmlns:ns0="http://www.w3.org/2000/svg"><ns0:rect fill="none" height="24" width="24" /></ns0:g><ns0:g xmlns:ns0="http://www.w3.org/2000/svg"><ns0:g><ns0:g><ns0:path d="M7,8L7,8C6.45,8,6,8.45,6,9v6c0,1.1,0.9,2,2,2h8c0.55,0,1-0.45,1-1l0,0c0-0.55-0.45-1-1-1H8V9C8,8.45,7.55,8,7,8z" /><ns0:path d="M20,3h-8c-1.1,0-2,0.9-2,2v6c0,1.1,0.9,2,2,2h8c1.1,0,2-0.9,2-2V5C22,3.9,21.1,3,20,3z M20,11h-8V7h8V11z" /><ns0:path d="M3,12L3,12c-0.55,0-1,0.45-1,1v6c0,1.1,0.9,2,2,2h8c0.55,0,1-0.45,1-1l0,0c0-0.55-0.45-1-1-1H4v-6C4,12.45,3.55,12,3,12z" /></ns0:g></ns0:g></ns0:g></g></svg>