<svg viewBox="0 0 1024 1024" width="200" height="200" xmlns="http://www.w3.org/2000/svg"><g transform="scale(42.666666666666664)"><ns0:g xmlns:ns0="http://www.w3.org/2000/svg"><ns0:rect fill="none" height="24" width="24" /></ns0:g><ns0:g xmlns:ns0="http://www.w3.org/2000/svg"><ns0:g /><ns0:g><ns0:path d="M8,8H6v7c0,1.1,0.9,2,2,2h9v-2H8V8z" /><ns0:path d="M20,3h-8c-1.1,0-2,0.9-2,2v6c0,1.1,0.9,2,2,2h8c1.1,0,2-0.9,2-2V5C22,3.9,21.1,3,20,3z M20,11h-8V7h8V11z" /><ns0:path d="M4,12H2v7c0,1.1,0.9,2,2,2h9v-2H4V12z" /></ns0:g></ns0:g><ns0:g xmlns:ns0="http://www.w3.org/2000/svg" display="none"><ns0:g display="inline" /><ns0:g display="inline"><ns0:path d="M8,8H6v7c0,1.1,0.9,2,2,2h9v-2H8V8z" /><ns0:path d="M20,3h-8c-1.1,0-2,0.9-2,2v6c0,1.1,0.9,2,2,2h8c1.1,0,2-0.9,2-2V5C22,3.9,21.1,3,20,3z M20,11h-8V7h8V11z" /><ns0:path d="M4,12H2v7c0,1.1,0.9,2,2,2h9v-2H4V12z" /></ns0:g></ns0:g></g></svg>