<svg viewBox="0 0 1024 1024" width="200" height="200" xmlns="http://www.w3.org/2000/svg"><g transform="scale(42.666666666666664)"><ns0:g xmlns:ns0="http://www.w3.org/2000/svg"><ns0:rect fill="none" height="24" width="24" /></ns0:g><ns0:g xmlns:ns0="http://www.w3.org/2000/svg"><ns0:path d="M22,12c0-5.5-4.5-10-10-10S2,6.5,2,12s4.5,10,10,10S22,17.5,22,12z M5.7,7.1l11.2,11.2c-1.3,1.1-3,1.7-4.9,1.7 c-4.4,0-8-3.6-8-8C4,10.1,4.6,8.4,5.7,7.1z M20,12c0,1.9-0.6,3.6-1.7,4.9L7.1,5.7C8.4,4.6,10.1,4,12,4C16.4,4,20,7.6,20,12z" /></ns0:g></g></svg>