<svg viewBox="0 0 1024 1024" width="200" height="200" xmlns="http://www.w3.org/2000/svg"><g transform="scale(42.666666666666664)"><ns0:path xmlns:ns0="http://www.w3.org/2000/svg" d="M0 0h24v24H0V0z" fill="none" /><ns0:path xmlns:ns0="http://www.w3.org/2000/svg" d="M21 6H3c-1.1 0-2 .9-2 2v8c0 1.1.9 2 2 2h18c1.1 0 2-.9 2-2V8c0-1.1-.9-2-2-2zm-1 10H4c-.55 0-1-.45-1-1V9c0-.55.45-1 1-1h1v3c0 .55.45 1 1 1s1-.45 1-1V8h2v3c0 .55.45 1 1 1s1-.45 1-1V8h2v3c0 .55.45 1 1 1s1-.45 1-1V8h2v3c0 .55.45 1 1 1s1-.45 1-1V8h1c.55 0 1 .45 1 1v6c0 .55-.45 1-1 1z" /></g></svg>