<svg viewBox="0 0 1024 1024" width="200" height="200" xmlns="http://www.w3.org/2000/svg"><g transform="scale(42.666666666666664)"><ns0:g xmlns:ns0="http://www.w3.org/2000/svg"><ns0:rect fill="none" height="24" width="24" /></ns0:g><ns0:g xmlns:ns0="http://www.w3.org/2000/svg"><ns0:g><ns0:path d="M10,5c0-1.66-1.34-3-3-3C6.38,2,5.81,2.19,5.33,2.5l4.15,4.15C9.8,6.18,10,5.61,10,5z" /><ns0:polygon points="14,4 18,4 18,15.17 20,17.17 20,2 12,2 12,9.17 14,11.17" /><ns0:path d="M2.1,2.1L0.69,3.51L5.17,8H4l1,10h1c0,2.21,0,4,0,4h8v-5.17l6.49,6.49l1.41-1.41L2.1,2.1z M12,20H8v-2h1l0.56-5.61 L12,14.83V20z" /></ns0:g></ns0:g></g></svg>