<svg viewBox="0 0 1024 1024" width="200" height="200" xmlns="http://www.w3.org/2000/svg"><g transform="scale(51.2)"><ns0:g xmlns:ns0="http://www.w3.org/2000/svg"><ns0:rect fill="none" height="20" width="20" y="0" /><ns0:g><ns0:path d="M16.72,16.72L3.28,3.28c-0.2-0.2-0.51-0.2-0.71,0s-0.2,0.51,0,0.71L4,5.41V15c0,0.55,0.45,1,1,1h9.59l1.42,1.42 c0.2,0.2,0.51,0.2,0.71,0S16.91,16.91,16.72,16.72z M6,14l2-2.67l1.35,1.81l1.05-1.32L12.59,14H6z M16,14.59L5.41,4H15 c0.55,0,1,0.45,1,1V14.59z" /></ns0:g></ns0:g></g></svg>