<svg viewBox="0 0 1024 1024" width="200" height="200" xmlns="http://www.w3.org/2000/svg"><g transform="scale(51.2)"><ns0:g xmlns:ns0="http://www.w3.org/2000/svg"><ns0:rect fill="none" height="20" width="20" x="0" /></ns0:g><ns0:g xmlns:ns0="http://www.w3.org/2000/svg"><ns0:g><ns0:circle cx="5.5" cy="11.5" r=".75" /><ns0:circle cx="5.5" cy="14.5" r=".75" /><ns0:circle cx="5.5" cy="8.5" r=".75" /><ns0:circle cx="3" cy="8.5" r=".5" /><ns0:circle cx="5.5" cy="5.5" r=".75" /><ns0:circle cx="3" cy="11.5" r=".5" /><ns0:circle cx="8.5" cy="17" r=".5" /><ns0:circle cx="8.5" cy="3" r=".5" /><ns0:circle cx="8.5" cy="5.5" r=".75" /><ns0:circle cx="8.5" cy="11.5" r="1" /><ns0:circle cx="8.5" cy="8.5" r="1" /><ns0:circle cx="8.5" cy="14.5" r=".75" /><ns0:path d="M10,3v1.5c3.03,0,5.5,2.47,5.5,5.5s-2.47,5.5-5.5,5.5V17c3.87,0,7-3.13,7-7C17,6.13,13.87,3,10,3z" /></ns0:g></ns0:g></g></svg>