<svg viewBox="0 0 1024 1024" width="200" height="200" xmlns="http://www.w3.org/2000/svg"><g transform="scale(42.666666666666664)"><ns0:path xmlns:ns0="http://www.w3.org/2000/svg" d="M0 0h24v24H0z" fill="none" /><ns0:path xmlns:ns0="http://www.w3.org/2000/svg" d="M7 17h14V3H7v14zm4-4h4v-2h-4V5h6v2h-4v2h2c1.1 0 2 .89 2 2v2c0 1.11-.9 2-2 2h-4v-2z" opacity=".3" /><ns0:path xmlns:ns0="http://www.w3.org/2000/svg" d="M19 23v-2H3V5H1v16c0 1.1.9 2 2 2h16zm-2-10v-2c0-1.11-.9-2-2-2h-2V7h4V5h-6v6h4v2h-4v2h4c1.1 0 2-.89 2-2zm4-12H7c-1.1 0-2 .9-2 2v14c0 1.1.9 2 2 2h14c1.1 0 2-.9 2-2V3c0-1.1-.9-2-2-2zm0 16H7V3h14v14z" /></g></svg>