<svg viewBox="0 0 1024 1024" width="200" height="200" xmlns="http://www.w3.org/2000/svg"><g transform="scale(42.666666666666664)"><ns0:path xmlns:ns0="http://www.w3.org/2000/svg" d="M0 0h24v24H0V0z" fill="none" /><ns0:path xmlns:ns0="http://www.w3.org/2000/svg" d="M17 16.5c.28 0 .5-.22.5-.5s-.22-.5-.5-.5-.5.22-.5.5.22.5.5.5z" /><ns0:circle xmlns:ns0="http://www.w3.org/2000/svg" cx="9" cy="12" r="1" /><ns0:circle xmlns:ns0="http://www.w3.org/2000/svg" cx="13" cy="8" r="1" /><ns0:circle xmlns:ns0="http://www.w3.org/2000/svg" cx="13" cy="16" r="1" /><ns0:path xmlns:ns0="http://www.w3.org/2000/svg" d="M17 12.5c.28 0 .5-.22.5-.5s-.22-.5-.5-.5-.5.22-.5.5.22.5.5.5z" /><ns0:circle xmlns:ns0="http://www.w3.org/2000/svg" cx="13" cy="12" r="1" /><ns0:path xmlns:ns0="http://www.w3.org/2000/svg" d="M3 3h18v2H3z" /><ns0:circle xmlns:ns0="http://www.w3.org/2000/svg" cx="5" cy="8" r="1.5" /><ns0:circle xmlns:ns0="http://www.w3.org/2000/svg" cx="5" cy="12" r="1.5" /><ns0:circle xmlns:ns0="http://www.w3.org/2000/svg" cx="5" cy="16" r="1.5" /><ns0:path xmlns:ns0="http://www.w3.org/2000/svg" d="M17 8.5c.28 0 .5-.22.5-.5s-.22-.5-.5-.5-.5.22-.5.5.22.5.5.5z" /><ns0:circle xmlns:ns0="http://www.w3.org/2000/svg" cx="9" cy="16" r="1" /><ns0:circle xmlns:ns0="http://www.w3.org/2000/svg" cx="9" cy="8" r="1" /><ns0:path xmlns:ns0="http://www.w3.org/2000/svg" d="M3 19h18v2H3z" /></g></svg>