<svg viewBox="0 0 1024 1024" width="200" height="200" xmlns="http://www.w3.org/2000/svg"><g transform="scale(42.666666666666664)"><ns0:path xmlns:ns0="http://www.w3.org/2000/svg" d="M0 0h24v24H0z" fill="none" /><ns0:circle xmlns:ns0="http://www.w3.org/2000/svg" cx="14" cy="10" r="1.5" /><ns0:circle xmlns:ns0="http://www.w3.org/2000/svg" cx="14" cy="18" r="1" /><ns0:circle xmlns:ns0="http://www.w3.org/2000/svg" cx="14" cy="14" r="1.5" /><ns0:circle xmlns:ns0="http://www.w3.org/2000/svg" cx="14" cy="6" r="1" /><ns0:path xmlns:ns0="http://www.w3.org/2000/svg" d="M3 9.5c-.28 0-.5.22-.5.5s.22.5.5.5.5-.22.5-.5-.22-.5-.5-.5zM14.5 3c0-.28-.22-.5-.5-.5s-.5.22-.5.5.22.5.5.5.5-.22.5-.5zM21 14.5c.28 0 .5-.22.5-.5s-.22-.5-.5-.5-.5.22-.5.5.22.5.5.5z" /><ns0:circle xmlns:ns0="http://www.w3.org/2000/svg" cx="18" cy="18" r="1" /><ns0:path xmlns:ns0="http://www.w3.org/2000/svg" d="M13.5 21c0 .28.22.5.5.5s.5-.22.5-.5-.22-.5-.5-.5-.5.22-.5.5zM21 10.5c.28 0 .5-.22.5-.5s-.22-.5-.5-.5-.5.22-.5.5.22.5.5.5z" /><ns0:circle xmlns:ns0="http://www.w3.org/2000/svg" cx="18" cy="14" r="1" /><ns0:circle xmlns:ns0="http://www.w3.org/2000/svg" cx="18" cy="6" r="1" /><ns0:circle xmlns:ns0="http://www.w3.org/2000/svg" cx="6" cy="18" r="1" /><ns0:circle xmlns:ns0="http://www.w3.org/2000/svg" cx="6" cy="14" r="1" /><ns0:path xmlns:ns0="http://www.w3.org/2000/svg" d="M3.5 14c0-.28-.22-.5-.5-.5s-.5.22-.5.5.22.5.5.5.5-.22.5-.5z" /><ns0:circle xmlns:ns0="http://www.w3.org/2000/svg" cx="10" cy="6" r="1" /><ns0:circle xmlns:ns0="http://www.w3.org/2000/svg" cx="6" cy="10" r="1" /><ns0:circle xmlns:ns0="http://www.w3.org/2000/svg" cx="6" cy="6" r="1" /><ns0:path xmlns:ns0="http://www.w3.org/2000/svg" d="M9.5 21c0 .28.22.5.5.5s.5-.22.5-.5-.22-.5-.5-.5-.5.22-.5.5z" /><ns0:circle xmlns:ns0="http://www.w3.org/2000/svg" cx="10" cy="18" r="1" /><ns0:path xmlns:ns0="http://www.w3.org/2000/svg" d="M10.5 3c0-.28-.22-.5-.5-.5s-.5.22-.5.5.22.5.5.5.5-.22.5-.5z" /><ns0:circle xmlns:ns0="http://www.w3.org/2000/svg" cx="10" cy="14" r="1.5" /><ns0:circle xmlns:ns0="http://www.w3.org/2000/svg" cx="10" cy="10" r="1.5" /><ns0:circle xmlns:ns0="http://www.w3.org/2000/svg" cx="18" cy="10" r="1" /></g></svg>