<svg viewBox="0 0 1024 1024" width="200" height="200" xmlns="http://www.w3.org/2000/svg"><g transform="scale(51.2)"><ns0:g xmlns:ns0="http://www.w3.org/2000/svg"><ns0:rect fill="none" height="20" width="20" x="0" /></ns0:g><ns0:g xmlns:ns0="http://www.w3.org/2000/svg"><ns0:g><ns0:g><ns0:path d="M9,11l5,5l5-5l-5-5L9,11z M14,13.88L11.12,11L14,8.12L16.88,11L14,13.88z" /><ns0:path d="M2,11c0,3.87,3.13,7,7,7c1.43,0,2.76-0.43,3.86-1.17l-1.09-1.09C10.96,16.22,10.01,16.5,9,16.5c-3.03,0-5.5-2.47-5.5-5.5 c0-3.02,2.46-5.56,5.62-5.49l0,0L7.94,6.69L9,7.75l3-3l-3.01-3L7.93,2.81l1.2,1.2C5.16,3.93,2,7.12,2,11z" /></ns0:g></ns0:g></ns0:g></g></svg>