<svg viewBox="0 0 1024 1024" width="200" height="200" xmlns="http://www.w3.org/2000/svg"><g transform="scale(51.2)"><ns0:g xmlns:ns0="http://www.w3.org/2000/svg"><ns0:rect fill="none" height="20" width="20" /></ns0:g><ns0:g xmlns:ns0="http://www.w3.org/2000/svg"><ns0:g><ns0:path d="M18,8.25V5c0-0.55-0.45-1-1-1H3C2.45,4,2,4.45,2,5v3.25c0,0.55,0.45,1,1,1h14C17.55,9.25,18,8.8,18,8.25z" /><ns0:path d="M8.5,11.75V15c0,0.55,0.45,1,1,1H17c0.55,0,1-0.45,1-1v-3.25c0-0.55-0.45-1-1-1H9.5C8.95,10.75,8.5,11.2,8.5,11.75z" /><ns0:path d="M6,10.75H3c-0.55,0-1,0.45-1,1V15c0,0.55,0.45,1,1,1h3c0.55,0,1-0.45,1-1v-3.25C7,11.2,6.55,10.75,6,10.75z" /></ns0:g></ns0:g></g></svg>