<svg viewBox="0 0 1024 1024" width="200" height="200" xmlns="http://www.w3.org/2000/svg"><g transform="scale(42.666666666666664)"><ns0:g xmlns:ns0="http://www.w3.org/2000/svg"><ns0:rect fill="none" height="24" width="24" /></ns0:g><ns0:g xmlns:ns0="http://www.w3.org/2000/svg"><ns0:path d="M4,18h2.5v-2.5H4V18z M4,13.25h2.5v-2.5H4V13.25z M4,8.5h2.5V6H4V8.5z M17.5,6v2.5H20V6H17.5z M13,8.5h2.5V6H13V8.5z M17.5,18H20v-2.5h-2.5V18z M17.5,13.25H20v-2.5h-2.5V13.25z M8.5,18H11v-2.5H8.5V18z M13,18h2.5v-2.5H13V18z M8.5,8.5H11V6H8.5 V8.5z M13,13.25h2.5v-2.5H13V13.25z M8.5,13.25H11v-2.5H8.5V13.25z" /></ns0:g></g></svg>