<svg viewBox="0 0 1024 1024" width="200" height="200" xmlns="http://www.w3.org/2000/svg"><g transform="scale(51.2)"><ns0:g xmlns:ns0="http://www.w3.org/2000/svg"><ns0:rect fill="none" height="20" width="20" /></ns0:g><ns0:g xmlns:ns0="http://www.w3.org/2000/svg"><ns0:path d="M2,4v12h15.5V4H2z M16,7.5h-2v-2h2V7.5z M7,9h2v2H7V9z M5.5,11h-2V9h2V11z M9,7.5H7v-2h2V7.5z M10.5,5.5h2v2h-2V5.5z M9,12.5v2H7v-2H9z M10.5,12.5h2v2h-2V12.5z M10.5,11V9h2v2H10.5z M14,9h2v2h-2V9z M5.5,5.5v2h-2v-2H5.5z M3.5,12.5h2v2h-2V12.5z M14,14.5v-2h2v2H14z" /></ns0:g></g></svg>