<svg viewBox="0 0 1024 1024" width="200" height="200" xmlns="http://www.w3.org/2000/svg"><g transform="scale(51.2)"><ns0:g xmlns:ns0="http://www.w3.org/2000/svg"><ns0:rect fill="none" height="20" width="20" /></ns0:g><ns0:g xmlns:ns0="http://www.w3.org/2000/svg"><ns0:g><ns0:rect height="2" opacity=".3" width="2" x="3.5" y="5.5" /><ns0:rect height="2" opacity=".3" width="2" x="7" y="12.5" /><ns0:rect height="2" opacity=".3" width="2" x="7" y="9" /><ns0:rect height="2" opacity=".3" width="2" x="3.5" y="12.5" /><ns0:rect height="2" opacity=".3" width="2" x="7" y="5.5" /><ns0:rect height="2" opacity=".3" width="2" x="3.5" y="9" /><ns0:rect height="2" opacity=".3" width="2" x="10.5" y="12.5" /><ns0:rect height="2" opacity=".3" width="2" x="14" y="9" /><ns0:rect height="2" opacity=".3" width="2" x="14" y="5.5" /><ns0:rect height="2" opacity=".3" width="2" x="14" y="12.5" /><ns0:rect height="2" opacity=".3" width="2" x="10.5" y="5.5" /><ns0:rect height="2" opacity=".3" width="2" x="10.5" y="9" /><ns0:path d="M2,4v12h15.5V4H2z M5.5,14.5h-2v-2h2V14.5z M5.5,11h-2V9h2V11z M5.5,7.5h-2v-2h2V7.5z M9,14.5H7v-2h2V14.5z M9,11H7V9h2 V11z M9,7.5H7v-2h2V7.5z M12.5,14.5h-2v-2h2V14.5z M12.5,11h-2V9h2V11z M12.5,7.5h-2v-2h2V7.5z M16,14.5h-2v-2h2V14.5z M16,11h-2 V9h2V11z M16,7.5h-2v-2h2V7.5z" /></ns0:g></ns0:g></g></svg>