<svg viewBox="0 0 1024 1024" width="200" height="200" xmlns="http://www.w3.org/2000/svg"><g transform="scale(42.666666666666664)"><ns0:path xmlns:ns0="http://www.w3.org/2000/svg" d="M0 0h24v24H0V0z" fill="none" /><ns0:circle xmlns:ns0="http://www.w3.org/2000/svg" cx="12" cy="12" opacity=".3" r="3" /><ns0:path xmlns:ns0="http://www.w3.org/2000/svg" d="M7 12c0 2.76 2.24 5 5 5s5-2.24 5-5-2.24-5-5-5-5 2.24-5 5zm8 0c0 1.65-1.35 3-3 3s-3-1.35-3-3 1.35-3 3-3 3 1.35 3 3zM3 19c0 1.1.9 2 2 2h4v-2H5v-4H3v4zM3 5v4h2V5h4V3H5c-1.1 0-2 .9-2 2zm18 0c0-1.1-.9-2-2-2h-4v2h4v4h2V5zm-2 14h-4v2h4c1.1 0 2-.9 2-2v-4h-2v4z" /></g></svg>