<svg viewBox="0 0 1024 1024" width="200" height="200" xmlns="http://www.w3.org/2000/svg"><g transform="scale(42.666666666666664)"><ns0:g xmlns:ns0="http://www.w3.org/2000/svg"><ns0:rect fill="none" height="24" width="24" /></ns0:g><ns0:g xmlns:ns0="http://www.w3.org/2000/svg"><ns0:g><ns0:path d="M16.83,5L15,3H9L7.17,5H2v16h20V5H16.83z M12,18c-2.76,0-5-2.24-5-5H5l2.5-2.5L10,13H8c0,2.21,1.79,4,4,4 c0.58,0,1.13-0.13,1.62-0.35l0.74,0.74C13.65,17.76,12.86,18,12,18z M16.5,15.5L14,13h2c0-2.21-1.79-4-4-4 c-0.58,0-1.13,0.13-1.62,0.35L9.64,8.62C10.35,8.24,11.14,8,12,8c2.76,0,5,2.24,5,5h2L16.5,15.5z" /></ns0:g></ns0:g></g></svg>