<svg viewBox="0 0 1024 1024" width="200" height="200" xmlns="http://www.w3.org/2000/svg"><g transform="scale(42.666666666666664)"><ns0:path xmlns:ns0="http://www.w3.org/2000/svg" d="M0 0h24v24H0V0z" fill="none" /><ns0:path xmlns:ns0="http://www.w3.org/2000/svg" d="M5 15h14V9.05H5V15zm6-14v3h2V1h-2zm8.04 2.6l-1.79 1.79 1.41 1.41 1.8-1.79-1.42-1.41zM13 23v-2.95h-2V23h2zm7.45-3.91l-1.8-1.79-1.41 1.41 1.79 1.8 1.42-1.42zM3.55 5.01L5.34 6.8l1.41-1.41L4.96 3.6 3.55 5.01zM4.96 20.5l1.79-1.8-1.41-1.41-1.79 1.79 1.41 1.42z" /></g></svg>