<svg viewBox="0 0 1024 1024" width="200" height="200" xmlns="http://www.w3.org/2000/svg"><g transform="scale(42.666666666666664)"><ns0:path xmlns:ns0="http://www.w3.org/2000/svg" d="M0 0h24v24H0V0z" fill="none" /><ns0:path xmlns:ns0="http://www.w3.org/2000/svg" d="M5 14.5h14v-6H5v6zM11 .55V3.5h2V.55h-2zm8.04 2.5l-1.79 1.79 1.41 1.41 1.8-1.79-1.42-1.41zM13 22.45V19.5h-2v2.95h2zm7.45-3.91l-1.8-1.79-1.41 1.41 1.79 1.8 1.42-1.42zM3.55 4.46l1.79 1.79 1.41-1.41-1.79-1.79-1.41 1.41zm1.41 15.49l1.79-1.8-1.41-1.41-1.79 1.79 1.41 1.42z" /></g></svg>