<svg viewBox="0 0 1024 1024" width="200" height="200" xmlns="http://www.w3.org/2000/svg"><g transform="scale(42.666666666666664)"><ns0:path xmlns:ns0="http://www.w3.org/2000/svg" d="M0 0h24v24H0V0z" fill="none" /><ns0:path xmlns:ns0="http://www.w3.org/2000/svg" d="M12 1L3 5v6c0 5.55 3.84 10.74 9 12 5.16-1.26 9-6.45 9-12V5l-9-4zm7 10c0 4.52-2.98 8.69-7 9.93-4.02-1.24-7-5.41-7-9.93V6.3l7-3.11 7 3.11V11zm-11.59.59L6 13l4 4 8-8-1.41-1.42L10 14.17z" /><ns0:path xmlns:ns0="http://www.w3.org/2000/svg" d="M5 6.3V11c0 4.52 2.98 8.69 7 9.93 4.02-1.23 7-5.41 7-9.93V6.3l-7-3.11L5 6.3zM18 9l-8 8-4-4 1.41-1.41L10 14.17l6.59-6.59L18 9z" opacity=".3" /></g></svg>