<svg viewBox="0 0 1024 1024" width="200" height="200" xmlns="http://www.w3.org/2000/svg"><g transform="scale(42.666666666666664)"><ns0:g xmlns:ns0="http://www.w3.org/2000/svg"><ns0:rect fill="none" height="24" width="24" /></ns0:g><ns0:g xmlns:ns0="http://www.w3.org/2000/svg"><ns0:path d="M20.18,15.4L19.1,23h-9L5,17.62l1.22-1.23L10,17.24V6.5C10,5.67,10.67,5,11.5,5S13,5.67,13,6.5v6h1.38L20.18,15.4z M12,2.5 c4.74,0,7.67,2.52,8.43,4.5H22c-0.73-2.88-4.51-6-10-6C8.78,1,5.82,2.13,3.5,4.02V2H2v5h5V5.5H4.09C6.21,3.64,8.97,2.5,12,2.5z" /></ns0:g></g></svg>