<svg viewBox="0 0 1024 1024" width="200" height="200" xmlns="http://www.w3.org/2000/svg"><g transform="scale(51.2)"><ns0:g xmlns:ns0="http://www.w3.org/2000/svg"><ns0:rect fill="none" height="20" width="20" x="0" y="0" /><ns0:path d="M10,4c-3.31,0-6,2.69-6,6s2.69,6,6,6s6-2.69,6-6S13.31,4,10,4z M9,13H8V7h1V13z M10,13V7l4,3L10,13z" opacity=".3" /><ns0:path d="M10,4c3.31,0,6,2.69,6,6s-2.69,6-6,6s-6-2.69-6-6S6.69,4,10,4 M10,3c-3.86,0-7,3.14-7,7s3.14,7,7,7s7-3.14,7-7 S13.86,3,10,3L10,3z M10,13l4-3l-4-3V13z M8,7v6h1V7H8z" /></ns0:g></g></svg>