<svg viewBox="0 0 1024 1024" width="200" height="200" xmlns="http://www.w3.org/2000/svg"><g transform="scale(51.2)"><ns0:g xmlns:ns0="http://www.w3.org/2000/svg"><ns0:rect fill="none" height="20" width="20" /></ns0:g><ns0:g xmlns:ns0="http://www.w3.org/2000/svg"><ns0:g><ns0:g><ns0:path d="M14,10c-2.21,0-4,1.79-4,4c0,2.21,1.79,4,4,4c2.21,0,4-1.79,4-4C18,11.79,16.21,10,14,10z M14.35,15.65 c-0.2,0.2-0.51,0.2-0.71,0L12,14h1.5v-1.53c0-0.28,0.22-0.5,0.5-0.5c0.28,0,0.5,0.22,0.5,0.5V14H16L14.35,15.65z" /></ns0:g><ns0:g><ns0:path d="M14,8.5c0.1,0,0.19,0.01,0.29,0.01L3,4v4l6,2l-6,2v4l5.51-2.2C8.62,10.85,11.03,8.5,14,8.5z" /></ns0:g></ns0:g></ns0:g></g></svg>