<svg viewBox="0 0 1024 1024" width="200" height="200" xmlns="http://www.w3.org/2000/svg"><g transform="scale(51.2)"><ns0:g xmlns:ns0="http://www.w3.org/2000/svg"><ns0:rect fill="none" height="20" width="20" /></ns0:g><ns0:g xmlns:ns0="http://www.w3.org/2000/svg"><ns0:g><ns0:path d="M4,6.5c-1.1,0-2,0.9-2,2V15c0,1.1,0.9,2,2,2s2-0.9,2-2V8.5C6,7.4,5.1,6.5,4,6.5z" /><ns0:path d="M16,7.5h-1.4V4H7v12h11V9.5C18,8.4,17.1,7.5,16,7.5z M8.5,5.5h4.6v2H8.5V5.5z M11,13.5H8V10h3V13.5z M12.5,13.5 c-0.41,0-0.75-0.34-0.75-0.75c0-0.41,0.34-0.75,0.75-0.75s0.75,0.34,0.75,0.75C13.25,13.16,12.91,13.5,12.5,13.5z M12.5,11.5 c-0.41,0-0.75-0.34-0.75-0.75c0-0.41,0.34-0.75,0.75-0.75s0.75,0.34,0.75,0.75C13.25,11.16,12.91,11.5,12.5,11.5z M14.75,13.5 c-0.41,0-0.75-0.34-0.75-0.75c0-0.41,0.34-0.75,0.75-0.75s0.75,0.34,0.75,0.75C15.5,13.16,15.16,13.5,14.75,13.5z M14.75,11.5 c-0.41,0-0.75-0.34-0.75-0.75c0-0.41,0.34-0.75,0.75-0.75s0.75,0.34,0.75,0.75C15.5,11.16,15.16,11.5,14.75,11.5z" /></ns0:g></ns0:g></g></svg>