<svg viewBox="0 0 1024 1024" width="200" height="200" xmlns="http://www.w3.org/2000/svg"><g transform="scale(51.2)"><ns0:g xmlns:ns0="http://www.w3.org/2000/svg"><ns0:rect fill="none" height="20" width="20" x="0" /></ns0:g><ns0:g xmlns:ns0="http://www.w3.org/2000/svg"><ns0:g><ns0:path d="M18,9.5c0-1.1-0.9-2-2-2h-1.4V4H7v3.5H6.49c-0.46-0.6-1.17-1-1.99-1C3.12,6.5,2,7.62,2,9v5.5C2,15.88,3.12,17,4.5,17 c0.82,0,1.53-0.4,1.99-1H18V9.5z M8.5,5.5h4.6v2H8.5V5.5z M3.5,14.5V9c0-0.55,0.45-1,1-1s1,0.45,1,1v5.5c0,0.55-0.45,1-1,1 S3.5,15.05,3.5,14.5z M16.5,14.5H7V9h9c0.28,0,0.5,0.22,0.5,0.5V14.5z" /><ns0:g><ns0:circle cx="12.5" cy="10.75" r=".75" /></ns0:g><ns0:g><ns0:circle cx="12.5" cy="12.75" r=".75" /></ns0:g><ns0:g><ns0:circle cx="14.75" cy="12.75" r=".75" /></ns0:g><ns0:g><ns0:circle cx="14.75" cy="10.75" r=".75" /></ns0:g><ns0:rect height="3.5" width="3" x="8" y="10" /></ns0:g></ns0:g></g></svg>