<svg viewBox="0 0 1024 1024" width="200" height="200" xmlns="http://www.w3.org/2000/svg"><g transform="scale(51.2)"><ns0:rect xmlns:ns0="http://www.w3.org/2000/svg" fill="none" height="20" width="20" /><ns0:path xmlns:ns0="http://www.w3.org/2000/svg" d="M16.5,5.75c0.41,0,0.75-0.34,0.75-0.75s-0.34-0.75-0.75-0.75h-3c-0.41,0-0.75,0.34-0.75,0.75s0.34,0.75,0.75,0.75H16.5z M15,15.52c0,0.71-0.71,1.19-1.37,0.93L10,15l-3.63,1.45C5.71,16.71,5,16.23,5,15.52V4.5C5,3.67,5.67,3,6.5,3l5.04,0 C11.19,3.59,11,4.27,11,5c0,2.21,1.79,4,4,4V15.52z" /></g></svg>