<svg viewBox="0 0 1024 1024" width="200" height="200" xmlns="http://www.w3.org/2000/svg"><g transform="scale(42.666666666666664)"><ns0:rect xmlns:ns0="http://www.w3.org/2000/svg" fill="none" height="24" width="24" /><ns0:g xmlns:ns0="http://www.w3.org/2000/svg"><ns0:path d="M19,1H5v22h14V1z M7,18V6h10v12H7z M16,11l0-3H8l0,3.1c0.55,0,1,0.45,1,1c0,0.55-0.45,1-1,1L8,16h8v-3c-0.55,0-1-0.45-1-1 C15,11.45,15.45,11,16,11z M12.5,14.5h-1v-1h1V14.5z M12.5,12.5h-1v-1h1V12.5z M12.5,10.5h-1v-1h1V10.5z" /></ns0:g></g></svg>