<svg viewBox="0 0 1024 1024" width="200" height="200" xmlns="http://www.w3.org/2000/svg"><g transform="scale(42.666666666666664)"><ns0:path xmlns:ns0="http://www.w3.org/2000/svg" d="M0 0h24v24H0V0z" fill="none" /><ns0:path xmlns:ns0="http://www.w3.org/2000/svg" d="M8.7 15.9L4.8 12l3.9-3.9c.39-.39.39-1.01 0-1.4-.39-.39-1.01-.39-1.4 0l-4.59 4.59c-.39.39-.39 1.02 0 1.41l4.59 4.6c.39.39 1.01.39 1.4 0 .39-.39.39-1.01 0-1.4zm6.6 0l3.9-3.9-3.9-3.9c-.39-.39-.39-1.01 0-1.4.39-.39 1.01-.39 1.4 0l4.59 4.59c.39.39.39 1.02 0 1.41l-4.59 4.6c-.39.39-1.01.39-1.4 0-.39-.39-.39-1.01 0-1.4z" /></g></svg>