<svg viewBox="0 0 1024 1024" width="200" height="200" xmlns="http://www.w3.org/2000/svg"><g transform="scale(42.666666666666664)"><ns0:path xmlns:ns0="http://www.w3.org/2000/svg" d="M0 0h24v24H0V0z" fill="none" /><ns0:path xmlns:ns0="http://www.w3.org/2000/svg" d="M16.85 6.85l1.44 1.44-4.88 4.88-3.29-3.29c-.39-.39-1.02-.39-1.41 0l-6 6.01c-.39.39-.39 1.02 0 1.41.39.39 1.02.39 1.41 0L9.41 12l3.29 3.29c.39.39 1.02.39 1.41 0l5.59-5.58 1.44 1.44c.31.31.85.09.85-.35V6.5c.01-.28-.21-.5-.49-.5h-4.29c-.45 0-.67.54-.36.85z" /></g></svg>