<svg viewBox="0 0 1024 1024" width="200" height="200" xmlns="http://www.w3.org/2000/svg"><g transform="scale(51.2)"><ns0:g xmlns:ns0="http://www.w3.org/2000/svg"><ns0:rect fill="none" height="20" width="20" /></ns0:g><ns0:g xmlns:ns0="http://www.w3.org/2000/svg"><ns0:g><ns0:path d="M15.89,4.82C16.15,4.49,15.92,4,15.5,4H6.12l5.73,5.73L15.89,4.82z" /><ns0:path d="M16.54,16.54L3.46,3.46c-0.29-0.29-0.77-0.29-1.06,0c-0.29,0.29-0.29,0.77,0,1.06l6.6,6.6V15c0,0.55,0.45,1,1,1 s1-0.45,1-1v-1.88l4.48,4.48c0.29,0.29,0.77,0.29,1.06,0C16.83,17.31,16.83,16.83,16.54,16.54z" /></ns0:g></ns0:g></g></svg>