<svg viewBox="0 0 1024 1024" width="200" height="200" xmlns="http://www.w3.org/2000/svg"><g transform="scale(42.666666666666664)"><ns0:path xmlns:ns0="http://www.w3.org/2000/svg" d="M0 0h24v24H0V0zm0 0h24v24H0V0zm0 0h24v24H0V0z" fill="none" /><ns0:path xmlns:ns0="http://www.w3.org/2000/svg" d="M16.76 9l1.41 1.41-9.19 9.19 1.41 1.41 9.19-9.19L21 13.24V9h-4.24zm-8.28 3.75l3.54-3.54 2.19.92 1.48-1.48L4.56 4.23 3.5 5.29l4.42 11.14 1.48-1.48-.92-2.2zm-.82-1.72L5.43 6.16l4.87 2.23-2.64 2.64z" /></g></svg>