<svg viewBox="0 0 1024 1024" width="200" height="200" xmlns="http://www.w3.org/2000/svg"><g transform="scale(42.666666666666664)"><ns0:g xmlns:ns0="http://www.w3.org/2000/svg"><ns0:rect fill="none" height="24" width="24" /></ns0:g><ns0:g xmlns:ns0="http://www.w3.org/2000/svg"><ns0:g><ns0:path d="M4,18l2-2h14V4H4V18z M13,6h5v8l-2.5-1.5L13,14V6z" opacity=".3" /><ns0:polygon points="18,14 18,6 13,6 13,14 15.5,12.5" /><ns0:path d="M20,2H4C2.9,2,2,2.9,2,4v18l4-4h14c1.1,0,2-0.9,2-2V4C22,2.9,21.1,2,20,2z M20,16H6l-2,2V4h16V16z" /></ns0:g></ns0:g></g></svg>