<svg viewBox="0 0 1024 1024" width="200" height="200" xmlns="http://www.w3.org/2000/svg"><g transform="scale(42.666666666666664)"><ns0:path xmlns:ns0="http://www.w3.org/2000/svg" d="M0 0h24v24H0z" fill="none" /><ns0:path xmlns:ns0="http://www.w3.org/2000/svg" d="M20 15H4c-.55 0-1 .45-1 1s.45 1 1 1h16c.55 0 1-.45 1-1s-.45-1-1-1zm0-5H4c-.55 0-1 .45-1 1v1c0 .55.45 1 1 1h16c.55 0 1-.45 1-1v-1c0-.55-.45-1-1-1zm0-6H4c-.55 0-1 .45-1 1v2c0 .55.45 1 1 1h16c.55 0 1-.45 1-1V5c0-.55-.45-1-1-1zm.5 15h-17c-.28 0-.5.22-.5.5s.22.5.5.5h17c.28 0 .5-.22.5-.5s-.22-.5-.5-.5z" /></g></svg>