<svg viewBox="0 0 1024 1024" width="200" height="200" xmlns="http://www.w3.org/2000/svg"><g transform="scale(51.2)"><ns0:g xmlns:ns0="http://www.w3.org/2000/svg"><ns0:rect fill="none" height="20" width="20" /></ns0:g><ns0:g xmlns:ns0="http://www.w3.org/2000/svg"><ns0:path d="M14.02,8.84L12.5,9.52l-1.92-4.34c-0.28-0.63-1.02-0.92-1.65-0.64l0,0C8.29,4.82,8.01,5.56,8.29,6.19l3.54,8l-3.15,0.3 l-0.51,1.32l5.28,2.04l6.55-2.9l-1.52-5.89L14.02,8.84z M4,5.5c0,2.03,0.75,3.88,2,5.29L5.29,11.5C3.87,9.91,3,7.81,3,5.5 c0-0.93,0.14-1.82,0.4-2.66L1.71,4.53L1,3.83L3.83,1l2.83,2.83L5.94,4.53L4.4,2.99C4.14,3.78,4,4.62,4,5.5z" /></ns0:g></g></svg>