<svg viewBox="0 0 1024 1024" width="200" height="200" xmlns="http://www.w3.org/2000/svg"><g transform="scale(42.666666666666664)"><ns0:g xmlns:ns0="http://www.w3.org/2000/svg"><ns0:rect fill="none" height="24" width="24" /></ns0:g><ns0:g xmlns:ns0="http://www.w3.org/2000/svg"><ns0:g><ns0:path d="M4,18h16V6H4V18z M12.75,7.25h4v4h-4V7.25z M12.75,12.75h4v4h-4V12.75z M7.25,7.25h4v4h-4V7.25z M7.25,12.75h4v4h-4V12.75z" opacity=".3" /><ns0:rect height="4" width="4" x="7.25" y="7.25" /><ns0:rect height="4" width="4" x="12.75" y="7.25" /><ns0:rect height="4" width="4" x="7.25" y="12.75" /><ns0:rect height="4" width="4" x="12.75" y="12.75" /><ns0:path d="M20,4H4C2.9,4,2,4.9,2,6v12c0,1.1,0.9,2,2,2h16c1.1,0,2-0.9,2-2V6C22,4.9,21.1,4,20,4z M20,18H4V6h16V18z" /></ns0:g></ns0:g></g></svg>