<svg viewBox="0 0 1024 1024" width="200" height="200" xmlns="http://www.w3.org/2000/svg"><g transform="scale(42.666666666666664)"><ns0:g xmlns:ns0="http://www.w3.org/2000/svg"><ns0:rect fill="none" height="24" width="24" /><ns0:rect fill="none" height="24" width="24" /></ns0:g><ns0:g xmlns:ns0="http://www.w3.org/2000/svg"><ns0:g><ns0:path d="M4,5h16c0.55,0,1-0.45,1-1c0-0.55-0.45-1-1-1H4C3.45,3,3,3.45,3,4C3,4.55,3.45,5,4,5z" /><ns0:path d="M20,19H4c-0.55,0-1,0.45-1,1c0,0.55,0.45,1,1,1h16c0.55,0,1-0.45,1-1C21,19.45,20.55,19,20,19z" /><ns0:path d="M20,11H4c-0.55,0-1,0.45-1,1c0,0.55,0.45,1,1,1h16c0.55,0,1-0.45,1-1C21,11.45,20.55,11,20,11z" /></ns0:g></ns0:g></g></svg>