<svg viewBox="0 0 1024 1024" width="200" height="200" xmlns="http://www.w3.org/2000/svg"><g transform="scale(42.666666666666664)"><ns0:g xmlns:ns0="http://www.w3.org/2000/svg"><ns0:rect fill="none" height="24" width="24" /><ns0:rect fill="none" height="24" width="24" /></ns0:g><ns0:g xmlns:ns0="http://www.w3.org/2000/svg"><ns0:path d="M6,7L6,7c0,0.55,0.45,1,1,1h7.59l-8.88,8.88c-0.39,0.39-0.39,1.02,0,1.41l0,0c0.39,0.39,1.02,0.39,1.41,0L16,9.41V17 c0,0.55,0.45,1,1,1h0c0.55,0,1-0.45,1-1V7c0-0.55-0.45-1-1-1H7C6.45,6,6,6.45,6,7z" /></ns0:g></g></svg>