<svg viewBox="0 0 1024 1024" width="200" height="200" xmlns="http://www.w3.org/2000/svg"><g transform="scale(51.2)"><ns0:g xmlns:ns0="http://www.w3.org/2000/svg"><ns0:rect fill="none" height="20" width="20" /></ns0:g><ns0:g xmlns:ns0="http://www.w3.org/2000/svg"><ns0:g><ns0:path d="M18,3H2v12h5v2h6v-2h5V3z M16.5,13.5h-13v-9h13V13.5z" /><ns0:rect height="1" width="7" x="5" y="7" /><ns0:polygon points="14,8 15,8 15,7 14,7 14,6 13,6 13,9 14,9" /><ns0:rect height="1" width="7" x="8" y="10" /><ns0:polygon points="6,12 7,12 7,9 6,9 6,10 5,10 5,11 6,11" /></ns0:g></ns0:g></g></svg>