<svg viewBox="0 0 1024 1024" width="200" height="200" xmlns="http://www.w3.org/2000/svg"><g transform="scale(42.666666666666664)"><ns0:g xmlns:ns0="http://www.w3.org/2000/svg"><ns0:rect fill="none" height="24" width="24" /></ns0:g><ns0:g xmlns:ns0="http://www.w3.org/2000/svg"><ns0:g><ns0:path d="M20,3H4C2.89,3,2,3.89,2,5v12c0,1.1,0.89,2,2,2h4v2h8v-2h4c1.1,0,2-0.9,2-2V5C22,3.89,21.1,3,20,3z M20,17H4V5h16V17z" /><ns0:rect height="1.5" width="8" x="6" y="8.25" /><ns0:polygon points="16.5,9.75 18,9.75 18,8.25 16.5,8.25 16.5,7 15,7 15,11 16.5,11" /><ns0:rect height="1.5" width="8" x="10" y="12.25" /><ns0:polygon points="7.5,15 9,15 9,11 7.5,11 7.5,12.25 6,12.25 6,13.75 7.5,13.75" /></ns0:g></ns0:g></g></svg>