<svg viewBox="0 0 1024 1024" width="200" height="200" xmlns="http://www.w3.org/2000/svg"><g transform="scale(51.2)"><ns0:g xmlns:ns0="http://www.w3.org/2000/svg"><ns0:rect fill="none" height="20" width="20" y="0" /></ns0:g><ns0:g xmlns:ns0="http://www.w3.org/2000/svg"><ns0:g><ns0:path d="M15.5,3h-11C3.67,3,3,3.67,3,4.5v3C3,8.33,3.67,9,4.5,9h11C16.33,9,17,8.33,17,7.5v-3C17,3.67,16.33,3,15.5,3z" /><ns0:path d="M15.5,11h-11C3.67,11,3,11.67,3,12.5v3C3,16.33,3.67,17,4.5,17h11c0.83,0,1.5-0.67,1.5-1.5v-3C17,11.67,16.33,11,15.5,11z" /></ns0:g></ns0:g></g></svg>