<svg viewBox="0 0 1024 1024" width="200" height="200" xmlns="http://www.w3.org/2000/svg"><g transform="scale(51.2)"><ns0:g xmlns:ns0="http://www.w3.org/2000/svg"><ns0:rect fill="none" height="20" width="20" /></ns0:g><ns0:g xmlns:ns0="http://www.w3.org/2000/svg"><ns0:g><ns0:polygon opacity=".3" points="3.5,13.5 16.5,13.5 16.5,11.11 14.48,13.12 8.88,7.52 11.89,4.5 3.5,4.5" /><ns0:g><ns0:path d="M16.5,13.5h-13v-9h8.39L12,4.39V3H3.5C2.67,3,2,3.67,2,4.5v9C2,14.33,2.67,15,3.5,15H7v2h6v-2h3.5 c0.83,0,1.5-0.67,1.5-1.5V9.61l-1.5,1.5V13.5z" /></ns0:g><ns0:polygon points="15.25,8.11 15.25,3 13.75,3 13.75,8.14 12.06,6.45 11,7.52 14.48,11 18,7.48 16.94,6.42" /></ns0:g></ns0:g></g></svg>