<svg viewBox="0 0 1024 1024" width="200" height="200" xmlns="http://www.w3.org/2000/svg"><g transform="scale(51.2)"><ns0:g xmlns:ns0="http://www.w3.org/2000/svg"><ns0:rect fill="none" height="20" width="20" /></ns0:g><ns0:g xmlns:ns0="http://www.w3.org/2000/svg"><ns0:path d="M18,10l-1.77-2.03l0.25-2.69l-2.63-0.6l-1.37-2.32L10,3.43L7.53,2.36L6.15,4.68L3.53,5.28l0.25,2.69L2,10l1.77,2.03 l-0.25,2.69l2.63,0.6l1.37,2.32L10,16.56l2.47,1.07l1.37-2.32l2.63-0.6l-0.25-2.69L18,10z M8.59,13.07l-2.12-2.12l0.71-0.71 l1.41,1.41l4.24-4.24l0.71,0.71L8.59,13.07z" /></ns0:g></g></svg>