<svg viewBox="0 0 1024 1024" width="200" height="200" xmlns="http://www.w3.org/2000/svg"><g transform="scale(51.2)"><ns0:g xmlns:ns0="http://www.w3.org/2000/svg"><ns0:rect fill="none" height="20" width="20" x="0" /></ns0:g><ns0:g xmlns:ns0="http://www.w3.org/2000/svg"><ns0:g><ns0:path d="M15.5,3h-11C3.67,3,3,3.67,3,4.5v11C3,16.33,3.67,17,4.5,17h11c0.83,0,1.5-0.67,1.5-1.5v-11C17,3.67,16.33,3,15.5,3z M5.52,15.5C6.77,14.56,8.32,14,10,14s3.23,0.56,4.48,1.5H5.52z M15.5,14.39c-1.52-1.18-3.43-1.89-5.5-1.89s-3.98,0.71-5.5,1.89 V4.5h11V14.39z" /><ns0:path d="M10,11.5c1.66,0,3-1.34,3-3s-1.34-3-3-3s-3,1.34-3,3S8.34,11.5,10,11.5z M10,7c0.83,0,1.5,0.67,1.5,1.5S10.83,10,10,10 S8.5,9.33,8.5,8.5S9.17,7,10,7z" /></ns0:g></ns0:g></g></svg>