<svg viewBox="0 0 1024 1024" width="200" height="200" xmlns="http://www.w3.org/2000/svg"><g transform="scale(42.666666666666664)"><ns0:g xmlns:ns0="http://www.w3.org/2000/svg"><ns0:rect fill="none" height="24" width="24" /></ns0:g><ns0:g xmlns:ns0="http://www.w3.org/2000/svg"><ns0:path d="M21,3H3v18h18V3z M10.67,8.17l2,2l3.67-3.67l1.41,1.41L12.67,13l-2-2l-3,3l-1.41-1.41L10.67,8.17z M5,16h1.72L5,17.72V16z M5.84,19l3-3h1.83l-3,3H5.84z M9.8,19l3-3h1.62l-3,3H9.8z M13.53,19l3-3h1.62l-3,3H13.53z M19,19h-1.73L19,17.27V19z" /></ns0:g></g></svg>