<svg viewBox="0 0 1024 1024" width="200" height="200" xmlns="http://www.w3.org/2000/svg"><g transform="scale(51.2)"><ns0:g xmlns:ns0="http://www.w3.org/2000/svg"><ns0:rect fill="none" height="20" width="20" x="0" /></ns0:g><ns0:g xmlns:ns0="http://www.w3.org/2000/svg"><ns0:g><ns0:path d="M15.5,3h-11C3.67,3,3,3.67,3,4.5v11C3,16.33,3.67,17,4.5,17h11c0.83,0,1.5-0.67,1.5-1.5v-11C17,3.67,16.33,3,15.5,3z M15.5,15.5h-1.08l1.08-1.08V15.5z M15.5,13L15.5,13L13,15.5h-1.07l2.5-2.5h-1.41l-2.5,2.5H9.46l2.5-2.5h-1.41l-2.5,2.5H6.98 l2.5-2.5H8.07l-2.5,2.5H4.5L7,13H5.59L4.5,14.09V4.5h11V13z" /><ns0:g><ns0:polygon points="10.69,10.62 14.25,7.06 13.19,6 10.69,8.5 9.19,7 5.75,10.44 6.81,11.5 9.19,9.12" /></ns0:g></ns0:g></ns0:g></g></svg>