<svg viewBox="0 0 1024 1024" width="200" height="200" xmlns="http://www.w3.org/2000/svg"><g transform="scale(51.2)"><ns0:g xmlns:ns0="http://www.w3.org/2000/svg"><ns0:rect fill="none" height="20" width="20" /></ns0:g><ns0:g xmlns:ns0="http://www.w3.org/2000/svg"><ns0:g><ns0:g><ns0:path d="M12.12,10.44c1.41-0.96,2.7-1.06,3.88-0.84V8.25c0-0.47-0.22-0.92-0.6-1.2l-4.5-3.38c-0.53-0.4-1.27-0.4-1.8,0L4.6,7.05 C4.22,7.33,4,7.78,4,8.25v7.25C4,16.33,4.67,17,5.5,17h4.38c-0.24-0.62-0.38-1.3-0.38-2.01C9.5,13.14,10.59,11.48,12.12,10.44z" /></ns0:g><ns0:g><ns0:path d="M15,11c-2.21,0-4,1.79-4,4c0,2.21,1.79,4,4,4s4-1.79,4-4C19,12.79,17.21,11,15,11z M17,15.5h-1.5V17h-1v-1.5H13v-1h1.5 V13h1v1.5H17V15.5z" /></ns0:g></ns0:g></ns0:g></g></svg>