<svg viewBox="0 0 1024 1024" width="200" height="200" xmlns="http://www.w3.org/2000/svg"><g transform="scale(51.2)"><ns0:g xmlns:ns0="http://www.w3.org/2000/svg"><ns0:rect fill="none" height="20" width="20" /></ns0:g><ns0:g xmlns:ns0="http://www.w3.org/2000/svg"><ns0:g><ns0:g><ns0:polygon points="11.5,16.23 11.5,18 13.27,18 17.44,13.83 15.67,12.06" /></ns0:g><ns0:g><ns0:path d="M16,6l-4-4H5.5C4.67,2,4,2.67,4,3.5v13C4,17.33,4.67,18,5.5,18H10v-2.39l6-6V6z M11,7V3l4,4H11z" /></ns0:g><ns0:g><ns0:path d="M18.85,11.71l-1.06-1.06c-0.2-0.2-0.51-0.2-0.71,0l-0.71,0.71l1.77,1.77l0.71-0.71C19.05,12.22,19.05,11.9,18.85,11.71z" /></ns0:g></ns0:g></ns0:g></g></svg>