<svg viewBox="0 0 1024 1024" width="200" height="200" xmlns="http://www.w3.org/2000/svg"><g transform="scale(51.2)"><ns0:g xmlns:ns0="http://www.w3.org/2000/svg"><ns0:rect fill="none" height="20" width="20" /></ns0:g><ns0:g xmlns:ns0="http://www.w3.org/2000/svg"><ns0:g><ns0:g opacity=".3"><ns0:polygon points="4,4 4,14.59 5.59,13 13,13 13,9 16,9 16,4" /></ns0:g><ns0:path d="M5.59,13L4,14.59V4h12v5h1V4c0-0.55-0.45-1-1-1H4C3.45,3,3,3.45,3,4v13l3-3h7v-1H5.59z" /><ns0:g><ns0:polygon points="16.4,13 17.64,10 14,10 14,14.36 15.45,14.36 15.45,18 18,13" /></ns0:g></ns0:g></ns0:g></g></svg>