<svg viewBox="0 0 1024 1024" width="200" height="200" xmlns="http://www.w3.org/2000/svg"><g transform="scale(51.2)"><ns0:g xmlns:ns0="http://www.w3.org/2000/svg"><ns0:rect fill="none" height="20" width="20" /></ns0:g><ns0:g xmlns:ns0="http://www.w3.org/2000/svg"><ns0:g><ns0:path d="M4.5,15.5h11v-11h-11V15.5z M12.5,6H14v6h-1.5V6z M9.25,6h1.5v4h-1.5V6z M6,6h1.5v8H6V6z" opacity=".3" /><ns0:g><ns0:path d="M15.5,3h-11C3.67,3,3,3.67,3,4.5v11C3,16.33,3.67,17,4.5,17h11c0.83,0,1.5-0.67,1.5-1.5v-11C17,3.67,16.33,3,15.5,3z M15.5,15.5h-11v-11h11V15.5z" /></ns0:g><ns0:g><ns0:rect height="4" width="1.5" x="9.25" y="6" /></ns0:g><ns0:g><ns0:rect height="8" width="1.5" x="6" y="6" /></ns0:g><ns0:g><ns0:rect height="6" width="1.5" x="12.5" y="6" /></ns0:g></ns0:g></ns0:g></g></svg>