<svg viewBox="0 0 1024 1024" width="200" height="200" xmlns="http://www.w3.org/2000/svg"><g transform="scale(51.2)"><ns0:g xmlns:ns0="http://www.w3.org/2000/svg"><ns0:rect fill="none" height="20" width="20" /></ns0:g><ns0:g xmlns:ns0="http://www.w3.org/2000/svg"><ns0:path d="M10,3c-3.87,0-7,3.13-7,7c0,3.87,3.13,7,7,7s7-3.13,7-7C17,6.13,13.87,3,10,3z M14,11.5h-2.99l1.19-1.19 C11.59,9.81,10.84,9.5,10,9.5c-1.39,0-2.58,0.82-3.15,1.99l-0.96-0.32C6.59,9.6,8.17,8.5,10,8.5c1.12,0,2.13,0.41,2.91,1.09L14,8.5 V11.5z" /></ns0:g></g></svg>