<svg viewBox="0 0 1024 1024" width="200" height="200" xmlns="http://www.w3.org/2000/svg"><g transform="scale(51.2)"><ns0:rect xmlns:ns0="http://www.w3.org/2000/svg" fill="none" height="20" width="20" /><ns0:g xmlns:ns0="http://www.w3.org/2000/svg" opacity=".3"><ns0:path d="M15.5,9.25h-2.67V6.5h2.67V9.25z M8.67,9.25V6.5h2.67v2.75H8.67z M11.33,10.75v2.75H8.67v-2.75H11.33z M7.17,6.5v2.75H4.5 V6.5H7.17z M4.5,10.75h2.67v2.75H4.5V10.75z M12.83,13.5v-2.75h2.67v2.75H12.83z" /></ns0:g><ns0:g xmlns:ns0="http://www.w3.org/2000/svg"><ns0:path d="M3,5v10h14V5H3z M15.5,9.25h-2.67V6.5h2.67V9.25z M8.67,9.25V6.5h2.67v2.75H8.67z M11.33,10.75v2.75H8.67v-2.75H11.33z M7.17,6.5v2.75H4.5V6.5H7.17z M4.5,10.75h2.67v2.75H4.5V10.75z M12.83,13.5v-2.75h2.67v2.75H12.83z" /></ns0:g></g></svg>