<svg viewBox="0 0 1024 1024" width="200" height="200" xmlns="http://www.w3.org/2000/svg"><g transform="scale(51.2)"><ns0:g xmlns:ns0="http://www.w3.org/2000/svg"><ns0:rect fill="none" height="20" width="20" /></ns0:g><ns0:g xmlns:ns0="http://www.w3.org/2000/svg"><ns0:g><ns0:circle cx="8" cy="8" r="3" /><ns0:path d="M13.03,13.37C11.56,12.5,9.84,12,8,12s-3.56,0.5-5.03,1.37C2.36,13.72,2,14.39,2,15.09V17h12v-1.91 C14,14.39,13.64,13.72,13.03,13.37z" /><ns0:path d="M12.5,1H11c0,4.42,3.58,8,8,8V7.5C15.42,7.5,12.5,4.58,12.5,1z" /><ns0:path d="M15.5,1H14c0,2.76,2.24,5,5,5V4.5C17.07,4.5,15.5,2.93,15.5,1z" /></ns0:g></ns0:g></g></svg>