<svg viewBox="0 0 1024 1024" width="200" height="200" xmlns="http://www.w3.org/2000/svg"><g transform="scale(51.2)"><ns0:rect xmlns:ns0="http://www.w3.org/2000/svg" fill="none" height="20" width="20" /><ns0:path xmlns:ns0="http://www.w3.org/2000/svg" d="M16.01,18.13L14.88,17H12c0-1.1-0.9-2-2-2s-2,0.9-2,2H4.5C3.67,17,3,16.33,3,15.5V12c1.1,0,2-0.9,2-2S4.1,8,3,8V5.12 L1.87,3.99l1.06-1.06l0.51,0.51l13.63,13.63L16.01,18.13z M17,8V4.5C17,3.67,16.33,3,15.5,3H12c0-1.1-0.9-2-2-2S8,1.9,8,3H5.12 L17,14.88V12c1.1,0,2-0.9,2-2S18.1,8,17,8z" /></g></svg>