<svg viewBox="0 0 1024 1024" width="200" height="200" xmlns="http://www.w3.org/2000/svg"><g transform="scale(51.2)"><ns0:g xmlns:ns0="http://www.w3.org/2000/svg"><ns0:rect fill="none" height="20" width="20" /></ns0:g><ns0:g xmlns:ns0="http://www.w3.org/2000/svg"><ns0:path d="M6,12H5V9H4V8h2V12z M11,11H9v-0.5h1.5c0.28,0,0.5-0.22,0.5-0.5V8.5C11,8.22,10.78,8,10.5,8H8v1h2v0.5H8.5 C8.22,9.5,8,9.72,8,10v2h3V11z M15.5,11.5v-3C15.5,8.22,15.28,8,15,8h-2.5v1h2v0.5h-1v1h1V11h-2v1H15 C15.28,12,15.5,11.78,15.5,11.5z" /></ns0:g></g></svg>