<svg viewBox="0 0 1024 1024" width="200" height="200" xmlns="http://www.w3.org/2000/svg"><g transform="scale(42.666666666666664)"><ns0:g xmlns:ns0="http://www.w3.org/2000/svg"><ns0:rect height="14" opacity=".3" width="14" x="5" y="5" /><ns0:g><ns0:rect fill="none" height="24" width="24" /><ns0:g><ns0:path d="M19,3H5C3.9,3,3,3.9,3,5v14c0,1.1,0.9,2,2,2h14c1.1,0,2-0.9,2-2V5C21,3.9,20.1,3,19,3z M19,19H5V5h14V19z" /><ns0:rect height="5" width="2" x="7" y="12" /><ns0:rect height="10" width="2" x="15" y="7" /><ns0:rect height="3" width="2" x="11" y="14" /><ns0:rect height="2" width="2" x="11" y="10" /></ns0:g></ns0:g></ns0:g></g></svg>