<svg viewBox="0 0 1024 1024" width="200" height="200" xmlns="http://www.w3.org/2000/svg"><g transform="scale(51.2)"><ns0:g xmlns:ns0="http://www.w3.org/2000/svg"><ns0:rect fill="none" height="20" width="20" /></ns0:g><ns0:g xmlns:ns0="http://www.w3.org/2000/svg"><ns0:g><ns0:path d="M4,15h12V5H4V15z M11.27,9.65l0.71,0.71l2.12-2.12l0.71,0.71l-2.83,2.83l-1.41-1.41L11.27,9.65z M5,7h4v1H5 V7z M5,9.5h4v1H5V9.5z M5,12h4v1H5V12z" opacity=".3" /><ns0:path d="M16,4H4C3.45,4,3,4.45,3,5v10c0,0.55,0.45,1,1,1h12c0.55,0,1-0.45,1-1V5C17,4.45,16.55,4,16,4z M16,15H4V5h12V15z" /><ns0:rect height="1" width="4" x="5" y="7" /><ns0:rect height="1" width="4" x="5" y="9.5" /><ns0:rect height="1" width="4" x="5" y="12" /><ns0:polygon points="14.8,8.94 14.1,8.23 11.97,10.35 11.27,9.65 10.56,10.35 11.97,11.77" /></ns0:g></ns0:g></g></svg>