<svg viewBox="0 0 1024 1024" width="200" height="200" xmlns="http://www.w3.org/2000/svg"><g transform="scale(51.2)"><ns0:g xmlns:ns0="http://www.w3.org/2000/svg"><ns0:rect fill="none" height="20" width="20" /></ns0:g><ns0:g xmlns:ns0="http://www.w3.org/2000/svg"><ns0:path d="M10,3c-3.87,0-7,3.13-7,7c0,3.87,3.13,7,7,7s7-3.13,7-7C17,6.13,13.87,3,10,3z M6.5,11c-0.55,0-1-0.45-1-1 c0-0.55,0.45-1,1-1s1,0.45,1,1C7.5,10.55,7.05,11,6.5,11z M10,11c-0.55,0-1-0.45-1-1c0-0.55,0.45-1,1-1s1,0.45,1,1 C11,10.55,10.55,11,10,11z M13.5,11c-0.55,0-1-0.45-1-1c0-0.55,0.45-1,1-1s1,0.45,1,1C14.5,10.55,14.05,11,13.5,11z" /></ns0:g></g></svg>