<svg viewBox="0 0 1024 1024" width="200" height="200" xmlns="http://www.w3.org/2000/svg"><g transform="scale(51.2)"><ns0:g xmlns:ns0="http://www.w3.org/2000/svg"><ns0:rect fill="none" height="20" width="20" /></ns0:g><ns0:g xmlns:ns0="http://www.w3.org/2000/svg"><ns0:g><ns0:polygon points="16,12 16,9.75 14,9.75 14,9 15,9 15,9.25 16,9.25 16,8 13,8 13,10.25 15,10.25 15,11 14,11 14,10.75 13,10.75 13,10.88 14.12,12" /><ns0:polygon points="2.93,2.93 1.87,3.99 6,8.12 6,9.5 5,9.5 5,8 4,8 4,12 5,12 5,10.5 6,10.5 6,12 7,12 7,9.12 9,11.12 9,12 9.88,12 16.01,18.13 17.07,17.07" /></ns0:g></ns0:g></g></svg>