<svg viewBox="0 0 1024 1024" width="200" height="200" xmlns="http://www.w3.org/2000/svg"><g transform="scale(51.2)"><ns0:g xmlns:ns0="http://www.w3.org/2000/svg"><ns0:rect fill="none" height="20" width="20" /></ns0:g><ns0:g xmlns:ns0="http://www.w3.org/2000/svg"><ns0:g><ns0:path d="M2.5,7H1v9.5C1,17.33,1.67,18,2.5,18H16v-1.5H2.5V7z" /><ns0:path d="M15,4V2.5C15,1.67,14.33,1,13.5,1h-4C8.67,1,8,1.67,8,2.5V4H4v9.5C4,14.33,4.67,15,5.5,15h12c0.83,0,1.5-0.67,1.5-1.5V4 H15z M9.5,2.5h4V4h-4V2.5z M10,12.5v-6l4.5,3L10,12.5z" /></ns0:g></ns0:g></g></svg>