<svg viewBox="0 0 1024 1024" width="200" height="200" xmlns="http://www.w3.org/2000/svg"><g transform="scale(51.2)"><ns0:g xmlns:ns0="http://www.w3.org/2000/svg"><ns0:rect fill="none" height="20" width="20" x="0" /></ns0:g><ns0:g xmlns:ns0="http://www.w3.org/2000/svg"><ns0:g><ns0:g><ns0:path d="M16,6v10H6v1h10c0.55,0,1-0.45,1-1V6H16z" /></ns0:g><ns0:g><ns0:path d="M14,13V4c0-0.55-0.45-1-1-1H4C3.45,3,3,3.45,3,4v9c0,0.55,0.45,1,1,1h9C13.55,14,14,13.55,14,13z M4,4h9v4H4V4z M8,13H4 V9h4V13z M9,9h4v4H9V9z" /></ns0:g></ns0:g></ns0:g></g></svg>