<svg viewBox="0 0 1024 1024" width="200" height="200" xmlns="http://www.w3.org/2000/svg"><g transform="scale(51.2)"><ns0:g xmlns:ns0="http://www.w3.org/2000/svg"><ns0:rect fill="none" height="20" width="20" /></ns0:g><ns0:g xmlns:ns0="http://www.w3.org/2000/svg"><ns0:path d="M18,10c0-4.42-3.58-8-8-8s-8,3.58-8,8s3.58,8,8,8S18,14.42,18,10z M10,11.79v-1.04H7.75C7.34,10.75,7,10.41,7,10 s0.34-0.75,0.75-0.75H10V8.21c0-0.45,0.54-0.67,0.85-0.35l1.79,1.79c0.2,0.2,0.2,0.51,0,0.71l-1.79,1.79 C10.54,12.46,10,12.24,10,11.79z" /></ns0:g></g></svg>