<svg viewBox="0 0 1024 1024" width="200" height="200" xmlns="http://www.w3.org/2000/svg"><g transform="scale(51.2)"><ns0:g xmlns:ns0="http://www.w3.org/2000/svg"><ns0:rect fill="none" height="20" width="20" x="0" /></ns0:g><ns0:g xmlns:ns0="http://www.w3.org/2000/svg"><ns0:path d="M10,7l3,3l-3,3l-1.06-1.06l1.19-1.19H7v-1.5h3.13L8.94,8.06L10,7z M18,10c0-4.42-3.58-8-8-8s-8,3.58-8,8s3.58,8,8,8 S18,14.42,18,10z M3.5,10c0-3.58,2.92-6.5,6.5-6.5s6.5,2.92,6.5,6.5s-2.92,6.5-6.5,6.5S3.5,13.58,3.5,10z" /></ns0:g></g></svg>