<svg viewBox="0 0 1024 1024" width="200" height="200" xmlns="http://www.w3.org/2000/svg"><g transform="scale(42.666666666666664)"><ns0:g xmlns:ns0="http://www.w3.org/2000/svg"><ns0:rect fill="none" height="24" width="24" /></ns0:g><ns0:g xmlns:ns0="http://www.w3.org/2000/svg"><ns0:path d="M22,12c0-5.52-4.48-10-10-10C6.48,2,2,6.48,2,12s4.48,10,10,10C17.52,22,22,17.52,22,12z M4,12c0-4.42,3.58-8,8-8 c4.42,0,8,3.58,8,8s-3.58,8-8,8C7.58,20,4,16.42,4,12z M16,12l-4,4l-1.41-1.41L12.17,13H8v-2h4.17l-1.59-1.59L12,8L16,12z" /></ns0:g></g></svg>