<svg viewBox="0 0 1024 1024" width="200" height="200" xmlns="http://www.w3.org/2000/svg"><g transform="scale(42.666666666666664)"><ns0:g xmlns:ns0="http://www.w3.org/2000/svg"><ns0:rect fill="none" height="24" width="24" /></ns0:g><ns0:g xmlns:ns0="http://www.w3.org/2000/svg"><ns0:g><ns0:path d="M4,12c0-4.41,3.59-8,8-8s8,3.59,8,8s-3.59,8-8,8S4,16.41,4,12 M12,11l-4,0v2l4,0v3l4-4l-4-4V11z" opacity=".3" /><ns0:path d="M4,12c0-4.41,3.59-8,8-8s8,3.59,8,8s-3.59,8-8,8S4,16.41,4,12 M2,12c0,5.52,4.48,10,10,10c5.52,0,10-4.48,10-10 c0-5.52-4.48-10-10-10C6.48,2,2,6.48,2,12L2,12z M12,11l-4,0v2l4,0v3l4-4l-4-4V11z" /></ns0:g></ns0:g></g></svg>