<svg viewBox="0 0 1024 1024" width="200" height="200" xmlns="http://www.w3.org/2000/svg"><g transform="scale(51.2)"><ns0:g xmlns:ns0="http://www.w3.org/2000/svg"><ns0:rect fill="none" height="20" width="20" /></ns0:g><ns0:g xmlns:ns0="http://www.w3.org/2000/svg"><ns0:g><ns0:path d="M16,4h-5.5C10.22,4,10,4.22,10,4.5v0C10,4.78,10.22,5,10.5,5H16v10h-5.5c-0.28,0-0.5,0.22-0.5,0.5v0 c0,0.28,0.22,0.5,0.5,0.5H16c0.55,0,1-0.45,1-1V5C17,4.45,16.55,4,16,4z" /><ns0:path d="M9.15,6.85L9.15,6.85c-0.2,0.2-0.2,0.51,0,0.71l1.94,1.94H3.5C3.22,9.5,3,9.72,3,10v0c0,0.28,0.22,0.5,0.5,0.5h7.59 l-1.94,1.94c-0.2,0.2-0.2,0.51,0,0.71l0,0c0.2,0.2,0.51,0.2,0.71,0l2.79-2.79c0.2-0.2,0.2-0.51,0-0.71L9.85,6.85 C9.66,6.66,9.34,6.66,9.15,6.85z" /></ns0:g></ns0:g></g></svg>