<svg viewBox="0 0 1024 1024" width="200" height="200" xmlns="http://www.w3.org/2000/svg"><g transform="scale(51.2)"><ns0:g xmlns:ns0="http://www.w3.org/2000/svg"><ns0:rect fill="none" height="20" width="20" /></ns0:g><ns0:g xmlns:ns0="http://www.w3.org/2000/svg"><ns0:g><ns0:path d="M10,3c-3.86,0-7,3.14-7,7s3.14,7,7,7s7-3.14,7-7S13.86,3,10,3z M11.67,13.15 l-1.91-1.91c-0.84,0.26-1.79,0.08-2.45-0.59C6.54,9.88,6.4,8.73,6.88,7.81l1.63,1.63l1.03-1.03L7.91,6.78 c0.92-0.48,2.07-0.34,2.84,0.43c0.74,0.74,0.9,1.84,0.48,2.74l1.82,1.82c0.2,0.2,0.2,0.51,0,0.71l-0.67,0.67 C12.18,13.34,11.86,13.34,11.67,13.15z" fill-rule="evenodd" /></ns0:g></ns0:g></g></svg>