<svg viewBox="0 0 1024 1024" width="200" height="200" xmlns="http://www.w3.org/2000/svg"><g transform="scale(42.666666666666664)"><ns0:g xmlns:ns0="http://www.w3.org/2000/svg"><ns0:rect fill="none" height="24" width="24" /><ns0:path d="M17,5h-2V3h2V5z M19,3v2h2V3H19z M19,9h2V7h-2V9z M19,13h2v-2h-2V13z M11,21h2v-2h-2V21z M7,5h2V3H7V5z M3,5h2V3H3V5z M3,17h2v-2H3V17z M3,21h2v-2H3V21z M11,5h2V3h-2V5z M3,9h2V7H3V9z M7,21h2v-2H7V21z M3,13h2v-2H3V13z M15,15v6l2.29-2.29L19.59,21 L21,19.59l-2.29-2.29L21,15H15z" /></ns0:g></g></svg>