<svg viewBox="0 0 1024 1024" width="200" height="200" xmlns="http://www.w3.org/2000/svg"><g transform="scale(51.2)"><ns0:g xmlns:ns0="http://www.w3.org/2000/svg"><ns0:rect fill="none" height="20" width="20" x="0" /></ns0:g><ns0:g xmlns:ns0="http://www.w3.org/2000/svg"><ns0:g><ns0:polygon points="14,14 18,10 14,6 12.94,7.06 15.13,9.25 8,9.25 8,10.75 15.13,10.75 12.94,12.94" /><ns0:path d="M15.5,15.5h-11v-11h11V6H17V4.5C17,3.67,16.33,3,15.5,3h-11C3.67,3,3,3.67,3,4.5v11C3,16.33,3.67,17,4.5,17h11 c0.83,0,1.5-0.67,1.5-1.5V14h-1.5V15.5z" /></ns0:g></ns0:g></g></svg>