<svg viewBox="0 0 1024 1024" width="200" height="200" xmlns="http://www.w3.org/2000/svg"><g transform="scale(42.666666666666664)"><ns0:path xmlns:ns0="http://www.w3.org/2000/svg" d="M0 0h24v24H0V0z" fill="none" /><ns0:path xmlns:ns0="http://www.w3.org/2000/svg" d="M20.75 6.99c-.14-.55-.69-.87-1.24-.75-2.38.53-5.03.76-7.51.76s-5.13-.23-7.51-.76c-.55-.12-1.1.2-1.24.75-.14.56.2 1.13.75 1.26 1.61.36 3.35.61 5 .75v12c0 .55.45 1 1 1s1-.45 1-1v-5h2v5c0 .55.45 1 1 1s1-.45 1-1V9c1.65-.14 3.39-.39 4.99-.75.56-.13.9-.7.76-1.26zM12 6c1.1 0 2-.9 2-2s-.9-2-2-2-2 .9-2 2 .9 2 2 2z" /></g></svg>