<svg viewBox="0 0 1024 1024" width="200" height="200" xmlns="http://www.w3.org/2000/svg"><g transform="scale(42.666666666666664)"><ns0:path xmlns:ns0="http://www.w3.org/2000/svg" d="M0 0h24v24H0V0z" fill="none" /><ns0:path xmlns:ns0="http://www.w3.org/2000/svg" d="M6.14 11.86l-2.78 2.79c-.19.2-.19.51 0 .71l2.78 2.79c.31.32.85.09.85-.35V16H13c.55 0 1-.45 1-1s-.45-1-1-1H6.99v-1.79c0-.45-.54-.67-.85-.35zm14.51-3.21l-2.78-2.79c-.31-.32-.85-.09-.85.35V8H11c-.55 0-1 .45-1 1s.45 1 1 1h6.01v1.79c0 .45.54.67.85.35l2.78-2.79c.2-.19.2-.51.01-.7z" /></g></svg>