<svg viewBox="0 0 1024 1024" width="200" height="200" xmlns="http://www.w3.org/2000/svg"><g transform="scale(51.2)"><ns0:g xmlns:ns0="http://www.w3.org/2000/svg"><ns0:rect fill="none" height="20" width="20" /></ns0:g><ns0:g xmlns:ns0="http://www.w3.org/2000/svg"><ns0:g><ns0:polygon points="14.5,15 5.5,15 5.5,5 14.5,5 14.5,6 16,6 16,1 4,1 4,19 16,19 16,14 14.5,14" /><ns0:polygon points="17.03,7.97 17.5,9 17.97,7.97 19,7.5 17.97,7.03 17.5,6 17.03,7.03 16,7.5" /><ns0:polygon points="13,7 12.06,9.06 10,10 12.06,10.94 13,13 13.94,10.94 16,10 13.94,9.06" /><ns0:polygon points="17.5,11 17.03,12.03 16,12.5 17.03,12.97 17.5,14 17.97,12.97 19,12.5 17.97,12.03" /></ns0:g></ns0:g></g></svg>