<svg viewBox="0 0 1024 1024" width="200" height="200" xmlns="http://www.w3.org/2000/svg"><g transform="scale(51.2)"><ns0:g xmlns:ns0="http://www.w3.org/2000/svg"><ns0:rect fill="none" height="20" width="20" /></ns0:g><ns0:g xmlns:ns0="http://www.w3.org/2000/svg"><ns0:g><ns0:rect height="1" opacity=".3" width="9" x="5.5" y="2.5" /><ns0:rect height="1" opacity=".3" width="9" x="5.5" y="16.5" /><ns0:path d="M14.5,15h-9V5h9v1H16V2.5C16,1.67,15.33,1,14.5,1h-9C4.67,1,4,1.67,4,2.5v15C4,18.33,4.67,19,5.5,19h9 c0.83,0,1.5-0.67,1.5-1.5V14h-1.5V15z M5.5,2.5h9v1h-9V2.5z M14.5,17.5h-9v-1h9V17.5z" /><ns0:polygon points="17.03,7.97 17.5,9 17.97,7.97 19,7.5 17.97,7.03 17.5,6 17.03,7.03 16,7.5" /><ns0:polygon points="13,7 12.06,9.06 10,10 12.06,10.94 13,13 13.94,10.94 16,10 13.94,9.06" /><ns0:polygon points="17.5,11 17.03,12.03 16,12.5 17.03,12.97 17.5,14 17.97,12.97 19,12.5 17.97,12.03" /></ns0:g></ns0:g></g></svg>