<svg viewBox="0 0 1024 1024" width="200" height="200" xmlns="http://www.w3.org/2000/svg"><g transform="scale(42.666666666666664)"><ns0:path xmlns:ns0="http://www.w3.org/2000/svg" d="M0 0h24v24H0V0z" fill="none" /><ns0:path xmlns:ns0="http://www.w3.org/2000/svg" d="M16.5 12.5H15v4l3 2 .75-1.23-2.25-1.52V12.5zM16 9L2 3v7l9 2-9 2v7l7.27-3.11C10.09 20.83 12.79 23 16 23c3.86 0 7-3.14 7-7s-3.14-7-7-7zm0 12c-2.75 0-4.98-2.22-5-4.97v-.07c.02-2.74 2.25-4.97 5-4.97 2.76 0 5 2.24 5 5S18.76 21 16 21z" /></g></svg>