<svg viewBox="0 0 1024 1024" width="200" height="200" xmlns="http://www.w3.org/2000/svg"><g transform="scale(51.2)"><ns0:g xmlns:ns0="http://www.w3.org/2000/svg"><ns0:rect fill="none" height="20" width="20" /></ns0:g><ns0:g xmlns:ns0="http://www.w3.org/2000/svg"><ns0:g><ns0:path d="M14,3.08V4.6c2.56,0.47,4.5,2.71,4.5,5.4s-1.94,4.93-4.5,5.4v1.52c3.39-0.49,6-3.39,6-6.92C20,6.47,17.39,3.57,14,3.08z" /><ns0:path d="M7,3c-3.87,0-7,3.13-7,7c0,3.87,3.13,7,7,7s7-3.13,7-7C14,6.13,10.87,3,7,3z M9.08,12.83L6.25,10V6h1.5v3.38l2.39,2.39 L9.08,12.83z" /></ns0:g></ns0:g></g></svg>