<svg viewBox="0 0 1024 1024" width="200" height="200" xmlns="http://www.w3.org/2000/svg"><g transform="scale(51.2)"><ns0:g xmlns:ns0="http://www.w3.org/2000/svg"><ns0:rect fill="none" height="20" width="20" x="0" /></ns0:g><ns0:g xmlns:ns0="http://www.w3.org/2000/svg"><ns0:path d="M9.25,8.07C7.4,8.42,6,10.05,6,12c0,2.21,1.79,4,4,4c2.21,0,4-1.79,4-4c0-1.95-1.4-3.58-3.25-3.93l0-3.2l1.19,1.19L13,5 l-3-3L7,5l1.06,1.06l1.19-1.19L9.25,8.07z M7.5,12c0-1.38,1.12-2.5,2.5-2.5c1.38,0,2.5,1.12,2.5,2.5s-1.12,2.5-2.5,2.5 C8.62,14.5,7.5,13.38,7.5,12z" /></ns0:g></g></svg>