<svg viewBox="0 0 1024 1024" width="200" height="200" xmlns="http://www.w3.org/2000/svg"><g transform="scale(42.666666666666664)"><ns0:rect xmlns:ns0="http://www.w3.org/2000/svg" fill="none" height="24" width="24" /><ns0:path xmlns:ns0="http://www.w3.org/2000/svg" d="M19.17,12l-3.88-3.88c-0.39-0.39-0.39-1.02,0-1.41l0,0c0.39-0.39,1.02-0.39,1.41,0l4.59,4.59c0.39,0.39,0.39,1.02,0,1.41 l-2.88,2.88L17,14.17L19.17,12z M2.1,4.93l3.49,3.49l-2.88,2.88c-0.39,0.39-0.39,1.02,0,1.41l4.59,4.59c0.39,0.39,1.02,0.39,1.41,0 l0,0c0.39-0.39,0.39-1.02,0-1.41L4.83,12L7,9.83L19.07,21.9c0.39,0.39,1.02,0.39,1.41,0l0,0c0.39-0.39,0.39-1.02,0-1.41L3.51,3.51 c-0.39-0.39-1.02-0.39-1.41,0l0,0C1.71,3.91,1.71,4.54,2.1,4.93z" /></g></svg>