<svg viewBox="0 0 1024 1024" width="200" height="200" xmlns="http://www.w3.org/2000/svg"><g transform="scale(51.2)"><ns0:g xmlns:ns0="http://www.w3.org/2000/svg"><ns0:rect fill="none" height="20" width="20" /></ns0:g><ns0:g xmlns:ns0="http://www.w3.org/2000/svg"><ns0:path d="M2,6c1.03-2.89,4.22-5,8-5c2.93,0,5.51,1.27,7,3.19L17,2h1v4h-4V5l2.36,0C15.06,3.18,12.65,2,10,2C6.89,2,4.11,3.63,3.07,6 L2,6z M12.66,11H11V6.25C11,5.56,10.44,5,9.75,5h0C9.06,5,8.5,5.56,8.5,6.25V15l-3-1l-1,1l4,4h7.16l1-6L12.66,11z" /></ns0:g></g></svg>