<svg viewBox="0 0 1024 1024" width="200" height="200" xmlns="http://www.w3.org/2000/svg"><g transform="scale(51.2)"><ns0:g xmlns:ns0="http://www.w3.org/2000/svg"><ns0:rect fill="none" height="20" width="20" /></ns0:g><ns0:g xmlns:ns0="http://www.w3.org/2000/svg"><ns0:g><ns0:polygon points="4,8.5 2,8.5 2,11.5 4,11.5 4,16 8,16 8,14.5 5.5,14.5 5.5,10.25 3.5,10.25 3.5,9.75 5.5,9.75 5.5,5.5 8,5.5 8,4 4,4" /><ns0:polygon points="16,8.5 16,4 12,4 12,5.5 14.5,5.5 14.5,9.75 16.5,9.75 16.5,10.25 14.5,10.25 14.5,14.5 12,14.5 12,16 16,16 16,11.5 18,11.5 18,8.5" /></ns0:g></ns0:g></g></svg>