<svg viewBox="0 0 1024 1024" width="200" height="200" xmlns="http://www.w3.org/2000/svg"><g transform="scale(42.666666666666664)"><ns0:g xmlns:ns0="http://www.w3.org/2000/svg"><ns0:rect fill="none" height="24" width="24" /></ns0:g><ns0:g xmlns:ns0="http://www.w3.org/2000/svg"><ns0:g><ns0:polygon points="4,10 2,10 2,14 4,14 4,20 10,20 10,18 6,18 6,12.5 4,12.5 4,11.5 6,11.5 6,6 10,6 10,4 4,4" /><ns0:polygon points="20,10 20,4 14,4 14,6 18,6 18,11.5 20,11.5 20,12.5 18,12.5 18,18 14,18 14,20 20,20 20,14 22,14 22,10" /></ns0:g></ns0:g></g></svg>