<svg viewBox="0 0 1024 1024" width="200" height="200" xmlns="http://www.w3.org/2000/svg"><g transform="scale(51.2)"><ns0:g xmlns:ns0="http://www.w3.org/2000/svg"><ns0:rect fill="none" height="20" width="20" /></ns0:g><ns0:g xmlns:ns0="http://www.w3.org/2000/svg"><ns0:g><ns0:path d="M16.5,2h-10C5.67,2,5,2.67,5,3.5v10C5,14.33,5.67,15,6.5,15h10c0.83,0,1.5-0.67,1.5-1.5v-10C18,2.67,17.33,2,16.5,2z M13.54,12l-0.63-1.79h-2.83L9.46,12H8.24l2.63-7h1.25l2.63,7H13.54z" /><ns0:path d="M3.5,5H2v11.5C2,17.33,2.67,18,3.5,18H15v-1.5H3.5V5z" /><ns0:polygon points="11.47,6.3 10.45,9.19 12.55,9.19 11.53,6.3" /></ns0:g></ns0:g></g></svg>