<svg viewBox="0 0 1024 1024" width="200" height="200" xmlns="http://www.w3.org/2000/svg"><g transform="scale(42.666666666666664)"><ns0:g xmlns:ns0="http://www.w3.org/2000/svg"><ns0:rect fill="none" height="24" width="24" /></ns0:g><ns0:g xmlns:ns0="http://www.w3.org/2000/svg"><ns0:g><ns0:path d="M4,6H2v14c0,1.1,0.9,2,2,2h14v-2H4V6z" /><ns0:path d="M20,2H8C6.9,2,6,2.9,6,4v12c0,1.1,0.9,2,2,2h12c1.1,0,2-0.9,2-2V4C22,2.9,21.1,2,20,2z M20,16H8V4h12V16z" /><ns0:path d="M12.19,12.2h3.63l0.8,2.3h1.56l-3.38-9H13.2l-3.38,9h1.56L12.19,12.2z M13.96,7.17h0.08l1.31,3.72h-2.69L13.96,7.17z" /></ns0:g></ns0:g></g></svg>