<svg viewBox="0 0 1024 1024" width="200" height="200" xmlns="http://www.w3.org/2000/svg"><g transform="scale(42.666666666666664)"><ns0:path xmlns:ns0="http://www.w3.org/2000/svg" d="M0 0h24v24H0V0z" fill="none" /><ns0:path xmlns:ns0="http://www.w3.org/2000/svg" d="M19 5H5v2h14z" opacity=".3" /><ns0:path xmlns:ns0="http://www.w3.org/2000/svg" d="M5 21h14c1.1 0 2-.9 2-2V5c0-1.1-.9-2-2-2h-1V1h-2v2H8V1H6v2H5c-1.11 0-1.99.9-1.99 2L3 19c0 1.1.89 2 2 2zM5 7V5h14v2H5zm0 2h14v10H5V9zm7 3h5v5h-5z" /></g></svg>