<svg viewBox="0 0 1024 1024" width="200" height="200" xmlns="http://www.w3.org/2000/svg"><g transform="scale(51.2)"><ns0:rect xmlns:ns0="http://www.w3.org/2000/svg" fill="none" height="20" width="20" /><ns0:path xmlns:ns0="http://www.w3.org/2000/svg" d="M5.5,3.5H8V5H5.5V3.5z M8,17H5.5v-1.5H8V17z M8,10.75H5.5v-1.5H8V10.75z M15.5,10.75H13v-1.5h2.5V10.75z" opacity=".3" /><ns0:path xmlns:ns0="http://www.w3.org/2000/svg" d="M11.5,7.75v1.5h-2v-1.5h-2V6.5h2V2H4v4.5h2v1.25H4v4.5h2V14H4v4.5h5.5V14h-2v-1.75h2v-1.5h2v1.5H17v-4.5H11.5z M5.5,3.5H8V5 H5.5V3.5z M8,17H5.5v-1.5H8V17z M8,10.75H5.5v-1.5H8V10.75z M15.5,10.75H13v-1.5h2.5V10.75z" /></g></svg>