<svg viewBox="0 0 1024 1024" width="200" height="200" xmlns="http://www.w3.org/2000/svg"><g transform="scale(51.2)"><ns0:g xmlns:ns0="http://www.w3.org/2000/svg"><ns0:rect fill="none" height="20" width="20" x="0" /></ns0:g><ns0:g xmlns:ns0="http://www.w3.org/2000/svg"><ns0:g><ns0:path d="M5.5,3.5H11V7h3.5v2H16V6l-4-4H5.5C4.67,2,4,2.67,4,3.5V9h1.5V3.5z" /><ns0:path d="M14.5,16.5h-9V14H4v2.5C4,17.33,4.67,18,5.5,18h9c0.83,0,1.5-0.67,1.5-1.5V14h-1.5V16.5z" /><ns0:rect height="1.5" width="4" x="8" y="11" /><ns0:rect height="1.5" width="4" x="2" y="11" /><ns0:rect height="1.5" width="4" x="14" y="11" /></ns0:g></ns0:g></g></svg>