<svg viewBox="0 0 1024 1024" width="200" height="200" xmlns="http://www.w3.org/2000/svg"><g transform="scale(51.2)"><ns0:g xmlns:ns0="http://www.w3.org/2000/svg"><ns0:rect fill="none" height="20" width="20" /></ns0:g><ns0:g xmlns:ns0="http://www.w3.org/2000/svg"><ns0:path d="M8.5,3v2.5c0,0.08,0.01,0.15,0.02,0.22L6.16,8.5H4c-0.55,0-1,0.45-1,1V12c0,0.55,0.45,1,1,1h2.5c0.03,0,0.06,0,0.09,0 l5.91,3.2V17c0,0.55,0.45,1,1,1H16c0.55,0,1-0.45,1-1v-2.5c0-0.55-0.45-1-1-1h-2.5c-0.55,0-1,0.44-1,0.99l-5-2.71V9.5 c0-0.08-0.01-0.16-0.03-0.23L9.83,6.5H12c0.55,0,1-0.45,1-1V3c0-0.55-0.45-1-1-1H9.5C8.95,2,8.5,2.45,8.5,3z" /></ns0:g></g></svg>