<svg viewBox="0 0 1024 1024" width="200" height="200" xmlns="http://www.w3.org/2000/svg"><g transform="scale(42.666666666666664)"><ns0:g xmlns:ns0="http://www.w3.org/2000/svg"><ns0:rect fill="none" height="24" width="24" /></ns0:g><ns0:g xmlns:ns0="http://www.w3.org/2000/svg"><ns0:path d="M12,4h2v2h-2V4z M7,14H5v-2h2V14z M19,20h-2v-2h2V20z" opacity=".3" /><ns0:path d="M15,16v1.26l-6-3v-3.17L11.7,8H16V2h-6v4.9L7.3,10H3v6h5l7,3.5V22h6v-6H15z M12,4h2v2h-2V4z M7,14H5v-2h2V14z M19,20h-2v-2 h2V20z" /></ns0:g></g></svg>