<svg viewBox="0 0 1024 1024" width="200" height="200" xmlns="http://www.w3.org/2000/svg"><g transform="scale(51.2)"><ns0:g xmlns:ns0="http://www.w3.org/2000/svg"><ns0:rect fill="none" height="20" width="20" /></ns0:g><ns0:g xmlns:ns0="http://www.w3.org/2000/svg"><ns0:g><ns0:path d="M16,16H4c-1.1,0-2,0.9-2,2s0.9,2,2,2h12c1.1,0,2-0.9,2-2S17.1,16,16,16z" /><ns0:path d="M6.51,13L6.51,13c0.34,0,0.65-0.21,0.76-0.53l0.72-2.02h4.04l0.71,2.02c0.11,0.32,0.42,0.54,0.76,0.54 c0.56,0,0.95-0.56,0.75-1.09l-3.03-8.08C11.02,3.33,10.54,3,10,3S8.98,3.33,8.79,3.84l-3.03,8.08C5.56,12.44,5.95,13,6.51,13z M9.57,6.02l0.39-1.16h0.08l0.39,1.16l1.06,2.98H8.51L9.57,6.02z" /></ns0:g></ns0:g></g></svg>