<svg viewBox="0 0 1024 1024" width="200" height="200" xmlns="http://www.w3.org/2000/svg"><g transform="scale(42.666666666666664)"><ns0:g xmlns:ns0="http://www.w3.org/2000/svg"><ns0:rect fill="none" height="24" width="24" /></ns0:g><ns0:g xmlns:ns0="http://www.w3.org/2000/svg"><ns0:g><ns0:path d="M18 13c-2.76 0-5 2.24-5 5s2.24 5 5 5 5-2.24 5-5-2.24-5-5-5zm3 5.5h-2.5V21h-1v-2.5H15v-1h2.5V15h1v2.5H21v1z" /><ns0:rect height="2" width="13" x="7" y="5" /><ns0:circle cx="3.5" cy="18" r="1.5" /><ns0:path d="M18 11H7v2h6.11c1.26-1.24 2.99-2 4.89-2zM7 17v2h4.08c-.05-.33-.08-.66-.08-1s.03-.67.08-1H7z" /><ns0:circle cx="3.5" cy="6" r="1.5" /><ns0:circle cx="3.5" cy="12" r="1.5" /></ns0:g></ns0:g></g></svg>