<svg viewBox="0 0 1024 1024" width="200" height="200" xmlns="http://www.w3.org/2000/svg"><g transform="scale(42.666666666666664)"><ns0:g xmlns:ns0="http://www.w3.org/2000/svg"><ns0:path d="M0,0h24v24H0V0z" fill="none" /></ns0:g><ns0:g xmlns:ns0="http://www.w3.org/2000/svg"><ns0:path d="M22,2H2v20h20V2z M9,18c-0.55,0-1-0.45-1-1s0.45-1,1-1s1,0.45,1,1S9.55,18,9,18z M9,15c-0.55,0-1-0.45-1-1s0.45-1,1-1 s1,0.45,1,1S9.55,15,9,15z M12,18c-0.55,0-1-0.45-1-1s0.45-1,1-1s1,0.45,1,1S12.55,18,12,18z M12,15c-0.55,0-1-0.45-1-1s0.45-1,1-1 s1,0.45,1,1S12.55,15,12,15z M15,18c-0.55,0-1-0.45-1-1s0.45-1,1-1s1,0.45,1,1S15.55,18,15,18z M15,15c-0.55,0-1-0.45-1-1 s0.45-1,1-1s1,0.45,1,1S15.55,15,15,15z M17,12H7v-1c0-2.76,2.24-5,5-5s5,2.24,5,5V12z" /></ns0:g></g></svg>