<svg viewBox="0 0 1024 1024" width="200" height="200" xmlns="http://www.w3.org/2000/svg"><g transform="scale(42.666666666666664)"><ns0:g xmlns:ns0="http://www.w3.org/2000/svg"><ns0:path d="M0,0h24v24H0V0z" fill="none" /></ns0:g><ns0:g xmlns:ns0="http://www.w3.org/2000/svg"><ns0:circle cx="8" cy="17" r="1" /><ns0:circle cx="12" cy="17" r="1" /><ns0:circle cx="16" cy="17" r="1" /><ns0:path d="M13,5.08V4c0-0.55-0.45-1-1-1h0c-0.55,0-1,0.45-1,1v1.08C7.61,5.57,5,8.47,5,12v1c0,0.55,0.45,1,1,1h12c0.55,0,1-0.45,1-1 v-1C19,8.47,16.39,5.57,13,5.08z" /><ns0:circle cx="8" cy="20" r="1" /><ns0:circle cx="12" cy="20" r="1" /><ns0:circle cx="16" cy="20" r="1" /></ns0:g></g></svg>