<svg viewBox="0 0 1024 1024" width="200" height="200" xmlns="http://www.w3.org/2000/svg"><g transform="scale(42.666666666666664)"><ns0:g xmlns:ns0="http://www.w3.org/2000/svg"><ns0:path d="M0,0h24v24H0V0z" fill="none" /></ns0:g><ns0:g xmlns:ns0="http://www.w3.org/2000/svg"><ns0:g><ns0:path d="M12,7c-2.76,0-5,2.24-5,5h10C17,9.24,14.76,7,12,7z" opacity=".3" /><ns0:circle cx="8" cy="20" r="1" /><ns0:circle cx="16" cy="17" r="1" /><ns0:path d="M13,5.08V3h-2v2.08C7.61,5.57,5,8.47,5,12v2h14v-2C19,8.47,16.39,5.57,13,5.08z M7,12c0-2.76,2.24-5,5-5s5,2.24,5,5H7z" /><ns0:circle cx="16" cy="20" r="1" /><ns0:circle cx="12" cy="17" r="1" /><ns0:circle cx="8" cy="17" r="1" /><ns0:circle cx="12" cy="20" r="1" /></ns0:g></ns0:g></g></svg>