<svg viewBox="0 0 1024 1024" width="200" height="200" xmlns="http://www.w3.org/2000/svg"><g transform="scale(42.666666666666664)"><ns0:g xmlns:ns0="http://www.w3.org/2000/svg"><ns0:path d="M0,0h24v24H0V0z" fill="none" /></ns0:g><ns0:g xmlns:ns0="http://www.w3.org/2000/svg"><ns0:g><ns0:rect height="2" opacity=".3" width="10" x="7" y="14" /><ns0:rect height="3" opacity=".3" width="10" x="7" y="5" /><ns0:path d="M17,10c1.1,0,2-0.9,2-2V5c0-1.1-0.9-2-2-2H7C5.9,3,5,3.9,5,5v3c0,1.1,0.9,2,2,2h1v2H7c-1.1,0-2,0.9-2,2v7h2v-3h10v3h2v-7 c0-1.1-0.9-2-2-2h-1v-2H17z M17,14v2H7v-2H17z M10,12v-2h4v2H10z M7,8V5h10v3H7z" /></ns0:g></ns0:g></g></svg>