<svg viewBox="0 0 1024 1024" width="200" height="200" xmlns="http://www.w3.org/2000/svg"><g transform="scale(51.2)"><ns0:g xmlns:ns0="http://www.w3.org/2000/svg"><ns0:rect fill="none" height="20" width="20" /></ns0:g><ns0:g xmlns:ns0="http://www.w3.org/2000/svg"><ns0:g><ns0:rect height="3" opacity=".3" width="12" x="4" y="9" /><ns0:path d="M16,8V6c0-0.55-0.45-1-1-1H5C4.45,5,4,5.45,4,6v2C3.45,8,3,8.45,3,9v4h1l0.75,2h0.5L6,13h8l0.75,2h0.5L16,13h1V9 C17,8.45,16.55,8,16,8z M10.5,6H15v2h-4.5V6z M5,6h4.5v2H5V6z M16,12H4V9h12V12z" /></ns0:g></ns0:g></g></svg>