<svg viewBox="0 0 1024 1024" width="200" height="200" xmlns="http://www.w3.org/2000/svg"><g transform="scale(42.666666666666664)"><ns0:g xmlns:ns0="http://www.w3.org/2000/svg"><ns0:rect fill="none" height="24" width="24" /></ns0:g><ns0:g xmlns:ns0="http://www.w3.org/2000/svg"><ns0:g><ns0:rect height="3" opacity=".3" width="16" x="4" y="12" /><ns0:path d="M20,10V7c0-1.1-0.9-2-2-2H6C4.9,5,4,5.9,4,7v3c-1.1,0-2,0.9-2,2v5h1.33L4,19h1l0.67-2h12.67L19,19h1l0.67-2H22v-5 C22,10.9,21.1,10,20,10z M13,7h5v3h-5V7z M6,7h5v3H6V7z M20,15H4v-3h16V15z" /></ns0:g></ns0:g></g></svg>