<svg viewBox="0 0 1024 1024" width="200" height="200" xmlns="http://www.w3.org/2000/svg"><g transform="scale(51.2)"><ns0:g xmlns:ns0="http://www.w3.org/2000/svg"><ns0:rect fill="none" height="20" width="20" x="0" /></ns0:g><ns0:g xmlns:ns0="http://www.w3.org/2000/svg"><ns0:g><ns0:path d="M15,8V6c0-0.55-0.45-1-1-1H6C5.45,5,5,5.45,5,6v2C4.45,8,4,8.45,4,9v4h1l0.75,2h0.5L7,13h6l0.75,2h0.5L15,13h1V9 C16,8.45,15.55,8,15,8z M10.5,6H14v2h-3.5V6z M6,6h3.5v2H6V6z M15,12H5V9h10V12z" /></ns0:g></ns0:g></g></svg>