<svg viewBox="0 0 1024 1024" width="200" height="200" xmlns="http://www.w3.org/2000/svg"><g transform="scale(51.2)"><ns0:g xmlns:ns0="http://www.w3.org/2000/svg"><ns0:rect fill="none" height="20" width="20" /></ns0:g><ns0:g xmlns:ns0="http://www.w3.org/2000/svg"><ns0:g><ns0:path d="M8,11c2,0,6,0.96,6,2.86v1.64c0,0.28-0.22,0.5-0.5,0.5h-11C2.22,16,2,15.78,2,15.5v-1.64C2,11.96,6,11,8,11z" /><ns0:circle cx="8" cy="7" r="3" /><ns0:path d="M13.5,10h3c0.28,0,0.5-0.22,0.5-0.5v0C17,9.22,16.78,9,16.5,9h-3C13.22,9,13,9.22,13,9.5v0C13,9.78,13.22,10,13.5,10z" /></ns0:g></ns0:g></g></svg>