<svg viewBox="0 0 1024 1024" width="200" height="200" xmlns="http://www.w3.org/2000/svg"><g transform="scale(51.2)"><ns0:g xmlns:ns0="http://www.w3.org/2000/svg"><ns0:rect fill="none" height="20" width="20" /></ns0:g><ns0:g xmlns:ns0="http://www.w3.org/2000/svg"><ns0:g><ns0:path d="M10,3C7.24,3,5,5.24,5,8s2.24,5,5,5s5-2.24,5-5S12.76,3,10,3z M10,12c-2.21,0-4-1.79-4-4c0-2.21,1.79-4,4-4s4,1.79,4,4 C14,10.21,12.21,12,10,12z" /><ns0:circle cx="8.5" cy="6.5" r=".5" /><ns0:circle cx="11.5" cy="6.5" r=".5" /><ns0:circle cx="10" cy="5.5" r=".5" /><ns0:path d="M12.5,14h-5C7.22,14,7,14.22,7,14.5C7,14.78,7.22,15,7.5,15h1c0.55,0,1,0.45,1,1v1h1v-1c0-0.55,0.45-1,1-1h1 c0.28,0,0.5-0.22,0.5-0.5C13,14.22,12.78,14,12.5,14z" /></ns0:g></ns0:g></g></svg>