<svg viewBox="0 0 1024 1024" width="200" height="200" xmlns="http://www.w3.org/2000/svg"><g transform="scale(51.2)"><ns0:g xmlns:ns0="http://www.w3.org/2000/svg"><ns0:rect fill="none" height="20" width="20" x="0" /></ns0:g><ns0:g xmlns:ns0="http://www.w3.org/2000/svg"><ns0:g><ns0:path d="M10,3C7.24,3,5,5.24,5,8s2.24,5,5,5s5-2.24,5-5S12.76,3,10,3z M10,12c-2.21,0-4-1.79-4-4c0-2.21,1.79-4,4-4s4,1.79,4,4 C14,10.21,12.21,12,10,12z" /><ns0:circle cx="8.5" cy="6.5" r=".5" /><ns0:circle cx="11.5" cy="6.5" r=".5" /><ns0:circle cx="10" cy="5.5" r=".5" /><ns0:path d="M7,15h1.5c0.55,0,1,0.45,1,1v1h1v-1c0-0.55,0.45-1,1-1H13v-1H7V15z" /></ns0:g></ns0:g></g></svg>