<svg viewBox="0 0 1024 1024" width="200" height="200" xmlns="http://www.w3.org/2000/svg"><g transform="scale(51.2)"><ns0:g xmlns:ns0="http://www.w3.org/2000/svg"><ns0:rect fill="none" height="20" width="20" /></ns0:g><ns0:g xmlns:ns0="http://www.w3.org/2000/svg"><ns0:g><ns0:polygon points="16,9 16,7 15,7 15,9 13,9 13,10 15,10 15,12 16,12 16,10 18,10 18,9" /><ns0:path d="M8,11c-2,0-6,0.96-6,2.86v1.64C2,15.78,2.22,16,2.5,16h11c0.28,0,0.5-0.22,0.5-0.5v-1.64C14,11.96,10,11,8,11z" /><ns0:circle cx="8" cy="7" r="3" /></ns0:g></ns0:g></g></svg>