<svg viewBox="0 0 1024 1024" width="200" height="200" xmlns="http://www.w3.org/2000/svg"><g transform="scale(51.2)"><ns0:g xmlns:ns0="http://www.w3.org/2000/svg"><ns0:rect fill="none" height="20" width="20" /></ns0:g><ns0:g xmlns:ns0="http://www.w3.org/2000/svg"><ns0:g><ns0:circle cx="8" cy="7" opacity=".3" r="2" /><ns0:path d="M8,12c-2.2,0-5,1.04-5,1.86V15h10v-1.14C13,13.04,10.2,12,8,12z" opacity=".3" /><ns0:path d="M8,11c-2,0-6,0.96-6,2.86V16h12v-2.14C14,11.96,10,11,8,11z M13,15H3v-1.14C3,13.04,5.8,12,8,12c2.2,0,5,1.04,5,1.86V15z" /><ns0:path d="M8,10c1.66,0,3-1.34,3-3c0-1.66-1.34-3-3-3C6.34,4,5,5.34,5,7C5,8.66,6.34,10,8,10z M8,5c1.1,0,2,0.9,2,2S9.1,9,8,9 S6,8.1,6,7S6.9,5,8,5z" /><ns0:polygon points="16,9 16,7 15,7 15,9 13,9 13,10 15,10 15,12 16,12 16,10 18,10 18,9" /></ns0:g></ns0:g></g></svg>