<svg viewBox="0 0 1024 1024" width="200" height="200" xmlns="http://www.w3.org/2000/svg"><g transform="scale(51.2)"><ns0:g xmlns:ns0="http://www.w3.org/2000/svg"><ns0:rect fill="none" height="20" width="20" /></ns0:g><ns0:g xmlns:ns0="http://www.w3.org/2000/svg"><ns0:g /><ns0:g><ns0:polygon points="8,5 11,5 11,8 12,8 12,4 7,4 7,7 4,7 4,16 5,16 5,8 8,8" /><ns0:rect height="1" width="1" x="6" y="9" /><ns0:rect height="1" width="1" x="9" y="6" /><ns0:rect height="1" width="1" x="6" y="11" /><ns0:rect height="1" width="1" x="6" y="13" /><ns0:path d="M15,9H9l-1,3v2v1v1h1v-1h6v1h1v-1v-1v-2L15,9z M9.72,10h4.56l0.67,2H9.05L9.72,10z M9.5,14C9.22,14,9,13.78,9,13.5 S9.22,13,9.5,13s0.5,0.22,0.5,0.5S9.78,14,9.5,14z M14.5,14c-0.28,0-0.5-0.22-0.5-0.5s0.22-0.5,0.5-0.5s0.5,0.22,0.5,0.5 S14.78,14,14.5,14z" /></ns0:g></ns0:g></g></svg>