<svg viewBox="0 0 1024 1024" width="200" height="200" xmlns="http://www.w3.org/2000/svg"><g transform="scale(51.2)"><ns0:g xmlns:ns0="http://www.w3.org/2000/svg"><ns0:rect fill="none" height="20" width="20" /></ns0:g><ns0:g xmlns:ns0="http://www.w3.org/2000/svg"><ns0:g><ns0:circle cx="14.5" cy="5.5" r="2.5" /><ns0:path d="M12.34,11.51L5.97,5.15c-0.2-0.2-0.51-0.2-0.71,0L3.15,7.26c-0.2,0.2-0.2,0.51,0,0.71l6.36,6.36c0.2,0.2,0.51,0.2,0.71,0 l2.12-2.12C12.53,12.02,12.53,11.71,12.34,11.51z" /><ns0:path d="M12.34,13.63l-0.71,0.71l2.47,2.47c0.2,0.2,0.51,0.2,0.71,0s0.2-0.51,0-0.71L12.34,13.63z" /></ns0:g></ns0:g></g></svg>