<svg viewBox="0 0 1024 1024" width="200" height="200" xmlns="http://www.w3.org/2000/svg"><g transform="scale(51.2)"><ns0:g xmlns:ns0="http://www.w3.org/2000/svg"><ns0:rect fill="none" height="20" width="20" /></ns0:g><ns0:g xmlns:ns0="http://www.w3.org/2000/svg"><ns0:path d="M17.5,8.5h-6.75C10.11,6.48,8.24,5,6,5c-2.76,0-5,2.24-5,5s2.24,5,5,5c2.24,0,4.11-1.48,4.75-3.5h0.75L13,13l1.5-1.5L16,13 l3-3L17.5,8.5z M6,12.5c-1.38,0-2.5-1.12-2.5-2.5S4.62,7.5,6,7.5S8.5,8.62,8.5,10S7.38,12.5,6,12.5z" /></ns0:g></g></svg>