<svg viewBox="0 0 1024 1024" width="200" height="200" xmlns="http://www.w3.org/2000/svg"><g transform="scale(42.666666666666664)"><ns0:path xmlns:ns0="http://www.w3.org/2000/svg" d="M0 0h24v24H0V0z" fill="none" /><ns0:path xmlns:ns0="http://www.w3.org/2000/svg" d="M3 19.02h18V4.98H3v14.04zM12 8l4 4h-2v4h-4v-4H8l4-4z" opacity=".3" /><ns0:path xmlns:ns0="http://www.w3.org/2000/svg" d="M10 16h4v-4h2l-4-4-4 4h2zM21 3H3c-1.11 0-2 .89-2 2v14c0 1.11.89 2 2 2h18c1.11 0 2-.89 2-2V5c0-1.11-.89-2-2-2zm0 16.02H3V4.98h18v14.04z" /></g></svg>