<svg viewBox="0 0 1024 1024" width="200" height="200" xmlns="http://www.w3.org/2000/svg"><g transform="scale(51.2)"><ns0:g xmlns:ns0="http://www.w3.org/2000/svg"><ns0:rect fill="none" height="20" width="20" /><ns0:path d="M15,12.5l3,3l-3,3V16h-3v-1h3V12.5z M11,15H4V6.18L10,10l6-3.82V12h1V5c0-0.55-0.45-1-1-1H4C3.45,4,3,4.45,3,5v10 c0,0.55,0.45,1,1,1h7L11,15z M16,5l-6,3.82L4,5H16z" /><ns0:path d="M11,15H4V6.18L10,10l6-3.82V12l-2,0C12.34,12,11,13.34,11,15L11,15z M16,5l-6,3.82L4,5H16z" opacity=".3" /></ns0:g></g></svg>