<svg viewBox="0 0 1024 1024" width="200" height="200" xmlns="http://www.w3.org/2000/svg"><g transform="scale(51.2)"><ns0:g xmlns:ns0="http://www.w3.org/2000/svg"><ns0:rect fill="none" height="20" width="20" /></ns0:g><ns0:g xmlns:ns0="http://www.w3.org/2000/svg"><ns0:path d="M14.06,11.94l0.44-0.44L16,13l3-3l-1.5-1.5h-6.88L14.06,11.94z M10.33,12.46C9.48,13.97,7.87,15,6,15c-2.76,0-5-2.24-5-5 c0-1.86,1.02-3.49,2.53-4.35L1.87,3.99l1.06-1.06l14.14,14.14l-1.06,1.06L10.33,12.46z M5.44,7.56C4.33,7.82,3.5,8.81,3.5,10 c0,1.38,1.12,2.5,2.5,2.5c1.19,0,2.18-0.83,2.44-1.94L5.44,7.56z" /></ns0:g></g></svg>