<svg viewBox="0 0 1024 1024" width="200" height="200" xmlns="http://www.w3.org/2000/svg"><g transform="scale(42.666666666666664)"><ns0:g xmlns:ns0="http://www.w3.org/2000/svg"><ns0:rect fill="none" height="24" width="24" /></ns0:g><ns0:g xmlns:ns0="http://www.w3.org/2000/svg"><ns0:g><ns0:rect height="1" width="2" x="15.5" y="10.5" /><ns0:path d="M20,4H4C2.9,4,2,4.9,2,6v12c0,1.1,0.9,2,2,2h16c1.1,0,2-0.9,2-2V6C22,4.9,21.1,4,20,4z M10,10.5H6.5v0.75H10V15H5v-1.5 h3.5v-0.75H5V9h5V10.5z M13,15h-2V9h2V15z M19,9v4h-3.5v2H14V9H19z" /></ns0:g></ns0:g></g></svg>