<svg viewBox="0 0 1024 1024" width="200" height="200" xmlns="http://www.w3.org/2000/svg"><g transform="scale(51.2)"><ns0:g xmlns:ns0="http://www.w3.org/2000/svg"><ns0:rect fill="none" height="20" width="20" /></ns0:g><ns0:g xmlns:ns0="http://www.w3.org/2000/svg"><ns0:g><ns0:path d="M19,10c0-1.1-0.9-2-2-2V3h-5c0-1.1-0.9-2-2-2S8,1.9,8,3H3v5c1.1,0,2,0.9,2,2s-0.9,2-2,2v5h5c0-0.93,0.64-1.71,1.5-1.93 v-7.5l8.4,4.2C18.55,11.44,19,10.78,19,10z" /><ns0:polygon points="11,13 14,14 11,15 11,18 19,14 11,10" /></ns0:g></ns0:g></g></svg>