<svg viewBox="0 0 1024 1024" width="200" height="200" xmlns="http://www.w3.org/2000/svg"><g transform="scale(51.2)"><ns0:g xmlns:ns0="http://www.w3.org/2000/svg"><ns0:rect fill="none" height="20" width="20" /></ns0:g><ns0:g xmlns:ns0="http://www.w3.org/2000/svg"><ns0:g><ns0:rect height="3" width="3" x="8.5" y="4" /><ns0:rect height="3" width="3" x="4" y="13" /><ns0:rect height="3" width="3" x="4" y="8.5" /><ns0:rect height="3" width="3" x="4" y="4" /><ns0:path d="M16.41,9.47l-0.88-0.88c-0.12-0.12-0.32-0.12-0.44,0l-0.66,0.66l1.31,1.31l0.66-0.66C16.53,9.78,16.53,9.59,16.41,9.47z" /><ns0:polygon points="9,14.69 9,16 10.31,16 15.31,11 14,9.69" /><ns0:polygon points="11.5,10.77 11.5,8.5 8.5,8.5 8.5,11.5 10.77,11.5" /><ns0:rect height="3" width="3" x="13" y="4" /></ns0:g></ns0:g></g></svg>