<svg viewBox="0 0 1024 1024" width="200" height="200" xmlns="http://www.w3.org/2000/svg"><g transform="scale(51.2)"><ns0:g xmlns:ns0="http://www.w3.org/2000/svg"><ns0:rect fill="none" height="20" width="20" /></ns0:g><ns0:g xmlns:ns0="http://www.w3.org/2000/svg"><ns0:g><ns0:g><ns0:rect height="3" width="3" x="8.5" y="4" /></ns0:g><ns0:g><ns0:rect height="3" width="3" x="4" y="13" /></ns0:g><ns0:g><ns0:rect height="3" width="3" x="4" y="8.5" /></ns0:g><ns0:g><ns0:rect height="3" width="3" x="4" y="4" /></ns0:g><ns0:g><ns0:rect height="3" width="3" x="13" y="4" /></ns0:g><ns0:g><ns0:polygon points="9,14.49 9,16 10.51,16 15.4,11.1 13.9,9.6" /></ns0:g><ns0:g><ns0:polygon points="11.5,9.88 11.5,8.5 8.5,8.5 8.5,11.5 9.87,11.5" /></ns0:g><ns0:g><ns0:path d="M16.85,8.94l-0.79-0.79c-0.2-0.2-0.51-0.2-0.71,0L14.6,8.9l1.5,1.5l0.75-0.75C17.05,9.45,17.05,9.13,16.85,8.94z" /></ns0:g></ns0:g></ns0:g></g></svg>