<svg viewBox="0 0 1024 1024" width="200" height="200" xmlns="http://www.w3.org/2000/svg"><g transform="scale(42.666666666666664)"><ns0:g xmlns:ns0="http://www.w3.org/2000/svg"><ns0:rect fill="none" height="24" width="24" /></ns0:g><ns0:g xmlns:ns0="http://www.w3.org/2000/svg"><ns0:g><ns0:g><ns0:path d="M22,9.97V4H2.01L2,20h14v-5.03c0-2.76,2.24-5,5-5H22z M20,8l-8,5L4,8V6l8,5l8-5V8z" /></ns0:g><ns0:g><ns0:path d="M23,15v-0.89c0-1-0.68-1.92-1.66-2.08C20.08,11.82,19,12.79,19,14v1h-1v5h6v-5H23z M22,15h-2v-1c0-0.55,0.45-1,1-1 s1,0.45,1,1V15z" /></ns0:g></ns0:g></ns0:g></g></svg>