<svg viewBox="0 0 1024 1024" width="200" height="200" xmlns="http://www.w3.org/2000/svg"><g transform="scale(42.666666666666664)"><ns0:g xmlns:ns0="http://www.w3.org/2000/svg"><ns0:rect fill="none" height="24" width="24" /></ns0:g><ns0:g xmlns:ns0="http://www.w3.org/2000/svg"><ns0:g><ns0:path d="M17,18H7V6h10v1h2V3c0-1.1-0.9-2-2-2L7,1.01C5.9,1.01,5,1.9,5,3v18c0,1.1,0.9,2,2,2h10c1.1,0,2-0.9,2-2v-4h-2V18z" /><ns0:path d="M20,11v-1c0-1.1-0.9-2-2-2s-2,0.9-2,2v1c-0.55,0-1,0.45-1,1v3c0,0.55,0.45,1,1,1h4c0.55,0,1-0.45,1-1v-3 C21,11.45,20.55,11,20,11z M19,11h-2v-1c0-0.55,0.45-1,1-1s1,0.45,1,1V11z" /></ns0:g></ns0:g></g></svg>