<svg viewBox="0 0 1024 1024" width="200" height="200" xmlns="http://www.w3.org/2000/svg"><g transform="scale(51.2)"><ns0:g xmlns:ns0="http://www.w3.org/2000/svg"><ns0:rect fill="none" height="20" width="20" /><ns0:path d="M14.11,14.65c-0.2,0.2-0.51,0.2-0.71,0l-1.41-1.41c-0.2-0.2-0.2-0.51,0-0.71v0c0.2-0.2,0.51-0.2,0.71,0l1.06,1.06 l3.18-3.18c0.2-0.2,0.51-0.2,0.71,0l0,0c0.2,0.2,0.2,0.51,0,0.71L14.11,14.65z M10,13c0-2.76,2.24-5,5-5c0.71,0,1.39,0.15,2,0.42V4 c0-0.55-0.45-1-1-1H4C3.45,3,3,3.45,3,4v13l3-3h4.1C10.04,13.68,10,13.34,10,13z" /></ns0:g></g></svg>