<svg viewBox="0 0 1024 1024" width="200" height="200" xmlns="http://www.w3.org/2000/svg"><g transform="scale(51.2)"><ns0:g xmlns:ns0="http://www.w3.org/2000/svg"><ns0:rect fill="none" height="20" width="20" /></ns0:g><ns0:g xmlns:ns0="http://www.w3.org/2000/svg"><ns0:g><ns0:path d="M15,6h-3v1h2v1.79L10.79,12H9V8H6c-1.66,0-3,1.34-3,3v2h2c0,1.1,0.9,2,2,2s2-0.9,2-2h2.21L15,9.21V6z M7,14 c-0.55,0-1-0.45-1-1h2C8,13.55,7.55,14,7,14z" /><ns0:rect height="1" width="4" x="5" y="6" /><ns0:path d="M15,11c-1.1,0-2,0.9-2,2c0,1.1,0.9,2,2,2s2-0.9,2-2C17,11.9,16.1,11,15,11z M15,14c-0.55,0-1-0.45-1-1c0-0.55,0.45-1,1-1 s1,0.45,1,1C16,13.55,15.55,14,15,14z" /></ns0:g></ns0:g></g></svg>