<svg viewBox="0 0 1024 1024" width="200" height="200" xmlns="http://www.w3.org/2000/svg"><g transform="scale(42.666666666666664)"><ns0:g xmlns:ns0="http://www.w3.org/2000/svg"><ns0:rect fill="none" height="24" width="24" /></ns0:g><ns0:g xmlns:ns0="http://www.w3.org/2000/svg"><ns0:g><ns0:polygon opacity=".3" points="13.51,5 10.49,5 9.89,7 14.11,7" /><ns0:polygon opacity=".3" points="14.71,9 9.29,9 8.69,11 15.31,11" /><ns0:polygon opacity=".3" points="15.91,13 8.09,13 7.49,15 4,15 4,20 9,20 9,15 15,15 15,20 20,20 20,15 16.51,15" /><ns0:path d="M20 11v2h-2L15 3V1h-2v2h-2.03V1h-2v2.12L6 13H4v-2H2v11h9v-5h2v5h9V11h-2zm-9.51-6h3.02l.6 2H9.89l.6-2zm-1.2 4h5.42l.6 2H8.69l.6-2zM20 20h-5v-5H9v5H4v-5h3.49l.6-2h7.82l.6 2H20v5z" /></ns0:g></ns0:g></g></svg>