<svg viewBox="0 0 1024 1024" width="200" height="200" xmlns="http://www.w3.org/2000/svg"><g transform="scale(51.2)"><ns0:g xmlns:ns0="http://www.w3.org/2000/svg"><ns0:rect fill="none" height="20" width="20" /></ns0:g><ns0:g xmlns:ns0="http://www.w3.org/2000/svg"><ns0:path d="M16,7l-2-4H6L4,7v6h2v-1h8v1h2V7z M6.62,4h6.76l1.5,3H5.12L6.62,4z M6,10c-0.55,0-1-0.45-1-1c0-0.55,0.45-1,1-1s1,0.45,1,1 C7,9.55,6.55,10,6,10z M14,10c-0.55,0-1-0.45-1-1c0-0.55,0.45-1,1-1s1,0.45,1,1C15,9.55,14.55,10,14,10z" /><ns0:polygon points="7,15 9.5,15 9.5,14 13,16 10.5,16 10.5,17" /></ns0:g></g></svg>