<svg viewBox="0 0 1024 1024" width="200" height="200" xmlns="http://www.w3.org/2000/svg"><g transform="scale(51.2)"><ns0:g xmlns:ns0="http://www.w3.org/2000/svg"><ns0:rect fill="none" height="20" width="20" x="0" /></ns0:g><ns0:g xmlns:ns0="http://www.w3.org/2000/svg"><ns0:g><ns0:circle cx="13" cy="9.5" r="1" /><ns0:circle cx="7" cy="9.5" r="1" /><ns0:path d="M14.28,3.55C14.11,3.21,13.76,3,13.38,3H6.62C6.24,3,5.89,3.21,5.72,3.55L4,7v5.5C4,12.78,4.22,13,4.5,13h1 C5.78,13,6,12.78,6,12.5V12h8v0.5c0,0.28,0.22,0.5,0.5,0.5h1c0.28,0,0.5-0.22,0.5-0.5V7L14.28,3.55z M6.62,4h6.76l1.5,3H5.12 L6.62,4z M15,11H5V8h10V11z" /></ns0:g><ns0:polygon points="7,15 9.5,15 9.5,14 13,16 10.5,16 10.5,17" /></ns0:g></g></svg>