<svg viewBox="0 0 1024 1024" width="200" height="200" xmlns="http://www.w3.org/2000/svg"><g transform="scale(42.666666666666664)"><ns0:g xmlns:ns0="http://www.w3.org/2000/svg"><ns0:rect fill="none" height="24" width="24" /></ns0:g><ns0:g xmlns:ns0="http://www.w3.org/2000/svg"><ns0:path d="M16,13c2.21,0,4-1.79,4-4s-1.79-4-4-4c-2.21,0-4,1.79-4,4l0,1l-6.17,0l1.59,1.59L6,13L2,9l4-4l1.41,1.41L5.83,8l4.25,0 c0.48-2.84,2.94-5,5.92-5c3.31,0,6,2.69,6,6c0,2.97-2.16,5.44-5,5.92L17,21h-2l0-8L16,13z" /></ns0:g></g></svg>