<svg viewBox="0 0 1024 1024" width="200" height="200" xmlns="http://www.w3.org/2000/svg"><g transform="scale(51.2)"><ns0:g xmlns:ns0="http://www.w3.org/2000/svg"><ns0:rect fill="none" height="20" width="20" /></ns0:g><ns0:g xmlns:ns0="http://www.w3.org/2000/svg"><ns0:g><ns0:path d="M15.6,7.6C14,6,13.19,2,8.38,2C4.36,2,1.95,5.2,2,9.62S5.97,16,8.38,16c1.61,0,1.61,2,4.82,2C15.6,18,18,15.6,18,12.42 C18,10,17.21,9.2,15.6,7.6z M10,12.5c-1.38,0-2.5-1.12-2.5-2.5c0-1.38,1.12-2.5,2.5-2.5s2.5,1.12,2.5,2.5 C12.5,11.38,11.38,12.5,10,12.5z" /></ns0:g></ns0:g></g></svg>