<svg viewBox="0 0 1024 1024" width="200" height="200" xmlns="http://www.w3.org/2000/svg"><g transform="scale(51.2)"><ns0:g xmlns:ns0="http://www.w3.org/2000/svg"><ns0:rect fill="none" height="20" width="20" y="0" /></ns0:g><ns0:g xmlns:ns0="http://www.w3.org/2000/svg"><ns0:g><ns0:path d="M14.92,5.16C14.51,2.8,12.47,1,10,1S5.49,2.8,5.08,5.16C3.88,5.55,3,6.66,3,8c0,1.66,1.34,3,3,3c0.02,0,0.03,0,0.04,0 l3.06,6.19c0.37,0.74,1.43,0.74,1.79,0L13.96,11c0.01,0,0.03,0,0.04,0c1.66,0,3-1.34,3-3C17,6.66,16.12,5.55,14.92,5.16z M10,15.61l-2.49-5.04c0.16-0.1,0.07-0.08,0.37-0.08C8.53,10.81,9.24,11,10,11s1.47-0.19,2.12-0.5c0.3,0,0.21-0.02,0.37,0.08 L10,15.61z" /></ns0:g></ns0:g></g></svg>