<svg viewBox="0 0 1024 1024" width="200" height="200" xmlns="http://www.w3.org/2000/svg"><g transform="scale(42.666666666666664)"><ns0:g xmlns:ns0="http://www.w3.org/2000/svg"><ns0:rect fill="none" height="24" width="24" /><ns0:rect fill="none" height="24" width="24" /></ns0:g><ns0:g xmlns:ns0="http://www.w3.org/2000/svg"><ns0:g><ns0:g><ns0:path d="M17,16c-0.55,0-1-0.45-1-1H8c0,0.55-0.45,1-1,1s-1-0.45-1-1H2v3c0,1.1,0.9,2,2,2h16c1.1,0,2-0.9,2-2v-3h-4 C18,15.55,17.55,16,17,16z" /></ns0:g><ns0:path d="M20,8h-3V6c0-1.1-0.9-2-2-2H9C7.9,4,7,4.9,7,6v2H4c-1.1,0-2,0.9-2,2v4h4v-1c0-0.55,0.45-1,1-1s1,0.45,1,1v1h8v-1 c0-0.55,0.45-1,1-1s1,0.45,1,1v1h4v-4C22,8.9,21.1,8,20,8z M15,8H9V6h6V8z" /></ns0:g></ns0:g></g></svg>