<svg viewBox="0 0 1024 1024" width="200" height="200" xmlns="http://www.w3.org/2000/svg"><g transform="scale(51.2)"><ns0:g xmlns:ns0="http://www.w3.org/2000/svg"><ns0:rect fill="none" height="20" width="20" /></ns0:g><ns0:g xmlns:ns0="http://www.w3.org/2000/svg"><ns0:g><ns0:g><ns0:polygon points="14,13 13,13 13,12 7,12 7,13 6,13 6,12 3,12 3,16 17,16 17,12 14,12" /></ns0:g><ns0:path d="M16,7h-3V5c0-0.55-0.45-1-1-1H8C7.45,4,7,4.45,7,5v2H4C3.45,7,3,7.45,3,8v3h3v-1h1v1h6v-1h1v1h3V8C17,7.45,16.55,7,16,7z M12,7H8V5h4V7z" /></ns0:g></ns0:g></g></svg>