<svg viewBox="0 0 1024 1024" width="200" height="200" xmlns="http://www.w3.org/2000/svg"><g transform="scale(42.666666666666664)"><ns0:g xmlns:ns0="http://www.w3.org/2000/svg"><ns0:rect fill="none" height="24" width="24" /></ns0:g><ns0:g xmlns:ns0="http://www.w3.org/2000/svg"><ns0:g><ns0:rect height="2" width="15" x="2" y="4" /><ns0:path d="M15,17h2v-3h1v-2l-1-5H2l-1,5v2h1v6h9v-6h4V17z M9,18H4v-4h5V18z M3.04,12l0.6-3h11.72l0.6,3H3.04z" /><ns0:polygon points="23,18 20,18 20,15 18,15 18,18 15,18 15,20 18,20 18,23 20,23 20,20 23,20" /></ns0:g></ns0:g></g></svg>