<svg viewBox="0 0 1024 1024" width="200" height="200" xmlns="http://www.w3.org/2000/svg"><g transform="scale(42.666666666666664)"><ns0:g xmlns:ns0="http://www.w3.org/2000/svg"><ns0:rect fill="none" height="24" width="24" /><ns0:rect fill="none" height="24" width="24" /></ns0:g><ns0:g xmlns:ns0="http://www.w3.org/2000/svg"><ns0:path d="M16,6.83l-0.88,0.88c-0.39,0.39-1.02,0.39-1.41,0c-0.39-0.39-0.39-1.02,0-1.41l2.59-2.59c0.39-0.39,1.02-0.39,1.41,0 l2.59,2.59c0.39,0.39,0.39,1.02,0,1.41c-0.39,0.39-1.02,0.39-1.41,0L18,6.83V13c0,1.1-0.9,2-2,2H8v5c0,0.55-0.45,1-1,1h0 c-0.55,0-1-0.45-1-1v-5c0-1.1,0.9-2,2-2h8V6.83L16,6.83z" /></ns0:g></g></svg>