<svg viewBox="0 0 1024 1024" width="200" height="200" xmlns="http://www.w3.org/2000/svg"><g transform="scale(42.666666666666664)"><ns0:rect xmlns:ns0="http://www.w3.org/2000/svg" fill="none" height="24" width="24" y="0" /><ns0:path xmlns:ns0="http://www.w3.org/2000/svg" d="M14.05,6L5.8,18h11.54l2.25-12H14.05z M14.5,14c-1.38,0-2.5-1.12-2.5-2.5c0-1.38,1.12-2.5,2.5-2.5 s2.5,1.12,2.5,2.5C17,12.88,15.88,14,14.5,14z" opacity=".3" /><ns0:path xmlns:ns0="http://www.w3.org/2000/svg" d="M17.34,18H5.8l8.25-12h5.54L17.34,18z M13,4L2,20h17l3-16H13z M14.5,9c-1.38,0-2.5,1.12-2.5,2.5s1.12,2.5,2.5,2.5 s2.5-1.12,2.5-2.5S15.88,9,14.5,9z" /></g></svg>