<svg viewBox="0 0 1024 1024" width="200" height="200" xmlns="http://www.w3.org/2000/svg"><g transform="scale(51.2)"><ns0:g xmlns:ns0="http://www.w3.org/2000/svg"><ns0:rect fill="none" height="20" width="20" /></ns0:g><ns0:g xmlns:ns0="http://www.w3.org/2000/svg"><ns0:path d="M11.75,16C11.34,16,11,15.66,11,15.25v-4.69l-4-4L7,7.5c0,0.41-0.34,0.75-0.75,0.75C5.84,8.25,5.5,7.91,5.5,7.5l0-2.5 c0-0.55,0.45-1,1-1L9,4c0.41,0,0.75,0.34,0.75,0.75C9.75,5.16,9.41,5.5,9,5.5l-0.94,0l4,4c0.28,0.28,0.44,0.66,0.44,1.06v4.69 C12.5,15.66,12.16,16,11.75,16z" /></ns0:g></g></svg>