<svg viewBox="0 0 1024 1024" width="200" height="200" xmlns="http://www.w3.org/2000/svg"><g transform="scale(51.2)"><ns0:g xmlns:ns0="http://www.w3.org/2000/svg"><ns0:rect fill="none" height="20" width="20" /></ns0:g><ns0:g xmlns:ns0="http://www.w3.org/2000/svg"><ns0:g><ns0:path d="M16,6h-3V4c0-0.55-0.45-1-1-1H8C7.45,3,7,3.45,7,4v2H4C3.45,6,3,6.45,3,7v9c0,0.55,0.45,1,1,1h12c0.55,0,1-0.45,1-1V7 C17,6.45,16.55,6,16,6z M8,4h4v2H8V4z M12.5,12h-2v2h-1v-2h-2v-1h2V9h1v2h2V12z" /></ns0:g></ns0:g></g></svg>