<svg viewBox="0 0 1024 1024" width="200" height="200" xmlns="http://www.w3.org/2000/svg"><g transform="scale(51.2)"><ns0:g xmlns:ns0="http://www.w3.org/2000/svg"><ns0:rect fill="none" height="20" width="20" /></ns0:g><ns0:g xmlns:ns0="http://www.w3.org/2000/svg"><ns0:path d="M16.5,6h-4.25V3.5c0-0.83-0.67-1.5-1.5-1.5h-1.5c-0.83,0-1.5,0.67-1.5,1.5V6H3.5C2.67,6,2,6.67,2,7.5v9 C2,17.33,2.67,18,3.5,18h13c0.83,0,1.5-0.67,1.5-1.5v-9C18,6.67,17.33,6,16.5,6z M9.25,13.25H7.5V15H6v-1.75H4.25v-1.5H6V10h1.5 v1.75h1.75V13.25z M9.25,3.5h1.5v4h-1.5V3.5z M14,14.5h-3.25v-1H14V14.5z M15.75,12h-5v-1h5V12z" /></ns0:g></g></svg>