<svg viewBox="0 0 1024 1024" width="200" height="200" xmlns="http://www.w3.org/2000/svg"><g transform="scale(42.666666666666664)"><ns0:g xmlns:ns0="http://www.w3.org/2000/svg"><ns0:rect fill="none" height="24" width="24" /></ns0:g><ns0:g xmlns:ns0="http://www.w3.org/2000/svg"><ns0:g><ns0:path d="M19,15.18V3h-8v16H7V8.82C8.16,8.4,9,7.3,9,6c0-1.66-1.34-3-3-3S3,4.34,3,6c0,1.3,0.84,2.4,2,2.82V21h8V5h4v10.18 c-1.16,0.41-2,1.51-2,2.82c0,1.66,1.34,3,3,3s3-1.34,3-3C21,16.7,20.16,15.6,19,15.18z" /></ns0:g></ns0:g></g></svg>