<svg viewBox="0 0 1024 1024" width="200" height="200" xmlns="http://www.w3.org/2000/svg"><g transform="scale(51.2)"><ns0:g xmlns:ns0="http://www.w3.org/2000/svg"><ns0:rect fill="none" height="20" width="20" /></ns0:g><ns0:g xmlns:ns0="http://www.w3.org/2000/svg"><ns0:g><ns0:g><ns0:path d="M17.5,7.01C17.5,8.11,16.61,9,15.52,9H4.48C3.39,9,2.5,8.11,2.5,7.01H1c0,1.76,1.31,3.2,3,3.44V18h4v-2c0-1.1,0.9-2,2-2 s2,0.9,2,2v2h4v-7.55c0.55-0.08,3-0.77,3-3.45L17.5,7.01z" /></ns0:g><ns0:g><ns0:polygon points="10,1 6.92,5 13.08,5" /></ns0:g><ns0:g><ns0:path d="M5,7.16V8h10V7.16c1.89-0.9,2-2.74,2-3.16l-1.5,0.01c0,1.08-0.88,1.97-1.96,1.98H6.46C5.38,5.98,4.5,5.1,4.5,4.02L3,4 C3,4.42,3.11,6.26,5,7.16z" /></ns0:g></ns0:g></ns0:g></g></svg>