<svg viewBox="0 0 1024 1024" width="200" height="200" xmlns="http://www.w3.org/2000/svg"><g transform="scale(51.2)"><ns0:g xmlns:ns0="http://www.w3.org/2000/svg"><ns0:rect fill="none" height="20" width="20" y="0" /></ns0:g><ns0:g xmlns:ns0="http://www.w3.org/2000/svg"><ns0:g><ns0:g><ns0:polygon points="9,10 10.41,10 15.44,4.97 14.03,3.56 9,8.59" /></ns0:g><ns0:g><ns0:path d="M11.04,11.5H7.5V7.96l5.32-5.32C11.96,2.24,11.01,2,10,2C6.41,2,3.5,4.91,3.5,8.5C3.5,12.84,10,18,10,18 s6.5-5.16,6.5-9.5c0-0.74-0.13-1.45-0.36-2.11L11.04,11.5z" /></ns0:g><ns0:g><ns0:rect height="2" transform="matrix(0.7071 -0.7071 0.7071 0.7071 2.5347 12.1798)" width="1.5" x="15.22" y="2.03" /></ns0:g></ns0:g></ns0:g></g></svg>