<svg viewBox="0 0 1024 1024" width="200" height="200" xmlns="http://www.w3.org/2000/svg"><g transform="scale(51.2)"><ns0:g xmlns:ns0="http://www.w3.org/2000/svg"><ns0:rect fill="none" height="20" width="20" y="0" /></ns0:g><ns0:g xmlns:ns0="http://www.w3.org/2000/svg"><ns0:g><ns0:g><ns0:polygon points="9,10 10.41,10 15.44,4.97 14.03,3.56 9,8.59" /></ns0:g><ns0:g><ns0:path d="M14.91,7.62C14.96,7.91,15,8.2,15,8.5c0,2.47-3.1,5.8-5,7.53C8.1,14.3,5,10.97,5,8.5c0-2.76,2.24-5,5-5 c0.58,0,1.14,0.12,1.66,0.3l1.16-1.16C11.96,2.24,11.01,2,10,2C6.41,2,3.5,4.91,3.5,8.5C3.5,12.84,10,18,10,18s6.5-5.16,6.5-9.5 c0-0.74-0.13-1.45-0.36-2.11L14.91,7.62z" /></ns0:g><ns0:g><ns0:path d="M16.85,2.85l-0.71-0.71c-0.2-0.2-0.51-0.2-0.71,0l-0.71,0.71l1.41,1.41l0.71-0.71C17.05,3.37,17.05,3.05,16.85,2.85z" /></ns0:g></ns0:g></ns0:g></g></svg>