<svg viewBox="0 0 1024 1024" width="200" height="200" xmlns="http://www.w3.org/2000/svg"><g transform="scale(42.666666666666664)"><ns0:rect xmlns:ns0="http://www.w3.org/2000/svg" fill="none" height="24" width="24" /><ns0:path xmlns:ns0="http://www.w3.org/2000/svg" d="M7,3C6.45,3,6,3.45,6,4l0,5c0,2.97,2.16,5.43,5,5.91V19H9c-0.55,0-1,0.45-1,1v0c0,0.55,0.45,1,1,1h6c0.55,0,1-0.45,1-1v0 c0-0.55-0.45-1-1-1h-2v-4.09c2.84-0.48,5-2.94,5-5.91l0-5c0-0.55-0.45-1-1-1H7z M16,8H8l0-3h8C16,5,16,8,16,8z" /></g></svg>