<svg viewBox="0 0 1024 1024" width="200" height="200" xmlns="http://www.w3.org/2000/svg"><g transform="scale(51.2)"><ns0:g xmlns:ns0="http://www.w3.org/2000/svg"><ns0:rect fill="none" height="20" width="20" /></ns0:g><ns0:g xmlns:ns0="http://www.w3.org/2000/svg"><ns0:path d="M17,12v7h-2v-1.5H5V19H3l0-7l2-5h10L17,12z M6.02,8.5l-1,2.5h9.97l-1-2.5H6.02z M6.5,13.25c-0.55,0-1,0.45-1,1s0.45,1,1,1 c0.55,0,1-0.45,1-1S7.05,13.25,6.5,13.25z M13.5,13.25c-0.55,0-1,0.45-1,1s0.45,1,1,1c0.55,0,1-0.45,1-1S14.05,13.25,13.5,13.25z M6.95,5.75L8,4.7L5.65,2.35L4.6,3.4L6.95,5.75z M15.4,3.4l-1.05-1.05L12,4.7l1.05,1.05L15.4,3.4z M10.75,4.7h-1.5V1h1.5V4.7z" /></ns0:g></g></svg>