<svg viewBox="0 0 1024 1024" width="200" height="200" xmlns="http://www.w3.org/2000/svg"><g transform="scale(51.2)"><ns0:g xmlns:ns0="http://www.w3.org/2000/svg"><ns0:rect fill="none" height="20" width="20" /></ns0:g><ns0:g xmlns:ns0="http://www.w3.org/2000/svg"><ns0:g><ns0:g><ns0:polygon points="9,17 6,17 11,19.5 11,17.5 14,17.5 9,15" /></ns0:g><ns0:g><ns0:path d="M17,10.05V8l-4-5H1v9.5h2C3,13.88,4.12,15,5.5,15S8,13.88,8,12.5h6c0,1.38,1.12,2.5,2.5,2.5s2.5-1.12,2.5-2.5 C19,11.29,18.14,10.28,17,10.05z M2.5,8V4.5h3.75V8H2.5z M5.5,13.5c-0.55,0-1-0.45-1-1s0.45-1,1-1s1,0.45,1,1S6.05,13.5,5.5,13.5 z M11.5,11H7.75V9.5H10V8H7.75V4.5h3.75V11z M13,8V5.4L15.08,8H13z M16.5,13.5c-0.55,0-1-0.45-1-1s0.45-1,1-1s1,0.45,1,1 S17.05,13.5,16.5,13.5z" /></ns0:g></ns0:g></ns0:g></g></svg>