<svg viewBox="0 0 1024 1024" width="200" height="200" xmlns="http://www.w3.org/2000/svg"><g transform="scale(42.666666666666664)"><ns0:g xmlns:ns0="http://www.w3.org/2000/svg"><ns0:rect fill="none" height="24" width="24" /></ns0:g><ns0:g xmlns:ns0="http://www.w3.org/2000/svg"><ns0:g><ns0:path d="M18,7V4c0-0.55-0.45-1-1-1H7C6.45,3,6,3.45,6,4v3H18z" /><ns0:path d="M19,8H5c-1.66,0-3,1.34-3,3v5c0,0.55,0.45,1,1,1h3v2c0,1.1,0.9,2,2,2h8c1.1,0,2-0.9,2-2v-2h3c0.55,0,1-0.45,1-1v-5 C22,9.34,20.66,8,19,8z M16,19H8v-4h8V19z M18,12.5c-0.55,0-1-0.45-1-1s0.45-1,1-1s1,0.45,1,1S18.55,12.5,18,12.5z" /></ns0:g></ns0:g></g></svg>