<svg viewBox="0 0 1024 1024" width="200" height="200" xmlns="http://www.w3.org/2000/svg"><g transform="scale(51.2)"><ns0:g xmlns:ns0="http://www.w3.org/2000/svg"><ns0:rect fill="none" height="20" width="20" y="0" /></ns0:g><ns0:g xmlns:ns0="http://www.w3.org/2000/svg"><ns0:g><ns0:rect height="1.5" width="4" x="4" y="5.5" /><ns0:path d="M15.5,8.46V5h-4v1.5H14v1.41l-3,3.59H8V8H2v5h1.5c0,1.38,1.12,2.5,2.5,2.5s2.5-1.12,2.5-2.5h3.2L15.5,8.46z M6,14 c-0.55,0-1-0.45-1-1h2C7,13.55,6.55,14,6,14z" /><ns0:path d="M15.5,10.5c-1.38,0-2.5,1.12-2.5,2.5s1.12,2.5,2.5,2.5S18,14.38,18,13S16.88,10.5,15.5,10.5z M15.5,14c-0.55,0-1-0.45-1-1 s0.45-1,1-1s1,0.45,1,1S16.05,14,15.5,14z" /></ns0:g></ns0:g></g></svg>