<svg viewBox="0 0 1024 1024" width="200" height="200" xmlns="http://www.w3.org/2000/svg"><g transform="scale(51.2)"><ns0:g xmlns:ns0="http://www.w3.org/2000/svg"><ns0:rect fill="none" height="20" width="20" /></ns0:g><ns0:g xmlns:ns0="http://www.w3.org/2000/svg"><ns0:path d="M6.53,10.72c0.29-0.29,0.29-0.77,0-1.06L5.87,9L12,9v6.25c0,0.41,0.34,0.75,0.75,0.75s0.75-0.34,0.75-0.75V9 c0-0.83-0.67-1.5-1.5-1.5l-6.13,0l0.66-0.66c0.29-0.29,0.29-0.77,0-1.06c-0.29-0.29-0.77-0.29-1.06,0L3.71,7.54 c-0.39,0.39-0.39,1.02,0,1.41l1.76,1.76C5.76,11.01,6.24,11.01,6.53,10.72z" /></ns0:g></g></svg>