<svg viewBox="0 0 1024 1024" width="200" height="200" xmlns="http://www.w3.org/2000/svg"><g transform="scale(42.666666666666664)"><ns0:g xmlns:ns0="http://www.w3.org/2000/svg"><ns0:rect fill="none" height="24" width="24" x="0" /><ns0:g><ns0:path d="M17,1H7C5.9,1,5,1.9,5,3v18c0,1.1,0.9,2,2,2h10c1.1,0,2-0.9,2-2V3C19,1.9,18.1,1,17,1z M16,19H8c-0.55,0-1-0.45-1-1V6 c0-0.55,0.45-1,1-1h8c0.55,0,1,0.45,1,1v12C17,18.55,16.55,19,16,19z" /><ns0:path d="M15,6H9C8.45,6,8,6.45,8,7v0c0,0.55,0.45,1,1,1h6c0.55,0,1-0.45,1-1v0C16,6.45,15.55,6,15,6z" /></ns0:g></ns0:g></g></svg>