<svg viewBox="0 0 1024 1024" width="200" height="200" xmlns="http://www.w3.org/2000/svg"><g transform="scale(42.666666666666664)"><ns0:g xmlns:ns0="http://www.w3.org/2000/svg"><ns0:path d="M0,0h24v24H0V0z" fill="none" /></ns0:g><ns0:g xmlns:ns0="http://www.w3.org/2000/svg"><ns0:g><ns0:path d="M11,13V9c0-0.55-0.45-1-1-1H6V6h5V4H8.5V3h-2v1H5C4.45,4,4,4.45,4,5v4c0,0.55,0.45,1,1,1h4v2H4v2h2.5v1h2v-1H10 C10.55,14,11,13.55,11,13z" /><ns0:polygon points="19.59,12.52 13.93,18.17 11.1,15.34 9.69,16.76 13.93,21 21,13.93" /></ns0:g></ns0:g></g></svg>