<svg viewBox="0 0 1024 1024" width="200" height="200" xmlns="http://www.w3.org/2000/svg"><g transform="scale(51.2)"><ns0:g xmlns:ns0="http://www.w3.org/2000/svg"><ns0:rect fill="none" height="20" width="20" /></ns0:g><ns0:g xmlns:ns0="http://www.w3.org/2000/svg"><ns0:g><ns0:path d="M16.5,3h-13C2.67,3,2,3.67,2,4.5v9C2,14.33,2.67,15,3.5,15H7v2h6v-2h3.5c0.83,0,1.5-0.67,1.5-1.5v-9 C18,3.67,17.33,3,16.5,3z M16.5,13.5h-13v-9h13V13.5z" /><ns0:polygon points="5.5,6.5 7.5,6.5 7.5,5.5 4.5,5.5 4.5,8.5 5.5,8.5" /><ns0:polygon points="15.5,9.5 14.5,9.5 14.5,11.5 12.5,11.5 12.5,12.5 15.5,12.5" /></ns0:g></ns0:g></g></svg>