<svg viewBox="0 0 1024 1024" width="200" height="200" xmlns="http://www.w3.org/2000/svg"><g transform="scale(51.2)"><ns0:g xmlns:ns0="http://www.w3.org/2000/svg"><ns0:rect fill="none" height="20" width="20" /></ns0:g><ns0:g xmlns:ns0="http://www.w3.org/2000/svg"><ns0:path d="M15.5,14.5v2h-3v-2H15.5z M8.5,5.5v-2h3v2H8.5z M7.5,14.5v2h-3v-2H7.5z" opacity=".3" /><ns0:path d="M11,18h6v-5h-2.25V9.25h-4V7H13V2H7v5h2.25v2.25h-4V13H3v5h6v-5H6.75v-2.25h6.5V13H11V18z M15.5,14.5v2h-3v-2H15.5z M8.5,5.5v-2h3v2H8.5z M7.5,14.5v2h-3v-2H7.5z" /></ns0:g></g></svg>