<svg viewBox="0 0 1024 1024" width="200" height="200" xmlns="http://www.w3.org/2000/svg"><g transform="scale(51.2)"><ns0:g xmlns:ns0="http://www.w3.org/2000/svg"><ns0:rect fill="none" height="20" width="20" /></ns0:g><ns0:g xmlns:ns0="http://www.w3.org/2000/svg"><ns0:g><ns0:path d="M13,5.39V2h-1.5v3.39C10.63,5.7,10,6.52,10,7.5c0,0.98,0.63,1.8,1.5,2.11V13c0,1.38-1.12,2.5-2.5,2.5S6.5,14.38,6.5,13v-1 H9L5,8v5c0,2.21,1.79,4,4,4s4-1.79,4-4V9.61c0.87-0.31,1.5-1.13,1.5-2.11C14.5,6.52,13.87,5.7,13,5.39z M12.25,8.25 c-0.41,0-0.75-0.34-0.75-0.75c0-0.41,0.34-0.75,0.75-0.75S13,7.09,13,7.5C13,7.91,12.66,8.25,12.25,8.25z" /></ns0:g></ns0:g></g></svg>