<svg viewBox="0 0 1024 1024" width="200" height="200" xmlns="http://www.w3.org/2000/svg"><g transform="scale(42.666666666666664)"><ns0:path xmlns:ns0="http://www.w3.org/2000/svg" d="M0 0h24v24H0V0z" fill="none" /><ns0:path xmlns:ns0="http://www.w3.org/2000/svg" d="M18 10h4v7h-4z" opacity=".3" /><ns0:path xmlns:ns0="http://www.w3.org/2000/svg" d="M23 8h-6c-.55 0-1 .45-1 1v10c0 .55.45 1 1 1h6c.55 0 1-.45 1-1V9c0-.55-.45-1-1-1zm-1 9h-4v-7h4v7zM4 6h18V4H4c-1.1 0-2 .9-2 2v11H0v3h14v-3H4V6z" /></g></svg>