<svg viewBox="0 0 1024 1024" width="200" height="200" xmlns="http://www.w3.org/2000/svg"><g transform="scale(42.666666666666664)"><ns0:path xmlns:ns0="http://www.w3.org/2000/svg" d="M0 0h24v24H0V0z" fill="none" /><ns0:path xmlns:ns0="http://www.w3.org/2000/svg" d="M4 20h16c1.1 0 2-.9 2-2s-.9-2-2-2H4c-1.1 0-2 .9-2 2s.9 2 2 2zm0-3h2v2H4v-2zM2 6c0 1.1.9 2 2 2h16c1.1 0 2-.9 2-2s-.9-2-2-2H4c-1.1 0-2 .9-2 2zm4 1H4V5h2v2zm-2 7h16c1.1 0 2-.9 2-2s-.9-2-2-2H4c-1.1 0-2 .9-2 2s.9 2 2 2zm0-3h2v2H4v-2z" /></g></svg>