<svg viewBox="0 0 1024 1024" width="200" height="200" xmlns="http://www.w3.org/2000/svg"><g transform="scale(42.666666666666664)"><ns0:g xmlns:ns0="http://www.w3.org/2000/svg"><ns0:path d="M0,0h24v24H0V0z" fill="none" /></ns0:g><ns0:g xmlns:ns0="http://www.w3.org/2000/svg"><ns0:g><ns0:path d="M12,12L12,12c0,0.55,0.45,1,1,1h1v2H9V9h6c0.55,0,1-0.45,1-1v0c0-0.55-0.45-1-1-1H9C7.9,7,7,7.9,7,9v6c0,1.1,0.9,2,2,2h5 c1.1,0,2-0.9,2-2v-3c0-0.55-0.45-1-1-1h-2C12.45,11,12,11.45,12,12z" /></ns0:g></ns0:g></g></svg>