<svg viewBox="0 0 1024 1024" width="200" height="200" xmlns="http://www.w3.org/2000/svg"><g transform="scale(51.2)"><ns0:g xmlns:ns0="http://www.w3.org/2000/svg"><ns0:rect fill="none" height="20" width="20" x="0" /></ns0:g><ns0:g xmlns:ns0="http://www.w3.org/2000/svg"><ns0:g><ns0:path d="M16.4,4H3.6C2.72,4,2,4.72,2,5.6V8h1.5V5.6h13V8H18V5.6C18,4.72,17.28,4,16.4,4z" /><ns0:path d="M16.5,14.4h-13V12H2v2.4C2,15.28,2.72,16,3.6,16h12.8c0.88,0,1.6-0.72,1.6-1.6V12h-1.5V14.4z" /><ns0:path d="M12.16,6.89c-0.26-0.48-1.05-0.48-1.32,0L8.5,11.18L7.66,9.64C7.53,9.4,7.27,9.25,7,9.25H2v1.5h4.55l1.29,2.36 c0.13,0.24,0.38,0.39,0.66,0.39s0.53-0.15,0.66-0.39l2.34-4.29l0.84,1.54c0.13,0.24,0.38,0.39,0.66,0.39h5v-1.5h-4.55L12.16,6.89z" /></ns0:g></ns0:g></g></svg>