<svg viewBox="0 0 1024 1024" width="200" height="200" xmlns="http://www.w3.org/2000/svg"><g transform="scale(51.2)"><ns0:g xmlns:ns0="http://www.w3.org/2000/svg"><ns0:rect fill="none" height="20" width="20" /></ns0:g><ns0:g xmlns:ns0="http://www.w3.org/2000/svg"><ns0:path d="M10,3C6.52,3,3.34,4.23,0.84,6.27c-0.46,0.38-0.51,1.07-0.08,1.5l8.54,8.53c0.39,0.39,1.02,0.39,1.41,0l8.54-8.53 c0.42-0.42,0.38-1.12-0.08-1.5C16.66,4.23,13.48,3,10,3z M12.56,12.32c-1.53-1.07-3.6-1.07-5.13,0L2.21,7.1 C4.46,5.41,7.17,4.5,10,4.5c2.83,0,5.54,0.91,7.79,2.6L12.56,12.32z" /></ns0:g></g></svg>