<svg viewBox="0 0 1024 1024" width="200" height="200" xmlns="http://www.w3.org/2000/svg"><g transform="scale(51.2)"><ns0:g xmlns:ns0="http://www.w3.org/2000/svg"><ns0:rect fill="none" height="20" width="20" /></ns0:g><ns0:g xmlns:ns0="http://www.w3.org/2000/svg"><ns0:path d="M12.56,12.32c-1.53-1.07-3.6-1.07-5.13,0L2.21,7.1C4.46,5.41,7.17,4.5,10,4.5c2.83,0,5.54,0.91,7.79,2.6 L12.56,12.32z" opacity=".3" /><ns0:path d="M10,3C6.12,3,2.6,4.53,0,7.01L10,17l10-9.99C17.4,4.53,13.88,3,10,3z M12.56,12.32c-1.53-1.07-3.6-1.07-5.13,0L2.21,7.1 C4.46,5.41,7.17,4.5,10,4.5c2.83,0,5.54,0.91,7.79,2.6L12.56,12.32z" /></ns0:g></g></svg>