<svg viewBox="0 0 1024 1024" width="200" height="200" xmlns="http://www.w3.org/2000/svg"><g transform="scale(42.666666666666664)"><ns0:g xmlns:ns0="http://www.w3.org/2000/svg"><ns0:path d="M0,0h24v24H0V0z" fill="none" /></ns0:g><ns0:g xmlns:ns0="http://www.w3.org/2000/svg"><ns0:path d="M21,3h-6.18C14.4,1.84,13.3,1,12,1S9.6,1.84,9.18,3H3v18h18V3z M12,2.75c0.41,0,0.75,0.34,0.75,0.75S12.41,4.25,12,4.25 s-0.75-0.34-0.75-0.75S11.59,2.75,12,2.75z M9.1,17H7v-2.14l5.96-5.96l2.12,2.12L9.1,17z M17.2,8.91l-1.41,1.41L13.66,8.2 l1.41-1.41L17.2,8.91z" /></ns0:g></g></svg>