<svg viewBox="0 0 1024 1024" width="200" height="200" xmlns="http://www.w3.org/2000/svg"><g transform="scale(51.2)"><ns0:g xmlns:ns0="http://www.w3.org/2000/svg"><ns0:g><ns0:rect fill="none" height="20" width="20" /></ns0:g></ns0:g><ns0:g xmlns:ns0="http://www.w3.org/2000/svg"><ns0:g><ns0:circle cx="10" cy="11" r="1.5" /><ns0:path d="M10,6c-2.76,0-5,2.24-5,5c0,1.38,0.56,2.63,1.46,3.54l1.06-1.06C6.89,12.84,6.5,11.96,6.5,11c0-1.93,1.57-3.5,3.5-3.5 s3.5,1.57,3.5,3.5c0,0.96-0.39,1.84-1.03,2.47l1.06,1.06C14.44,13.63,15,12.38,15,11C15,8.24,12.76,6,10,6z" /><ns0:path d="M10,3c-4.42,0-8,3.58-8,8c0,2.21,0.9,4.21,2.34,5.66l1.06-1.06C4.23,14.42,3.5,12.79,3.5,11c0-3.58,2.92-6.5,6.5-6.5 c2.3,0,4.31,1.2,5.47,3h1.72C15.89,4.84,13.16,3,10,3z" /><ns0:rect height="5" width="1.5" x="16.5" y="9" /><ns0:rect height="1.5" width="1.5" x="16.5" y="15" /></ns0:g></ns0:g></g></svg>