<svg viewBox="0 0 1024 1024" width="200" height="200" xmlns="http://www.w3.org/2000/svg"><g transform="scale(42.666666666666664)"><ns0:g xmlns:ns0="http://www.w3.org/2000/svg"><ns0:rect fill="none" height="24" width="24" /></ns0:g><ns0:g xmlns:ns0="http://www.w3.org/2000/svg"><ns0:path d="M18,23H4c-1.1,0-2-0.9-2-2V7h2v14h14V23z M14.5,7V5h-2v2h-2v2h2v2h2V9h2V7H14.5z M16.5,13h-6v2h6V13z M15,1H8 C6.9,1,6.01,1.9,6.01,3L6,17c0,1.1,0.89,2,1.99,2H19c1.1,0,2-0.9,2-2V7L15,1z M19,17H8V3h6.17L19,7.83V17z" /></ns0:g></g></svg>