<svg viewBox="0 0 1024 1024" width="200" height="200" xmlns="http://www.w3.org/2000/svg"><g transform="scale(42.666666666666664)"><ns0:g xmlns:ns0="http://www.w3.org/2000/svg"><ns0:rect fill="none" height="24" width="24" /></ns0:g><ns0:g xmlns:ns0="http://www.w3.org/2000/svg"><ns0:g><ns0:path d="M19.42,4.71L19.42,4.71c-0.39-0.39-1.02-0.39-1.41,0l-8.48,8.49L5.99,9.66c-0.39-0.39-1.02-0.39-1.41,0l0,0 c-0.39,0.39-0.39,1.02,0,1.41l4.24,4.24c0.39,0.39,1.02,0.39,1.41,0l9.19-9.19C19.82,5.73,19.82,5.1,19.42,4.71z" /><ns0:path d="M6,20h12c0.55,0,1-0.45,1-1v0c0-0.55-0.45-1-1-1H6c-0.55,0-1,0.45-1,1v0C5,19.55,5.45,20,6,20z" /></ns0:g></ns0:g></g></svg>