<svg viewBox="0 0 1024 1024" width="200" height="200" xmlns="http://www.w3.org/2000/svg"><g transform="scale(42.666666666666664)"><ns0:g xmlns:ns0="http://www.w3.org/2000/svg"><ns0:rect fill="none" height="24" width="24" /><ns0:rect fill="none" height="24" width="24" /></ns0:g><ns0:g xmlns:ns0="http://www.w3.org/2000/svg"><ns0:g><ns0:path d="M2,6L2,6C1.45,6,1,6.45,1,7v12c0,1.1,0.9,2,2,2h16c0.55,0,1-0.45,1-1v0c0-0.55-0.45-1-1-1H3V7C3,6.45,2.55,6,2,6z" /><ns0:path d="M21,4h-7l-1.41-1.41C12.21,2.21,11.7,2,11.17,2H7C5.9,2,5.01,2.9,5.01,4L5,15c0,1.1,0.9,2,2,2h14c1.1,0,2-0.9,2-2V6 C23,4.9,22.1,4,21,4z" /></ns0:g></ns0:g></g></svg>