<svg viewBox="0 0 1024 1024" width="200" height="200" xmlns="http://www.w3.org/2000/svg"><g transform="scale(51.2)"><ns0:g xmlns:ns0="http://www.w3.org/2000/svg"><ns0:rect fill="none" height="20" width="20" /></ns0:g><ns0:g xmlns:ns0="http://www.w3.org/2000/svg"><ns0:path d="M16.67,4.33L15.33,3L14,4.33L12.67,3l-1.33,1.33L10,3L8.67,4.33L7.33,3L6,4.33L4.67,3L3.33,4.33L2,3v12.5 C2,16.33,2.67,17,3.5,17h13c0.83,0,1.5-0.67,1.5-1.5V3L16.67,4.33z M16.5,9.5h-13v-3h13V9.5z M10.75,11h5.75v1.5h-5.75V11z M3.5,11 h5.75v4.5H3.5V11z M10.75,15.5V14h5.75v1.5H10.75z" /></ns0:g></g></svg>