<svg viewBox="0 0 1024 1024" width="200" height="200" xmlns="http://www.w3.org/2000/svg"><g transform="scale(42.666666666666664)"><ns0:g xmlns:ns0="http://www.w3.org/2000/svg"><ns0:rect fill="none" height="24" width="24" /></ns0:g><ns0:g xmlns:ns0="http://www.w3.org/2000/svg"><ns0:g><ns0:path d="M21,10V2H1v16h13v-5c0-1.66,1.34-3,3-3H21z M11,11L3,6V4l8,5l8-5v2L11,11z" /><ns0:path d="M21,14v4c0,1.1-0.9,2-2,2s-2-0.9-2-2v-4.5c0-0.28,0.22-0.5,0.5-0.5s0.5,0.22,0.5,0.5V18h2v-4.5c0-1.38-1.12-2.5-2.5-2.5 S15,12.12,15,13.5V18c0,2.21,1.79,4,4,4s4-1.79,4-4v-4H21z" /></ns0:g></ns0:g></g></svg>