<svg viewBox="0 0 1024 1024" width="200" height="200" xmlns="http://www.w3.org/2000/svg"><g transform="scale(51.2)"><ns0:g xmlns:ns0="http://www.w3.org/2000/svg"><ns0:rect fill="none" height="20" width="20" x="0" /></ns0:g><ns0:g xmlns:ns0="http://www.w3.org/2000/svg"><ns0:g><ns0:path d="M3,5.18l6,3.75l6-3.75V8h1V4c0-0.55-0.45-1-1-1H3C2.45,3,2,3.45,2,4v10c0,0.55,0.45,1,1,1h9v-1H3V5.18z M15,4L9,7.75L3,4 H15z" /><ns0:path d="M17,11v3.5c0,0.83-0.67,1.5-1.5,1.5S14,15.33,14,14.5v-4c0-0.28,0.22-0.5,0.5-0.5s0.5,0.22,0.5,0.5V14h1v-3.5 C16,9.67,15.33,9,14.5,9S13,9.67,13,10.5v4c0,1.38,1.12,2.5,2.5,2.5s2.5-1.12,2.5-2.5V11H17z" /></ns0:g></ns0:g></g></svg>