<svg viewBox="0 0 1024 1024" width="200" height="200" xmlns="http://www.w3.org/2000/svg"><g transform="scale(42.666666666666664)"><ns0:g xmlns:ns0="http://www.w3.org/2000/svg"><ns0:rect fill="none" height="24" width="24" /></ns0:g><ns0:g xmlns:ns0="http://www.w3.org/2000/svg"><ns0:g><ns0:path d="M12,4c-4.41,0-8,3.59-8,8c0,4.41,3.59,8,8,8s8-3.59,8-8C20,7.59,16.41,4,12,4z M11,10V6h2v4h3l-4,4l-4-4H11 z M17,17H7v-2h10V17z" opacity=".3" /><ns0:polygon points="16,10 13,10 13,6 11,6 11,10 8,10 12,14" /><ns0:rect height="2" width="10" x="7" y="15" /><ns0:path d="M12,2C6.49,2,2,6.49,2,12s4.49,10,10,10s10-4.49,10-10S17.51,2,12,2z M12,20c-4.41,0-8-3.59-8-8c0-4.41,3.59-8,8-8 s8,3.59,8,8C20,16.41,16.41,20,12,20z" /></ns0:g></ns0:g></g></svg>