<svg viewBox="0 0 1024 1024" width="200" height="200" xmlns="http://www.w3.org/2000/svg"><g transform="scale(51.2)"><ns0:rect xmlns:ns0="http://www.w3.org/2000/svg" fill="none" height="20" width="20" /><ns0:path xmlns:ns0="http://www.w3.org/2000/svg" d="M13,11.02c-0.01,0.41-0.37,0.73-0.78,0.73H10v1.04c0,0.45-0.54,0.67-0.85,0.35l-1.79-1.79c-0.2-0.2-0.2-0.51,0-0.71 l1.79-1.79C9.46,8.54,10,8.76,10,9.21v1.04h2.25C12.67,10.25,13.01,10.6,13,11.02z M16.5,6H10L8.44,4.44C8.16,4.16,7.78,4,7.38,4 H3.5C2.67,4,2,4.67,2,5.5v9C2,15.33,2.67,16,3.5,16h13c0.83,0,1.5-0.67,1.5-1.5v-7C18,6.67,17.33,6,16.5,6z" /></g></svg>