<svg viewBox="0 0 1024 1024" width="200" height="200" xmlns="http://www.w3.org/2000/svg"><g transform="scale(42.666666666666664)"><ns0:g xmlns:ns0="http://www.w3.org/2000/svg"><ns0:rect fill="none" height="24" width="24" /><ns0:rect fill="none" height="24" width="24" /><ns0:rect fill="none" height="24" width="24" /></ns0:g><ns0:g xmlns:ns0="http://www.w3.org/2000/svg"><ns0:g /><ns0:g><ns0:rect height="3.5" opacity=".3" width="10.5" x="4" y="9" /><ns0:rect height="3.5" opacity=".3" width="10.5" x="4" y="14.5" /><ns0:rect height="9" opacity=".3" width="3.5" x="16.5" y="9" /><ns0:path d="M20,4H4C2.9,4,2.01,4.9,2.01,6L2,18c0,1.1,0.9,2,2,2h16c1.1,0,2-0.9,2-2V6C22,4.9,21.1,4,20,4z M14.5,18L4,18v-3.5h10.5 V18z M14.5,12.5H4V9h10.5V12.5z M20,18l-3.5,0V9H20V18z" /></ns0:g></ns0:g></g></svg>