<svg viewBox="0 0 1024 1024" width="200" height="200" xmlns="http://www.w3.org/2000/svg"><g transform="scale(42.666666666666664)"><ns0:path xmlns:ns0="http://www.w3.org/2000/svg" d="M0 0h24v24H0z" fill="none" /><ns0:path xmlns:ns0="http://www.w3.org/2000/svg" d="M20.39 8.56l-1.24 1.86a8 8 0 0 1-.22 7.58H5.07A8 8 0 0 1 15.58 6.85l1.86-1.24A10 10 0 0 0 4 20h16a10 10 0 0 0 .38-11.44z" /><ns0:path xmlns:ns0="http://www.w3.org/2000/svg" d="M10.59 15.41a2 2 0 0 0 2.83 0l5.66-8.49-8.49 5.66a2 2 0 0 0 0 2.83z" /></g></svg>