<svg viewBox="0 0 1024 1024" width="200" height="200" xmlns="http://www.w3.org/2000/svg"><g transform="scale(42.666666666666664)"><ns0:path xmlns:ns0="http://www.w3.org/2000/svg" d="M0 0h24v24H0V0z" fill="none" /><ns0:path xmlns:ns0="http://www.w3.org/2000/svg" d="M7.3 13.77L5.54 12l1.76-1.77-1.76-1.77L2 12l3.54 3.54zm8.24 4.69l-1.77-1.76L12 18.46l-1.77-1.76-1.77 1.76L12 22zm2.92-2.92L22 12l-3.54-3.54-1.76 1.77L18.46 12l-1.76 1.77zM12 5.54l1.77 1.76 1.77-1.76L12 2 8.46 5.54l1.77 1.76z" /><ns0:circle xmlns:ns0="http://www.w3.org/2000/svg" cx="12" cy="12" r="3" /></g></svg>