<svg viewBox="0 0 1024 1024" width="200" height="200" xmlns="http://www.w3.org/2000/svg"><g transform="scale(42.666666666666664)"><ns0:g xmlns:ns0="http://www.w3.org/2000/svg"><ns0:rect fill="none" height="24" width="24" /></ns0:g><ns0:g xmlns:ns0="http://www.w3.org/2000/svg"><ns0:path d="M7.5,12.5h1V14h-1V12.5z M7.5,10h1v1.5h-1V10z M21,3H3v18h18V3z M10,14c0,0.55-0.45,1-1,1H7c-0.55,0-1-0.45-1-1v-4 c0-0.55,0.45-1,1-1h2c0.55,0,1,0.45,1,1V14z M16,15h-1.75l-1.75-2.25V15H11V9h1.5v2.25L14.25,9H16l-2.25,3L16,15z M19,12.5h-1.5V14 h-1v-1.5H15v-1h1.5V10h1v1.5H19V12.5z" /></ns0:g></g></svg>