<svg viewBox="0 0 1024 1024" width="200" height="200" xmlns="http://www.w3.org/2000/svg"><g transform="scale(42.666666666666664)"><ns0:g xmlns:ns0="http://www.w3.org/2000/svg"><ns0:rect fill="none" height="24" width="24" /></ns0:g><ns0:g xmlns:ns0="http://www.w3.org/2000/svg"><ns0:path d="M12,2C6.48,2,2,6.48,2,12s4.48,10,10,10s10-4.48,10-10S17.52,2,12,2z M18,12.5c0,3.31-2.69,6-6,6s-6-2.69-6-6h2 c0,2.21,1.79,4,4,4s4-1.79,4-4s-1.79-4-4-4v3l-4-4l4-4v3C15.31,6.5,18,9.19,18,12.5z" /></ns0:g></g></svg>