<svg viewBox="0 0 1024 1024" width="200" height="200" xmlns="http://www.w3.org/2000/svg"><g transform="scale(51.2)"><ns0:g xmlns:ns0="http://www.w3.org/2000/svg"><ns0:rect fill="none" height="20" width="20" /></ns0:g><ns0:g xmlns:ns0="http://www.w3.org/2000/svg"><ns0:g><ns0:path d="M12,10.5h2V12h-3V8h4c0-0.55-0.45-1-1-1h-3c-0.55,0-1,0.45-1,1v4c0,0.55,0.45,1,1,1h3c0.55,0,1-0.45,1-1V9.5h-3V10.5z" /></ns0:g><ns0:g><ns0:path d="M9,8H6v1.5h2c0.55,0,1,0.45,1,1V12c0,0.55-0.45,1-1,1H5v-1h3v-1.5H5V7h4V8z" /></ns0:g></ns0:g></g></svg>