<svg viewBox="0 0 1024 1024" width="200" height="200" xmlns="http://www.w3.org/2000/svg"><g transform="scale(42.666666666666664)"><ns0:g xmlns:ns0="http://www.w3.org/2000/svg"><ns0:rect fill="none" height="24" width="24" /></ns0:g><ns0:g xmlns:ns0="http://www.w3.org/2000/svg"><ns0:g><ns0:path d="M17,13h2v2h-5V9h7c0-1.1-0.9-2-2-2h-5c-1.1,0-2,0.9-2,2v6c0,1.1,0.9,2,2,2h5c1.1,0,2-0.9,2-2v-4h-4V13z" /><ns0:path d="M3,13h5v2H3v2h5c1.1,0,2-0.9,2-2v-2c0-1.1-0.9-2-2-2H5V9h5V7H3V13z" /></ns0:g></ns0:g></g></svg>