<svg viewBox="0 0 1024 1024" width="200" height="200" xmlns="http://www.w3.org/2000/svg"><g transform="scale(42.666666666666664)"><ns0:path xmlns:ns0="http://www.w3.org/2000/svg" d="M0 0h24v24H0V0z" fill="none" /><ns0:path xmlns:ns0="http://www.w3.org/2000/svg" d="M7 19h10V5H7v14zm4-6V8h2v5h3l-4 4-4-4h3z" opacity=".3" /><ns0:path xmlns:ns0="http://www.w3.org/2000/svg" d="M16 13h-3V8h-2v5H8l4 4zm1-11.99L7 1c-1.1 0-2 .9-2 2v18c0 1.1.9 2 2 2h10c1.1 0 2-.9 2-2V3c0-1.1-.9-1.99-2-1.99zM17 19H7V5h10v14z" /></g></svg>