<svg viewBox="0 0 1024 1024" width="200" height="200" xmlns="http://www.w3.org/2000/svg"><g transform="scale(42.666666666666664)"><ns0:rect xmlns:ns0="http://www.w3.org/2000/svg" fill="none" height="24" width="24" /><ns0:g xmlns:ns0="http://www.w3.org/2000/svg"><ns0:path d="M22,11V3h-7v3H9V3H2v8h7V8h2v10h4v3h7v-8h-7v3h-2V8h2v3H22z M7,9H4V5h3V9z M17,15h3v4h-3V15z M17,5h3v4h-3V5z" /><ns0:polyline opacity=".3" points="7,5 7,9 4,9 4,5 7,5" /><ns0:polyline opacity=".3" points="20,5 20,9 17,9 17,5 20,5" /><ns0:polyline opacity=".3" points="20,15 20,19 17,19 17,15 20,15" /></ns0:g></g></svg>