<svg viewBox="0 0 1024 1024" width="200" height="200" xmlns="http://www.w3.org/2000/svg"><g transform="scale(42.666666666666664)"><ns0:g xmlns:ns0="http://www.w3.org/2000/svg"><ns0:path d="M0,0h24v24H0V0z" fill="none" /></ns0:g><ns0:g xmlns:ns0="http://www.w3.org/2000/svg"><ns0:path d="M20,2H4C2.9,2,2.01,2.9,2.01,4L2,22l4-4h14c1.1,0,2-0.9,2-2V4C22,2.9,21.1,2,20,2z M17,13l-2-1.99V13c0,0.55-0.45,1-1,1H8 c-0.55,0-1-0.45-1-1V7c0-0.55,0.45-1,1-1h6c0.55,0,1,0.45,1,1v1.99L17,7V13z" /></ns0:g></g></svg>