<svg viewBox="0 0 1024 1024" width="200" height="200" xmlns="http://www.w3.org/2000/svg"><g transform="scale(42.666666666666664)"><ns0:g xmlns:ns0="http://www.w3.org/2000/svg"><ns0:rect fill="none" height="24" width="24" /></ns0:g><ns0:g xmlns:ns0="http://www.w3.org/2000/svg"><ns0:g><ns0:path d="M20,5V4c0-1.1-0.9-2-2-2s-2,0.9-2,2v1h-1v5h6V5H20z M19,5h-2V4c0-0.55,0.45-1,1-1s1,0.45,1,1V5z" /><ns0:path d="M21,15l-5-1l-2.9,2.9c-2.5-1.43-4.57-3.5-6-6L10,8L9,3L3,3c0,3.28,0.89,6.35,2.43,9c1.58,2.73,3.85,4.99,6.57,6.57 c2.65,1.53,5.72,2.43,9,2.43L21,15z" /></ns0:g></ns0:g></g></svg>