<svg viewBox="0 0 1024 1024" width="200" height="200" xmlns="http://www.w3.org/2000/svg"><g transform="scale(42.666666666666664)"><ns0:path xmlns:ns0="http://www.w3.org/2000/svg" d="M0 0h24v24H0V0z" fill="none" /><ns0:path xmlns:ns0="http://www.w3.org/2000/svg" d="M8 5h8v14H8z" opacity=".3" /><ns0:path xmlns:ns0="http://www.w3.org/2000/svg" d="M19 7h2v10h-2zm3 2h2v6h-2zM0 9h2v6H0zm16.5-6h-9C6.67 3 6 3.67 6 4.5v15c0 .83.67 1.5 1.5 1.5h9c.83 0 1.5-.67 1.5-1.5v-15c0-.83-.67-1.5-1.5-1.5zM16 19H8V5h8v14zM3 7h2v10H3z" /></g></svg>