<svg viewBox="0 0 1024 1024" width="200" height="200" xmlns="http://www.w3.org/2000/svg"><g transform="scale(51.2)"><ns0:g xmlns:ns0="http://www.w3.org/2000/svg"><ns0:rect fill="none" height="20" width="20" x="0" /></ns0:g><ns0:g xmlns:ns0="http://www.w3.org/2000/svg"><ns0:g><ns0:path d="M13,3.5h-0.5V2H11v1.5H9V2H7.5v1.5H7c-1.66,0-3,1.34-3,3V15c0,1.66,1.34,3,3,3h6c1.66,0,3-1.34,3-3V6.5 C16,4.84,14.66,3.5,13,3.5z M14.5,15c0,0.83-0.67,1.5-1.5,1.5H7c-0.83,0-1.5-0.67-1.5-1.5V6.5C5.5,5.67,6.17,5,7,5h6 c0.83,0,1.5,0.67,1.5,1.5V15z" /><ns0:path d="M8,12.53c0,1.09,0.9,1.97,2,1.97s2-0.88,2-1.97c0-0.87-0.36-1.13-2-3.03C8.35,11.42,8,11.66,8,12.53z" /><ns0:rect height="1.5" width="6" x="7" y="6.5" /></ns0:g></ns0:g></g></svg>