<svg viewBox="0 0 1024 1024" width="200" height="200" xmlns="http://www.w3.org/2000/svg"><g transform="scale(42.666666666666664)"><ns0:g xmlns:ns0="http://www.w3.org/2000/svg"><ns0:rect fill="none" height="24" width="24" /></ns0:g><ns0:g xmlns:ns0="http://www.w3.org/2000/svg"><ns0:path d="M12,2c-4.96,0-9,4.04-9,9c0,3.91,2.51,7.24,6,8.47V22h2v-2.06c0.33,0.04,0.66,0.06,1,0.06s0.67-0.02,1-0.06V22h2v-2.53 c3.49-1.24,6-4.57,6-8.47C21,6.04,16.96,2,12,2z M14.25,14l-3,3l-1.5-1.5L11,14.25L9.75,13l3-3l1.5,1.5L13,12.75L14.25,14z M16,9H8 V7h8V9z" /></ns0:g></g></svg>