<svg viewBox="0 0 1024 1024" width="200" height="200" xmlns="http://www.w3.org/2000/svg"><g transform="scale(51.2)"><ns0:g xmlns:ns0="http://www.w3.org/2000/svg"><ns0:rect fill="none" height="20" width="20" /></ns0:g><ns0:g xmlns:ns0="http://www.w3.org/2000/svg"><ns0:path d="M5.5 10.5c.55 0 1 .45 1 1s-.45 1-1 1-1-.45-1-1 .45-1 1-1zm-1-5c0 .55.45 1 1 1s1-.45 1-1-.45-1-1-1-1 .45-1 1zm9 6c0 .55.45 1 1 1s1-.45 1-1-.45-1-1-1-1 .45-1 1zm0-6c0 .55.45 1 1 1s1-.45 1-1-.45-1-1-1-1 .45-1 1zm-6.75 9c0 .55.45 1 1 1s1-.45 1-1-.45-1-1-1-1 .45-1 1zm0-6c0 .55.45 1 1 1s1-.45 1-1-.45-1-1-1-1 .45-1 1zm2.25 3c0 .55.45 1 1 1s1-.45 1-1-.45-1-1-1-1 .45-1 1zm0-6c0 .55.45 1 1 1s1-.45 1-1-.45-1-1-1-1 .45-1 1zm2.25 9c0 .55.45 1 1 1s1-.45 1-1-.45-1-1-1-1 .45-1 1zm0-6c0 .55.45 1 1 1s1-.45 1-1-.45-1-1-1-1 .45-1 1z" /></ns0:g></g></svg>