<svg viewBox="0 0 1024 1024" width="200" height="200" xmlns="http://www.w3.org/2000/svg"><g transform="scale(42.666666666666664)"><ns0:g xmlns:ns0="http://www.w3.org/2000/svg"><ns0:rect fill="none" height="24" width="24" /></ns0:g><ns0:g xmlns:ns0="http://www.w3.org/2000/svg"><ns0:path d="M6 12.75a1.25 1.25 0 110 2.5 1.25 1.25 0 010-2.5zM4.75 6a1.25 1.25 0 102.5 0 1.25 1.25 0 00-2.5 0zm12 8a1.25 1.25 0 102.5 0 1.25 1.25 0 00-2.5 0zm0-8a1.25 1.25 0 102.5 0 1.25 1.25 0 00-2.5 0zm-9 12a1.25 1.25 0 102.5 0 1.25 1.25 0 00-2.5 0zm0-8a1.25 1.25 0 102.5 0 1.25 1.25 0 00-2.5 0zm3 4a1.25 1.25 0 102.5 0 1.25 1.25 0 00-2.5 0zm0-8a1.25 1.25 0 102.5 0 1.25 1.25 0 00-2.5 0zm3 12a1.25 1.25 0 102.5 0 1.25 1.25 0 00-2.5 0zm0-8a1.25 1.25 0 102.5 0 1.25 1.25 0 00-2.5 0z" /></ns0:g></g></svg>