<svg viewBox="0 0 1024 1024" width="200" height="200" xmlns="http://www.w3.org/2000/svg"><g transform="scale(42.666666666666664)"><ns0:g xmlns:ns0="http://www.w3.org/2000/svg"><ns0:rect fill="none" height="24" width="24" /></ns0:g><ns0:g xmlns:ns0="http://www.w3.org/2000/svg"><ns0:g><ns0:rect height="2" opacity=".3" width="8" x="6" y="9" /><ns0:rect height="2" opacity=".3" width="8" x="6" y="5" /><ns0:rect height="2" opacity=".3" width="2" x="16" y="9" /><ns0:rect height="2" opacity=".3" width="2" x="16" y="5" /><ns0:path d="M20,19V3H4v16H2v2h20v-2H20z M6,5h8v2H6V5z M6,9h8v2H6V9z M18,19H6v-6h8v1.82c-0.45,0.32-0.75,0.84-0.75,1.43 c0,0.97,0.78,1.75,1.75,1.75s1.75-0.78,1.75-1.75c0-0.59-0.3-1.12-0.75-1.43V13h2V19z M18,11h-2V9h2V11z M18,7h-2V5h2V7z" /></ns0:g></ns0:g></g></svg>