<svg viewBox="0 0 1024 1024" width="200" height="200" xmlns="http://www.w3.org/2000/svg"><g transform="scale(42.666666666666664)"><ns0:g xmlns:ns0="http://www.w3.org/2000/svg"><ns0:rect fill="none" height="24" width="24" /></ns0:g><ns0:g xmlns:ns0="http://www.w3.org/2000/svg"><ns0:g><ns0:path d="M12,3c-4.8,0-9,3.86-9,9c0,2.12,0.74,4.07,1.97,5.61L3,19.59L4.41,21l1.97-1.97C7.93,20.26,9.88,21,12,21 c2.3,0,4.61-0.88,6.36-2.64C20.12,16.61,21,14.3,21,12V3H12z M10.5,17L10,16.5l2.5-3.5l-5-0.5l6-5.5L14,7.5L11.5,11l5,0.5L10.5,17 z" /></ns0:g></ns0:g></g></svg>