<svg viewBox="0 0 1024 1024" width="200" height="200" xmlns="http://www.w3.org/2000/svg"><g transform="scale(51.2)"><ns0:g xmlns:ns0="http://www.w3.org/2000/svg"><ns0:rect fill="none" height="20" width="20" /></ns0:g><ns0:g xmlns:ns0="http://www.w3.org/2000/svg"><ns0:g><ns0:path d="M4,12.25V15c0,1.66,1.34,3,3,3h6c1.66,0,3-1.34,3-3v-2.75H4z" /><ns0:path d="M16,10.75V8c0-1.3-0.84-2.4-2-2.82V3.5C14,2.67,13.33,2,12.5,2h-5C6.67,2,6,2.67,6,3.5v1.68C4.84,5.6,4,6.7,4,8v2.75H16z M7.5,3.5h5V5h-1.75c0-0.41-0.34-0.75-0.75-0.75S9.25,4.59,9.25,5H7.5V3.5z" /></ns0:g></ns0:g></g></svg>