<svg viewBox="0 0 1024 1024" width="200" height="200" xmlns="http://www.w3.org/2000/svg"><g transform="scale(42.666666666666664)"><ns0:g xmlns:ns0="http://www.w3.org/2000/svg"><ns0:rect fill="none" height="24" width="24" /></ns0:g><ns0:g xmlns:ns0="http://www.w3.org/2000/svg"><ns0:path d="M20,19V3H4v16H2v2h11.25c0,0.97,0.78,1.75,1.75,1.75s1.75-0.78,1.75-1.75H22v-2H20z M18,11h-2V9h2V11z M14,11H6V9h8V11z M14,13v2H6v-2H14z M16,13h2v2h-2V13z M18,7h-2V5h2V7z M14,5v2H6V5H14z M6,19v-2h8v2H6z M16,19v-2h2v2H16z" /></ns0:g></g></svg>