<svg viewBox="0 0 1024 1024" width="200" height="200" xmlns="http://www.w3.org/2000/svg"><g transform="scale(42.666666666666664)"><ns0:g xmlns:ns0="http://www.w3.org/2000/svg"><ns0:rect fill="none" height="24" width="24" /></ns0:g><ns0:g xmlns:ns0="http://www.w3.org/2000/svg"><ns0:g><ns0:rect height="2" opacity=".3" width="8" x="6" y="5" /><ns0:rect height="2" opacity=".3" width="8" x="6" y="9" /><ns0:rect height="2" opacity=".3" width="2" x="16" y="17" /><ns0:rect height="2" opacity=".3" width="8" x="6" y="13" /><ns0:rect height="2" opacity=".3" width="8" x="6" y="17" /><ns0:rect height="2" opacity=".3" width="2" x="16" y="13" /><ns0:rect height="2" opacity=".3" width="2" x="16" y="5" /><ns0:rect height="2" opacity=".3" width="2" x="16" y="9" /><ns0:path d="M20,19V3H4v16H2v2h11.25c0,0.97,0.78,1.75,1.75,1.75s1.75-0.78,1.75-1.75H22v-2H20z M14,19H6v-2h8V19z M14,15H6v-2h8V15z M14,11H6V9h8V11z M14,7H6V5h8V7z M18,19h-2v-2h2V19z M18,15h-2v-2h2V15z M18,11h-2V9h2V11z M18,7h-2V5h2V7z" /></ns0:g></ns0:g></g></svg>