<svg viewBox="0 0 1024 1024" width="200" height="200" xmlns="http://www.w3.org/2000/svg"><g transform="scale(51.2)"><ns0:g xmlns:ns0="http://www.w3.org/2000/svg"><ns0:rect fill="none" height="20" width="20" /></ns0:g><ns0:g xmlns:ns0="http://www.w3.org/2000/svg"><ns0:path d="M16,15.5v-11C16,3.67,15.33,3,14.5,3h-9C4.67,3,4,3.67,4,4.5v11H2.75C2.34,15.5,2,15.84,2,16.25l0,0 C2,16.66,2.34,17,2.75,17h14.5c0.41,0,0.75-0.34,0.75-0.75l0,0c0-0.41-0.34-0.75-0.75-0.75H16z M5.5,15.5v-4.75h3.75v1.53 c-0.3,0.23-0.5,0.57-0.5,0.97c0,0.69,0.56,1.25,1.25,1.25s1.25-0.56,1.25-1.25c0-0.4-0.2-0.75-0.5-0.97v-1.53h3.75v4.75H5.5z" /></ns0:g></g></svg>