<svg viewBox="0 0 1024 1024" width="200" height="200" xmlns="http://www.w3.org/2000/svg"><g transform="scale(51.2)"><ns0:g xmlns:ns0="http://www.w3.org/2000/svg"><ns0:rect fill="none" height="20" width="20" /></ns0:g><ns0:g xmlns:ns0="http://www.w3.org/2000/svg"><ns0:g><ns0:polygon points="10.75,10 10.75,13.25 17.11,13.25 16.5,10" /><ns0:polygon points="2.89,13.25 9.25,13.25 9.25,10 3.5,10" /><ns0:polygon points="2,18 9.25,18 9.25,14.75 2.61,14.75" /><ns0:polygon points="17.39,14.75 10.75,14.75 10.75,18 18,18" /><ns0:rect height="2" width="1.5" x="9.25" y="7" /><ns0:rect height="2" transform="matrix(0.7071 -0.7071 0.7071 0.7071 -0.3314 12.1139)" width="1.5" x="13.71" y="5.46" /><ns0:rect height="1.5" transform="matrix(0.7071 -0.7071 0.7071 0.7071 -2.9423 5.8107)" width="2" x="4.54" y="5.71" /><ns0:rect height="1.5" width="2" x="3" y="2.05" /><ns0:rect height="1.5" width="2" x="15" y="2.05" /><ns0:path d="M10,6c2.21,0,4-1.79,4-4H6C6,4.21,7.79,6,10,6z" /></ns0:g></ns0:g></g></svg>