<svg viewBox="0 0 1024 1024" width="200" height="200" xmlns="http://www.w3.org/2000/svg"><g transform="scale(42.666666666666664)"><ns0:g xmlns:ns0="http://www.w3.org/2000/svg"><ns0:rect fill="none" height="24" width="24" /></ns0:g><ns0:g xmlns:ns0="http://www.w3.org/2000/svg"><ns0:g><ns0:polygon points="3.33,16 11,16 11,13 4,13" /><ns0:polygon points="13,16 20.67,16 20,13 13,13" /><ns0:polygon points="21.11,18 13,18 13,22 22,22" /><ns0:polygon points="2,22 11,22 11,18 2.89,18" /><ns0:rect height="3" width="2" x="11" y="8" /><ns0:rect height="3" transform="matrix(0.7071 -0.7071 0.7071 0.7071 -0.2089 14.6085)" width="2" x="16.53" y="6.06" /><ns0:rect height="2" transform="matrix(0.7071 -0.7071 0.7071 0.7071 -3.448 6.7885)" width="3" x="4.97" y="6.56" /><ns0:rect height="2" width="3" x="3" y="2" /><ns0:rect height="2" width="3" x="18" y="2" /><ns0:path d="M12,7c2.76,0,5-2.24,5-5H7C7,4.76,9.24,7,12,7z" /></ns0:g></ns0:g></g></svg>