<svg viewBox="0 0 1024 1024" width="200" height="200" xmlns="http://www.w3.org/2000/svg"><g transform="scale(51.2)"><ns0:g xmlns:ns0="http://www.w3.org/2000/svg"><ns0:rect fill="none" height="20" width="20" x="0" /></ns0:g><ns0:g xmlns:ns0="http://www.w3.org/2000/svg"><ns0:g><ns0:path d="M16.5,10h-13L2,18h16L16.5,10z M15.26,11.5l0.33,1.75h-4.83V11.5H15.26z M9.25,11.5v1.75H4.42l0.33-1.75H9.25z M4.14,14.75h5.11v1.75H3.81L4.14,14.75z M10.75,16.5v-1.75h5.11l0.33,1.75H10.75z" /><ns0:rect height="2" width="1.5" x="9.25" y="7" /><ns0:rect height="2" transform="matrix(0.7071 -0.7071 0.7071 0.7071 -0.3314 12.1139)" width="1.5" x="13.71" y="5.46" /><ns0:rect height="1.5" transform="matrix(0.7071 -0.7071 0.7071 0.7071 -2.9423 5.8107)" width="2" x="4.54" y="5.71" /><ns0:rect height="1.5" width="2" x="3" y="2.05" /><ns0:rect height="1.5" width="2" x="15" y="2.05" /><ns0:path d="M10,6c2.21,0,4-1.79,4-4h-1.5c0,1.38-1.12,2.5-2.5,2.5S7.5,3.38,7.5,2H6C6,4.21,7.79,6,10,6z" /></ns0:g></ns0:g></g></svg>