<svg viewBox="0 0 1024 1024" width="200" height="200" xmlns="http://www.w3.org/2000/svg"><g transform="scale(42.666666666666664)"><ns0:g xmlns:ns0="http://www.w3.org/2000/svg"><ns0:rect fill="none" height="24" width="24" /></ns0:g><ns0:g xmlns:ns0="http://www.w3.org/2000/svg"><ns0:g><ns0:polygon opacity=".3" points="4.44,20 11,20 11,18 4.84,18" /><ns0:polygon opacity=".3" points="18.36,14 13,14 13,16 18.76,16" /><ns0:polygon opacity=".3" points="13,18 13,20 19.56,20 19.16,18" /><ns0:polygon opacity=".3" points="5.24,16 11,16 11,14 5.64,14" /><ns0:path d="M20,12H4L2,22h20L20,12z M13,14h5.36l0.4,2H13V14z M11,20H4.44l0.4-2H11V20z M11,16H5.24l0.4-2H11V16z M13,20v-2h6.16 l0.4,2H13z" /><ns0:rect height="3" width="2" x="11" y="8" /><ns0:rect height="3" transform="matrix(0.7071 -0.7071 0.7071 0.7071 -0.2089 14.6085)" width="2" x="16.53" y="6.06" /><ns0:rect height="2" transform="matrix(0.7071 -0.7071 0.7071 0.7071 -3.448 6.7885)" width="3" x="4.97" y="6.56" /><ns0:rect height="2" width="3" x="3" y="2" /><ns0:rect height="2" width="3" x="18" y="2" /><ns0:path d="M12,7c2.76,0,5-2.24,5-5h-2c0,1.65-1.35,3-3,3S9,3.65,9,2H7C7,4.76,9.24,7,12,7z" /><ns0:path d="M15,2c0,1.66-1.34,3-3,3S9,3.66,9,2H15z" opacity=".3" /></ns0:g></ns0:g></g></svg>