<svg viewBox="0 0 1024 1024" width="200" height="200" xmlns="http://www.w3.org/2000/svg"><g transform="scale(42.666666666666664)"><ns0:path xmlns:ns0="http://www.w3.org/2000/svg" d="M0 0h24v24H0V0z" fill="none" opacity=".87" /><ns0:path xmlns:ns0="http://www.w3.org/2000/svg" d="M6.29 8.11L10.18 12l-3.89 3.89c-.39.39-.39 1.02 0 1.41.39.39 1.02.39 1.41 0l4.59-4.59c.39-.39.39-1.02 0-1.41L7.7 6.7c-.39-.39-1.02-.39-1.41 0-.38.39-.38 1.03 0 1.41zM17 6c.55 0 1 .45 1 1v10c0 .55-.45 1-1 1s-1-.45-1-1V7c0-.55.45-1 1-1z" /></g></svg>