<svg viewBox="0 0 1024 1024" width="200" height="200" xmlns="http://www.w3.org/2000/svg"><g transform="scale(51.2)"><ns0:g xmlns:ns0="http://www.w3.org/2000/svg"><ns0:rect fill="none" height="20" width="20" x="0" /></ns0:g><ns0:g xmlns:ns0="http://www.w3.org/2000/svg"><ns0:g><ns0:path d="M1,9v8h4.5v-3.5h2V17H12V9L6.5,5L1,9z M10.5,15.5H9V12H4v3.5H2.5V9.76l4-2.91l4,2.91V15.5z" /><ns0:rect height="1.5" width="1.5" x="14.5" y="6" /><ns0:rect height="1.5" width="1.5" x="14.5" y="9.25" /><ns0:rect height="1.5" width="1.5" x="14.5" y="12.5" /><ns0:polygon points="11.5,6.78 12.49,7.5 13,7.5 13,6 11.5,6" /><ns0:polygon points="9,3 9,4.96 10.5,6.05 10.5,4.5 17.5,4.5 17.5,15.5 13.5,15.5 13.5,17 19,17 19,3" /></ns0:g></ns0:g></g></svg>