<svg viewBox="0 0 1024 1024" width="200" height="200" xmlns="http://www.w3.org/2000/svg"><g transform="scale(51.2)"><ns0:rect xmlns:ns0="http://www.w3.org/2000/svg" fill="none" height="20" width="20" /><ns0:path xmlns:ns0="http://www.w3.org/2000/svg" d="M7,7H4V4h3V7z M7,8.5H4v3h3V8.5z M11.5,8.5h-3v3h3V8.5z M7,13H4v3h3V13z M11.5,13h-3v3h3V13z M16,13h-3v3h3V13z M20,4 c0,2.21-1.79,4-4,4s-4-1.79-4-4s1.79-4,4-4S20,1.79,20,4z M16.5,5h-1v1h1V5z M16.5,2h-1v2h1V2z M16,9.5v2h-3V8.61 C13.86,9.17,14.89,9.5,16,9.5z M11.39,7H8.5V4h2C10.5,5.11,10.83,6.14,11.39,7z" /></g></svg>