<svg viewBox="0 0 1024 1024" width="200" height="200" xmlns="http://www.w3.org/2000/svg"><g transform="scale(42.666666666666664)"><ns0:g xmlns:ns0="http://www.w3.org/2000/svg"><ns0:rect fill="none" height="24" width="24" /><ns0:path d="M17 6H3v8h14V6zm-7 7c-1.66 0-3-1.34-3-3s1.34-3 3-3 3 1.34 3 3-1.34 3-3 3z" opacity=".3" /><ns0:g><ns0:path d="M17 4H3c-1.1 0-2 .9-2 2v8c0 1.1.9 2 2 2h14c1.1 0 2-.9 2-2V6c0-1.1-.9-2-2-2zM3 14V6h14v8H3z" /><ns0:path d="M10 7c-1.66 0-3 1.34-3 3s1.34 3 3 3 3-1.34 3-3-1.34-3-3-3z" /></ns0:g><ns0:path d="M23 7v11c0 1.1-.9 2-2 2H4v-2h17V7h2z" /></ns0:g></g></svg>