<svg viewBox="0 0 1024 1024" width="200" height="200" xmlns="http://www.w3.org/2000/svg"><g transform="scale(42.666666666666664)"><ns0:rect xmlns:ns0="http://www.w3.org/2000/svg" fill="none" height="24" width="24" /><ns0:path xmlns:ns0="http://www.w3.org/2000/svg" d="M8.5,8.62v6.76L5.12,12L8.5,8.62 M3.71,11.29c-0.39,0.39-0.39,1.02,0,1.41l4.59,4.59C8.92,17.92,10,17.48,10,16.59V7.41 c0-0.89-1.08-1.34-1.71-0.71L3.71,11.29z M14,7.41v9.17c0,0.89,1.08,1.34,1.71,0.71l4.59-4.59c0.39-0.39,0.39-1.02,0-1.41 l-4.59-4.59C15.08,6.08,14,6.52,14,7.41z" /></g></svg>