<svg viewBox="0 0 1024 1024" width="200" height="200" xmlns="http://www.w3.org/2000/svg"><g transform="scale(42.666666666666664)"><ns0:path xmlns:ns0="http://www.w3.org/2000/svg" d="M0 0h24v24H0z" fill="none" /><ns0:path xmlns:ns0="http://www.w3.org/2000/svg" d="M10 8h11V5c0-1.1-.9-2-2-2h-9v5zM3 8h5V3H5c-1.1 0-2 .9-2 2v3zm2 13h3V10H3v9c0 1.1.9 2 2 2zm8 1l-4-4 4-4zm1-9l4-4 4 4z" /><ns0:path xmlns:ns0="http://www.w3.org/2000/svg" d="M14.58 19H13v-2h1.58c1.33 0 2.42-1.08 2.42-2.42V13h2v1.58c0 2.44-1.98 4.42-4.42 4.42z" /></g></svg>