<svg viewBox="0 0 1024 1024" width="200" height="200" xmlns="http://www.w3.org/2000/svg"><g transform="scale(42.666666666666664)"><ns0:g xmlns:ns0="http://www.w3.org/2000/svg"><ns0:rect fill="none" height="24" width="24" /></ns0:g><ns0:g xmlns:ns0="http://www.w3.org/2000/svg"><ns0:g><ns0:g><ns0:path d="M12,8.5c-0.91,0-2.75,0.46-2.75,1.38v4.62h1.5V19h2.5v-4.5h1.5V9.88C14.75,8.97,12.91,8.5,12,8.5z" /><ns0:path d="M12,2C6.47,2,2,6.47,2,12s4.47,10,10,10s10-4.48,10-10S17.52,2,12,2z M12,20c-4.42,0-8-3.58-8-8s3.58-8,8-8s8,3.58,8,8 S16.42,20,12,20z" /><ns0:circle cx="12" cy="6.5" r="1.5" /></ns0:g></ns0:g></ns0:g></g></svg>