<svg viewBox="0 0 1024 1024" width="200" height="200" xmlns="http://www.w3.org/2000/svg"><g transform="scale(51.2)"><ns0:g xmlns:ns0="http://www.w3.org/2000/svg"><ns0:rect fill="none" height="20" width="20" /></ns0:g><ns0:g xmlns:ns0="http://www.w3.org/2000/svg"><ns0:g><ns0:g opacity=".3"><ns0:path d="M10,3.5c-3.58,0-6.5,2.92-6.5,6.5s2.92,6.5,6.5,6.5s6.5-2.92,6.5-6.5S13.58,3.5,10,3.5z M11,12l-1-1.5H8V15H7V6h4.5 l1,1.5H15V12H11z" /></ns0:g><ns0:path d="M10,2c-4.42,0-8,3.58-8,8s3.58,8,8,8s8-3.58,8-8S14.42,2,10,2z M10,16.5c-3.58,0-6.5-2.92-6.5-6.5S6.42,3.5,10,3.5 s6.5,2.92,6.5,6.5S13.58,16.5,10,16.5z" /><ns0:path d="M12.5,7.5l-1-1.5H7v9h1v-4.5h2l1,1.5h4V7.5H12.5z M14,11h-2.46l-1-1.5H8V7h2.96l1,1.5H14V11z" /></ns0:g></ns0:g></g></svg>