<svg viewBox="0 0 1024 1024" width="200" height="200" xmlns="http://www.w3.org/2000/svg"><g transform="scale(42.666666666666664)"><ns0:g xmlns:ns0="http://www.w3.org/2000/svg"><ns0:rect fill="none" height="24" width="24" /></ns0:g><ns0:g xmlns:ns0="http://www.w3.org/2000/svg"><ns0:path d="M10.67,21L10.67,21c-0.35,0-0.62-0.31-0.57-0.66L11,14H7.5c-0.88,0-0.33-0.75-0.31-0.78c1.26-2.23,3.15-5.53,5.65-9.93 c0.1-0.18,0.3-0.29,0.5-0.29h0c0.35,0,0.62,0.31,0.57,0.66L13.01,10h3.51c0.4,0,0.62,0.19,0.4,0.66c-3.29,5.74-5.2,9.09-5.75,10.05 C11.07,20.89,10.88,21,10.67,21z" /></ns0:g></g></svg>