<svg viewBox="0 0 1024 1024" width="200" height="200" xmlns="http://www.w3.org/2000/svg"><g transform="scale(51.2)"><ns0:g xmlns:ns0="http://www.w3.org/2000/svg"><ns0:rect fill="none" height="20" width="20" /></ns0:g><ns0:g xmlns:ns0="http://www.w3.org/2000/svg"><ns0:g><ns0:path d="M4.5,4.5H6V7h8V4.5h1.5V9H17V4.5C17,3.67,16.33,3,15.5,3h-3.57c-0.22-0.86-1-1.5-1.93-1.5S8.29,2.14,8.07,3H4.5 C3.67,3,3,3.67,3,4.5v11C3,16.33,3.67,17,4.5,17H9v-1.5H4.5V4.5z M10,3c0.41,0,0.75,0.33,0.75,0.75c0,0.41-0.34,0.75-0.75,0.75 S9.25,4.16,9.25,3.75C9.25,3.33,9.59,3,10,3z" /><ns0:polygon points="15,11 13.94,12.06 15.13,13.25 11,13.25 11,14.75 15.13,14.75 13.94,15.94 15,17 18,14" /></ns0:g></ns0:g></g></svg>