<svg viewBox="0 0 1024 1024" width="200" height="200" xmlns="http://www.w3.org/2000/svg"><g transform="scale(51.2)"><ns0:g xmlns:ns0="http://www.w3.org/2000/svg"><ns0:rect fill="none" height="20" width="20" /></ns0:g><ns0:g xmlns:ns0="http://www.w3.org/2000/svg"><ns0:path d="M17,11.46V6l-3-3H3v14h8.47L17,11.46z M12.5,8.5h-7v-3h7V8.5z M12.25,12.5c0,1.24-1.01,2.25-2.25,2.25 s-2.25-1.01-2.25-2.25s1.01-2.25,2.25-2.25S12.25,11.26,12.25,12.5z M16.82,13.77l1.41,1.41L14.41,19H13l0-1.41L16.82,13.77z M17.31,13.27l0.98-0.98l1.41,1.41l-0.98,0.98L17.31,13.27z" /></ns0:g></g></svg>