<svg viewBox="0 0 1024 1024" width="200" height="200" xmlns="http://www.w3.org/2000/svg"><g transform="scale(51.2)"><ns0:g xmlns:ns0="http://www.w3.org/2000/svg"><ns0:rect fill="none" height="20" width="20" /></ns0:g><ns0:g xmlns:ns0="http://www.w3.org/2000/svg"><ns0:g><ns0:path d="M16,4H4v12h12V4z M6,7.27h3v1H6V7.27z M10,12.5H8.5V14h-1v-1.5H6v-1h1.5V10h1v1.5H10V12.5z M14,13.25h-3v-1h3V13.25z M14,11.75h-3v-1h3V11.75z M14.27,8.83l-0.71,0.71L12.5,8.47l-1.06,1.06l-0.71-0.71l1.06-1.06l-1.06-1.06L11.44,6l1.06,1.06 L13.56,6l0.71,0.71l-1.06,1.06L14.27,8.83z" /></ns0:g></ns0:g></g></svg>