<svg viewBox="0 0 1024 1024" width="200" height="200" xmlns="http://www.w3.org/2000/svg"><g transform="scale(51.2)"><ns0:g xmlns:ns0="http://www.w3.org/2000/svg"><ns0:rect fill="none" height="20" width="20" /></ns0:g><ns0:g xmlns:ns0="http://www.w3.org/2000/svg"><ns0:g><ns0:path d="M5,15h10V5H5V15z M14,13.25h-3v-1h3V13.25z M14,11.75h-3v-1h3V11.75z M10.73,6.71L11.44,6l1.06,1.06 L13.56,6l0.71,0.71l-1.06,1.06l1.06,1.06l-0.71,0.71L12.5,8.47l-1.06,1.06l-0.71-0.71l1.06-1.06L10.73,6.71z M6,7.27h3v1H6V7.27z M6,11.5h1.5V10h1v1.5H10v1H8.5V14h-1v-1.5H6V11.5z" opacity=".3" /><ns0:g><ns0:rect height="1" width="3" x="11" y="12.25" /></ns0:g><ns0:g><ns0:rect height="1" width="3" x="11" y="10.75" /></ns0:g><ns0:g><ns0:rect height="1" width="3" x="6" y="7.27" /></ns0:g><ns0:g><ns0:path d="M15,4H5C4.45,4,4,4.45,4,5v10c0,0.55,0.45,1,1,1h10c0.55,0,1-0.45,1-1V5C16,4.45,15.55,4,15,4z M15,15H5V5h10V15z" /></ns0:g><ns0:g><ns0:polygon points="7.5,14 8.5,14 8.5,12.5 10,12.5 10,11.5 8.5,11.5 8.5,10 7.5,10 7.5,11.5 6,11.5 6,12.5 7.5,12.5" /></ns0:g><ns0:g><ns0:polygon points="11.44,9.54 12.5,8.47 13.56,9.54 14.27,8.83 13.21,7.77 14.27,6.71 13.56,6 12.5,7.06 11.44,6 10.73,6.71 11.79,7.77 10.73,8.83" /></ns0:g></ns0:g></ns0:g></g></svg>