<svg viewBox="0 0 1024 1024" width="200" height="200" xmlns="http://www.w3.org/2000/svg"><g transform="scale(51.2)"><ns0:g xmlns:ns0="http://www.w3.org/2000/svg"><ns0:rect fill="none" height="20" width="20" y="0" /></ns0:g><ns0:g xmlns:ns0="http://www.w3.org/2000/svg"><ns0:g /><ns0:g><ns0:g><ns0:polygon points="4,8 3,8 3,16 13,16 13,15 4,15" /></ns0:g><ns0:g><ns0:polygon points="6,6 5,6 5,14 15,14 15,13 6,13" /></ns0:g><ns0:g><ns0:path d="M7,4v8h10V4H7z M16,11H8V7h8V11z" /></ns0:g></ns0:g></ns0:g><ns0:g xmlns:ns0="http://www.w3.org/2000/svg" display="none"><ns0:g display="inline" /><ns0:polygon display="inline" points="4,15 4,8 3,8 3,16 13,16 13,15" /><ns0:polygon display="inline" points="6,13 6,6 5,6 5,14 15,14 15,13" /><ns0:g display="inline"><ns0:path d="M16,5v6H8V5H16 M17,4H7v8h10V4L17,4z" /></ns0:g><ns0:g display="inline"><ns0:rect height="2" width="8" x="8" y="5" /></ns0:g></ns0:g></g></svg>