<svg viewBox="0 0 1024 1024" width="200" height="200" xmlns="http://www.w3.org/2000/svg"><g transform="scale(42.666666666666664)"><ns0:g xmlns:ns0="http://www.w3.org/2000/svg"><ns0:rect fill="none" height="24" width="24" x="0" /></ns0:g><ns0:g xmlns:ns0="http://www.w3.org/2000/svg"><ns0:g><ns0:g><ns0:path d="M20,7h-4V5c0-0.55-0.22-1.05-0.59-1.41C15.05,3.22,14.55,3,14,3h-4C8.9,3,8,3.9,8,5v2H4C2.9,7,2,7.9,2,9v11 c0,1.1,0.9,2,2,2h16c1.1,0,2-0.9,2-2V9C22,7.9,21.1,7,20,7z M10,5h4v2h-4V5z M11,18.5l-1-1l3-3l-3-3l1-1l4,4L11,18.5z" /></ns0:g></ns0:g></ns0:g></g></svg>