<svg viewBox="0 0 1024 1024" width="200" height="200" xmlns="http://www.w3.org/2000/svg"><g transform="scale(42.666666666666664)"><ns0:g xmlns:ns0="http://www.w3.org/2000/svg"><ns0:rect fill="none" height="24" width="24" /></ns0:g><ns0:g xmlns:ns0="http://www.w3.org/2000/svg"><ns0:path d="M15,20H5V7c0-0.55-0.45-1-1-1h0C3.45,6,3,6.45,3,7v13c0,1.1,0.9,2,2,2h10c0.55,0,1-0.45,1-1v0C16,20.45,15.55,20,15,20z M20,16V4c0-1.1-0.9-2-2-2H9C7.9,2,7,2.9,7,4v12c0,1.1,0.9,2,2,2h9C19.1,18,20,17.1,20,16z M18,16H9V4h9V16z" /></ns0:g></g></svg>