<svg viewBox="0 0 1024 1024" width="200" height="200" xmlns="http://www.w3.org/2000/svg"><g transform="scale(42.666666666666664)"><ns0:g xmlns:ns0="http://www.w3.org/2000/svg"><ns0:rect fill="none" height="24" width="24" /></ns0:g><ns0:g xmlns:ns0="http://www.w3.org/2000/svg"><ns0:path d="M20,4H4C2.9,4,2,4.9,2,6v12c0,1.1,0.9,2,2,2h16c1.1,0,2-0.9,2-2V6C22,4.9,21.1,4,20,4z M4,18V6h2.95l-2.33,8.73L16.82,18H4 z M15.62,15.61l-8.55-2.29l1.31-4.92l8.56,2.29L15.62,15.61z M20,18h-2.95l2.34-8.73L7.18,6H20V18z" /></ns0:g></g></svg>