<svg viewBox="0 0 1024 1024" width="200" height="200" xmlns="http://www.w3.org/2000/svg"><g transform="scale(42.666666666666664)"><ns0:path xmlns:ns0="http://www.w3.org/2000/svg" d="M0 0h24v24H0V0z" fill="none" /><ns0:path xmlns:ns0="http://www.w3.org/2000/svg" d="M19 19V5L5 19h14zm-2-3.5V17h-5v-1.5h5z" opacity=".3" /><ns0:path xmlns:ns0="http://www.w3.org/2000/svg" d="M12 15.5h5V17h-5zM19 3H5c-1.1 0-2 .9-2 2v14c0 1.1.9 2 2 2h14c1.1 0 2-.9 2-2V5c0-1.1-.9-2-2-2zM5.5 7.5h2v-2H9v2h2V9H9v2H7.5V9h-2V7.5zM19 19H5L19 5v14z" /></g></svg>