<svg viewBox="0 0 1024 1024" width="200" height="200" xmlns="http://www.w3.org/2000/svg"><g transform="scale(42.666666666666664)"><ns0:path xmlns:ns0="http://www.w3.org/2000/svg" d="M0 0h24v24H0z" fill="none" /><ns0:path xmlns:ns0="http://www.w3.org/2000/svg" d="M4 18h16V6H4v12zm10-8h2v2h-2v-2zm0 4h2v2h-2v-2zm-4-4h2v2h-2v-2zm-4 0h2v2H6v-2z" opacity=".3" /><ns0:path xmlns:ns0="http://www.w3.org/2000/svg" d="M14 10h2v2h-2zm0 4h2v2h-2zm-8-4h2v2H6zm4 0h2v2h-2zm10-6H4c-1.1 0-2 .9-2 2v12c0 1.1.9 2 2 2h16c1.1 0 2-.9 2-2V6c0-1.1-.9-2-2-2zm0 14H4V6h16v12z" /></g></svg>