<svg viewBox="0 0 1024 1024" width="200" height="200" xmlns="http://www.w3.org/2000/svg"><g transform="scale(42.666666666666664)"><ns0:path xmlns:ns0="http://www.w3.org/2000/svg" d="M0 0h24v24H0V0z" fill="none" /><ns0:path xmlns:ns0="http://www.w3.org/2000/svg" d="M7 17h14V3H7v14zm5-12h4v10h-2V7h-2V5z" opacity=".3" /><ns0:path xmlns:ns0="http://www.w3.org/2000/svg" d="M14 15h2V5h-4v2h2zm7-14H7c-1.1 0-2 .9-2 2v14c0 1.1.9 2 2 2h14c1.1 0 2-.9 2-2V3c0-1.1-.9-2-2-2zm0 16H7V3h14v14zM1 5v16c0 1.1.9 2 2 2h16v-2H3V5H1z" /></g></svg>