<svg viewBox="0 0 1024 1024" width="200" height="200" xmlns="http://www.w3.org/2000/svg"><g transform="scale(42.666666666666664)"><ns0:path xmlns:ns0="http://www.w3.org/2000/svg" d="M0 0h24v24H0V0z" fill="none" /><ns0:circle xmlns:ns0="http://www.w3.org/2000/svg" cx="12" cy="12" r="3" /><ns0:path xmlns:ns0="http://www.w3.org/2000/svg" d="M20 4h-3.17l-1.24-1.35c-.37-.41-.91-.65-1.47-.65H9.88c-.56 0-1.1.24-1.48.65L7.17 4H4c-1.1 0-2 .9-2 2v12c0 1.1.9 2 2 2h16c1.1 0 2-.9 2-2V6c0-1.1-.9-2-2-2zm-8 13c-2.76 0-5-2.24-5-5s2.24-5 5-5 5 2.24 5 5-2.24 5-5 5z" /></g></svg>