<svg viewBox="0 0 1024 1024" width="200" height="200" xmlns="http://www.w3.org/2000/svg"><g transform="scale(42.666666666666664)"><ns0:path xmlns:ns0="http://www.w3.org/2000/svg" d="M0 0h24v24H0z" fill="none" /><ns0:path xmlns:ns0="http://www.w3.org/2000/svg" d="M3 5H1v16c0 1.1.9 2 2 2h16v-2H3V5zm18-4H7c-1.1 0-2 .9-2 2v14c0 1.1.9 2 2 2h14c1.1 0 2-.9 2-2V3c0-1.1-.9-2-2-2zm0 16H7V3h14v14zm-8-2h2c1.1 0 2-.89 2-2v-2c0-1.11-.9-2-2-2h-2V7h4V5h-4c-1.1 0-2 .89-2 2v6c0 1.11.9 2 2 2zm0-4h2v2h-2v-2z" /></g></svg>