<svg viewBox="0 0 1024 1024" width="200" height="200" xmlns="http://www.w3.org/2000/svg"><g transform="scale(42.666666666666664)"><ns0:g xmlns:ns0="http://www.w3.org/2000/svg"><ns0:rect fill="none" height="24" width="24" /></ns0:g><ns0:g xmlns:ns0="http://www.w3.org/2000/svg"><ns0:path d="M18,5V3c0-1.1-0.9-2-2-2h-4c-1.1,0-2,0.9-2,2v2H7C5.9,5,5,5.9,5,7v9c0,1.1,0.9,2,2,2h14c1.1,0,2-0.9,2-2V7c0-1.1-0.9-2-2-2 H18z M16,5h-4V3h4V5z M2,9L2,9c-0.55,0-1,0.45-1,1v10c0,1.1,0.9,2,2,2h15c0.55,0,1-0.45,1-1v0c0-0.55-0.45-1-1-1H3V10 C3,9.45,2.55,9,2,9z" /></ns0:g></g></svg>