<svg viewBox="0 0 1024 1024" width="200" height="200" xmlns="http://www.w3.org/2000/svg"><g transform="scale(51.2)"><ns0:g xmlns:ns0="http://www.w3.org/2000/svg"><ns0:rect fill="none" height="20" width="20" /></ns0:g><ns0:g xmlns:ns0="http://www.w3.org/2000/svg"><ns0:path d="M6.75,17c0.41,0,0.75-0.34,0.75-0.75V14.5h2.75c0.41,0,0.75-0.34,0.75-0.75c0-0.41-0.34-0.75-0.75-0.75H7.5v-1.5h3.75 c2.35,0,4.25-1.9,4.25-4.25C15.5,4.9,13.6,3,11.25,3H7C6.45,3,6,3.45,6,4v6H5.25c-0.41,0-0.75,0.34-0.75,0.75 c0,0.41,0.34,0.75,0.75,0.75H6V13H5.25c-0.41,0-0.75,0.34-0.75,0.75c0,0.41,0.34,0.75,0.75,0.75H6v1.75C6,16.66,6.34,17,6.75,17z M11.25,10H7.5V4.5h3.75C12.77,4.5,14,5.73,14,7.25S12.77,10,11.25,10z" /></ns0:g></g></svg>