<svg viewBox="0 0 1024 1024" width="200" height="200" xmlns="http://www.w3.org/2000/svg"><g transform="scale(42.666666666666664)"><ns0:path xmlns:ns0="http://www.w3.org/2000/svg" d="M0 0h24v24H0V0z" fill="none" /><ns0:path xmlns:ns0="http://www.w3.org/2000/svg" d="M7 11h10v2H7z" opacity=".3" /><ns0:path xmlns:ns0="http://www.w3.org/2000/svg" d="M5 15h14V9H5v6zm2-4h10v2H7v-2zm4-10h2v3h-2zm6.25 4.39l1.41 1.41 1.8-1.79-1.42-1.41zM11 20h2v3h-2zm6.24-1.29l1.79 1.8 1.42-1.42-1.8-1.79zM5.34 6.805l-1.788-1.79L4.96 3.61l1.788 1.788zM3.55 19.08l1.41 1.42 1.79-1.8-1.41-1.41z" /></g></svg>