<svg viewBox="0 0 1024 1024" width="200" height="200" xmlns="http://www.w3.org/2000/svg"><g transform="scale(51.2)"><ns0:g xmlns:ns0="http://www.w3.org/2000/svg"><ns0:path d="M0,0h20v20H0V0z" fill="none" /></ns0:g><ns0:g xmlns:ns0="http://www.w3.org/2000/svg"><ns0:g><ns0:path d="M12.89,3H7.11L3,7.11v5.77L7.11,17h5.77L17,12.89V7.11L12.89,3z M15.5,12.27l-3.23,3.23H7.73L4.5,12.27V7.73L7.73,4.5 h4.53l3.23,3.23V12.27z" /><ns0:polygon points="12.22,6.72 10,8.94 7.78,6.72 6.72,7.78 8.94,10 6.72,12.22 7.78,13.28 10,11.06 12.22,13.28 13.28,12.22 11.06,10 13.28,7.78" /></ns0:g></ns0:g></g></svg>