<svg viewBox="0 0 1024 1024" width="200" height="200" xmlns="http://www.w3.org/2000/svg"><g transform="scale(51.2)"><ns0:rect xmlns:ns0="http://www.w3.org/2000/svg" fill="none" height="20" width="20" /><ns0:polygon xmlns:ns0="http://www.w3.org/2000/svg" opacity=".3" points="5.5,6.5 12.28,6.5 15.08,10 12.28,13.5 10.5,13.5 10.5,10.5 8.5,10.5 8.5,8.5 5.5,8.5" /><ns0:path xmlns:ns0="http://www.w3.org/2000/svg" d="M17,10l-3.55,4.44C13.17,14.79,12.73,15,12.28,15H10.5v-1.5h1.78l2.8-3.5l-2.8-3.5H5.5v2H4v-2C4,5.67,4.67,5,5.5,5h6.78 c0.46,0,0.89,0.21,1.17,0.56L17,10z M9,12H7v-2H5.5v2h-2v1.5h2v2H7v-2h2V12z" /></g></svg>