<svg viewBox="0 0 1024 1024" width="200" height="200" xmlns="http://www.w3.org/2000/svg"><g transform="scale(51.2)"><ns0:g xmlns:ns0="http://www.w3.org/2000/svg"><ns0:rect fill="none" height="20" width="20" /></ns0:g><ns0:g xmlns:ns0="http://www.w3.org/2000/svg"><ns0:path d="M16.93,6C15.89,3.63,13.11,2,10,2C7.35,2,4.94,3.18,3.64,5L6,5v1H2V2h1l0,2.19C4.49,2.27,7.07,1,10,1c3.78,0,6.97,2.11,8,5 L16.93,6z M12.66,11H11V6.25C11,5.56,10.44,5,9.75,5h0C9.06,5,8.5,5.56,8.5,6.25V15l-3-1l-1,1l4,4h7.16l1-6L12.66,11z" /></ns0:g></g></svg>