<svg viewBox="0 0 1024 1024" width="200" height="200" xmlns="http://www.w3.org/2000/svg"><g transform="scale(42.666666666666664)"><ns0:path xmlns:ns0="http://www.w3.org/2000/svg" d="M0 0h24v24H0V0z" fill="none" /><ns0:path xmlns:ns0="http://www.w3.org/2000/svg" d="M0 0h24m0 24H0" fill="none" /><ns0:path xmlns:ns0="http://www.w3.org/2000/svg" d="M4.25 5.66c.1.13 5.74 7.33 5.74 7.33V19c0 .55.45 1 1.01 1h2.01c.55 0 1.01-.45 1.01-1v-6.02s5.49-7.02 5.75-7.34C20.03 5.32 20 5 20 5c0-.55-.45-1-1.01-1H5.01C4.4 4 4 4.48 4 5c0 .2.06.44.25.66z" /></g></svg>