<svg viewBox="0 0 1024 1024" width="200" height="200" xmlns="http://www.w3.org/2000/svg"><g transform="scale(42.666666666666664)"><ns0:g xmlns:ns0="http://www.w3.org/2000/svg"><ns0:rect fill="none" height="24" width="24" /></ns0:g><ns0:g xmlns:ns0="http://www.w3.org/2000/svg"><ns0:g><ns0:path d="M3,21h18v-6H3V21z M10.33,19v-2h3.33v2H10.33z M19,19h-3.33v-2H19V19z M5,17h3.33v2H5V17z" /><ns0:path d="M6,10l1.42-1.42L5.83,7H17c1.1,0,2,0.9,2,2s-0.9,2-2,2H3v2h14c2.21,0,4-1.79,4-4s-1.79-4-4-4H5.83l1.59-1.59L6,2L2,6L6,10 z" /></ns0:g></ns0:g></g></svg>