<svg viewBox="0 0 1024 1024" width="200" height="200" xmlns="http://www.w3.org/2000/svg"><g transform="scale(51.2)"><ns0:g xmlns:ns0="http://www.w3.org/2000/svg"><ns0:rect fill="none" height="20" width="20" /></ns0:g><ns0:g xmlns:ns0="http://www.w3.org/2000/svg"><ns0:g><ns0:path d="M10,2c-4.42,0-8,3.58-8,8s3.58,8,8,8s8-3.58,8-8S14.42,2,10,2z M10,15.5c-0.55,0-1-0.45-1-1h2 C11,15.05,10.55,15.5,10,15.5z M12.5,13.75h-5v-1h5V13.75z M12.62,12H7.38C6.54,11.27,6,10.2,6,9c0-2.21,1.79-4,4-4s4,1.79,4,4 C14,10.2,13.46,11.27,12.62,12z" /></ns0:g></ns0:g></g></svg>