<svg viewBox="0 0 1024 1024" width="200" height="200" xmlns="http://www.w3.org/2000/svg"><g transform="scale(42.666666666666664)"><ns0:path xmlns:ns0="http://www.w3.org/2000/svg" d="M0 0h24v24H0V0z" fill="none" /><ns0:path xmlns:ns0="http://www.w3.org/2000/svg" d="M4 13h6c.55 0 1-.45 1-1V4c0-.55-.45-1-1-1H4c-.55 0-1 .45-1 1v8c0 .55.45 1 1 1zm0 8h6c.55 0 1-.45 1-1v-4c0-.55-.45-1-1-1H4c-.55 0-1 .45-1 1v4c0 .55.45 1 1 1zm10 0h6c.55 0 1-.45 1-1v-8c0-.55-.45-1-1-1h-6c-.55 0-1 .45-1 1v8c0 .55.45 1 1 1zM13 4v4c0 .55.45 1 1 1h6c.55 0 1-.45 1-1V4c0-.55-.45-1-1-1h-6c-.55 0-1 .45-1 1z" /></g></svg>