<svg viewBox="0 0 1024 1024" width="200" height="200" xmlns="http://www.w3.org/2000/svg"><g transform="scale(42.666666666666664)"><ns0:path xmlns:ns0="http://www.w3.org/2000/svg" d="M0 0h24v24H0V0z" fill="none" /><ns0:path xmlns:ns0="http://www.w3.org/2000/svg" d="M13 17c-1.1 0-2-.9-2-2V9c0-1.1.9-2 2-2h6V5H5v14h14v-2h-6z" opacity=".3" /><ns0:path xmlns:ns0="http://www.w3.org/2000/svg" d="M21 7.28V5c0-1.1-.9-2-2-2H5c-1.11 0-2 .9-2 2v14c0 1.1.89 2 2 2h14c1.1 0 2-.9 2-2v-2.28c.59-.35 1-.98 1-1.72V9c0-.74-.41-1.38-1-1.72zM20 9v6h-7V9h7zM5 19V5h14v2h-6c-1.1 0-2 .9-2 2v6c0 1.1.9 2 2 2h6v2H5z" /><ns0:circle xmlns:ns0="http://www.w3.org/2000/svg" cx="16" cy="12" r="1.5" /></g></svg>