<svg viewBox="0 0 1024 1024" width="200" height="200" xmlns="http://www.w3.org/2000/svg"><g transform="scale(42.666666666666664)"><ns0:rect xmlns:ns0="http://www.w3.org/2000/svg" fill="none" height="24" width="24" /><ns0:path xmlns:ns0="http://www.w3.org/2000/svg" d="M5.33,20H4c-1.1,0-2-0.9-2-2V6c0-1.1,0.9-2,2-2h1.33c1.1,0,2,0.9,2,2v12C7.33,19.1,6.44,20,5.33,20z M22,18V6 c0-1.1-0.9-2-2-2h-1.33c-1.1,0-2,0.9-2,2v12c0,1.1,0.9,2,2,2H20C21.11,20,22,19.1,22,18z M14.67,18V6c0-1.1-0.9-2-2-2h-1.33 c-1.1,0-2,0.9-2,2v12c0,1.1,0.9,2,2,2h1.33C13.77,20,14.67,19.1,14.67,18z" /></g></svg>