<svg viewBox="0 0 1024 1024" width="200" height="200" xmlns="http://www.w3.org/2000/svg"><g transform="scale(42.666666666666664)"><ns0:rect xmlns:ns0="http://www.w3.org/2000/svg" fill="none" height="24" width="24" /><ns0:path xmlns:ns0="http://www.w3.org/2000/svg" d="M8,18H4V6h4V18z M14,18h-4V6h4V18z M20,18h-4V6h4V18z" opacity=".3" /><ns0:path xmlns:ns0="http://www.w3.org/2000/svg" d="M20,4H4C2.9,4,2,4.9,2,6v12c0,1.1,0.9,2,2,2h16c1.1,0,2-0.9,2-2V6C22,4.9,21.1,4,20,4z M8,18H4V6h4V18z M14,18h-4V6h4V18z M20,18h-4V6h4V18z" /></g></svg>