<svg viewBox="0 0 1024 1024" width="200" height="200" xmlns="http://www.w3.org/2000/svg"><g transform="scale(42.666666666666664)"><ns0:rect xmlns:ns0="http://www.w3.org/2000/svg" fill="none" height="24" width="24" /><ns0:g xmlns:ns0="http://www.w3.org/2000/svg"><ns0:path d="M6.5,21H3c-0.55,0-1-0.45-1-1V10c0-0.55,0.45-1,1-1h3.5c0.55,0,1,0.45,1,1v10C7.5,20.55,7.05,21,6.5,21z M13.75,3h-3.5 c-0.55,0-1,0.45-1,1v16c0,0.55,0.45,1,1,1h3.5c0.55,0,1-0.45,1-1V4C14.75,3.45,14.3,3,13.75,3z M21,11h-3.5c-0.55,0-1,0.45-1,1v8 c0,0.55,0.45,1,1,1H21c0.55,0,1-0.45,1-1v-8C22,11.45,21.55,11,21,11z" /></ns0:g></g></svg>