<svg viewBox="0 0 1024 1024" width="200" height="200" xmlns="http://www.w3.org/2000/svg"><g transform="scale(42.666666666666664)"><ns0:g xmlns:ns0="http://www.w3.org/2000/svg"><ns0:rect fill="none" height="24" width="24" /></ns0:g><ns0:g xmlns:ns0="http://www.w3.org/2000/svg"><ns0:g><ns0:path d="M19.79,5.61C20.3,4.95,19.83,4,19,4H6.83l7.97,7.97L19.79,5.61z" /><ns0:path d="M20.49,20.49L3.51,3.51c-0.39-0.39-1.02-0.39-1.41,0c-0.39,0.39-0.39,1.02,0,1.41L10,13v5c0,1.1,0.9,2,2,2s2-0.9,2-2 v-1.17l5.07,5.07c0.39,0.39,1.02,0.39,1.41,0S20.88,20.88,20.49,20.49z" /></ns0:g></ns0:g></g></svg>