<svg viewBox="0 0 1024 1024" width="200" height="200" xmlns="http://www.w3.org/2000/svg"><g transform="scale(51.2)"><ns0:g xmlns:ns0="http://www.w3.org/2000/svg"><ns0:rect fill="none" height="20" width="20" /></ns0:g><ns0:g xmlns:ns0="http://www.w3.org/2000/svg"><ns0:g><ns0:path d="M3.5,10c0,3.58,2.92,6.5,6.5,6.5s6.5-2.92,6.5-6.5S13.58,3.5,10,3.5S3.5,6.42,3.5,10z M10,9.25h3v1.5h-3V13 l-3-3l3-3V9.25z" opacity=".3" /><ns0:path d="M10,13l-3-3l3-3v2.25h3v1.5h-3V13z M2,10c0,4.42,3.58,8,8,8s8-3.58,8-8s-3.58-8-8-8S2,5.58,2,10z M16.5,10 c0,3.58-2.92,6.5-6.5,6.5S3.5,13.58,3.5,10S6.42,3.5,10,3.5S16.5,6.42,16.5,10z" /></ns0:g></ns0:g></g></svg>