<svg viewBox="0 0 1024 1024" width="200" height="200" xmlns="http://www.w3.org/2000/svg"><g transform="scale(51.2)"><ns0:g xmlns:ns0="http://www.w3.org/2000/svg"><ns0:rect fill="none" height="20" width="20" /></ns0:g><ns0:g xmlns:ns0="http://www.w3.org/2000/svg"><ns0:path d="M5,5.75L5,5.75C5,6.16,5.34,6.5,5.75,6.5h6.69l-7.91,7.91c-0.29,0.29-0.29,0.77,0,1.06l0,0c0.29,0.29,0.77,0.29,1.06,0 l7.91-7.91v6.69c0,0.41,0.34,0.75,0.75,0.75h0c0.41,0,0.75-0.34,0.75-0.75V6c0-0.55-0.45-1-1-1H5.75C5.34,5,5,5.34,5,5.75z" /></ns0:g></g></svg>