<svg viewBox="0 0 1024 1024" width="200" height="200" xmlns="http://www.w3.org/2000/svg"><g transform="scale(51.2)"><ns0:g xmlns:ns0="http://www.w3.org/2000/svg"><ns0:rect fill="none" height="20" width="20" /></ns0:g><ns0:g xmlns:ns0="http://www.w3.org/2000/svg"><ns0:g><ns0:g><ns0:path d="M15,9.5c0.34,0,0.68,0.04,1,0.1V7.5L10,3L4,7.5V17h5.88c-0.24-0.62-0.38-1.29-0.38-2C9.5,11.96,11.96,9.5,15,9.5z" /></ns0:g><ns0:g><ns0:path d="M15,11c-2.21,0-4,1.79-4,4c0,2.21,1.79,4,4,4s4-1.79,4-4C19,12.79,17.21,11,15,11z M17,15.5h-1.5V17h-1v-1.5H13v-1h1.5 V13h1v1.5H17V15.5z" /></ns0:g></ns0:g></ns0:g></g></svg>