<svg viewBox="0 0 1024 1024" width="200" height="200" xmlns="http://www.w3.org/2000/svg"><g transform="scale(42.666666666666664)"><ns0:g xmlns:ns0="http://www.w3.org/2000/svg"><ns0:rect fill="none" height="24" width="24" /></ns0:g><ns0:g xmlns:ns0="http://www.w3.org/2000/svg"><ns0:g><ns0:g><ns0:path d="M18,11c0.7,0,1.37,0.1,2,0.29V9l-8-6L4,9v12h7.68C11.25,20.09,11,19.08,11,18C11,14.13,14.13,11,18,11z" /></ns0:g><ns0:g><ns0:path d="M18,13c-2.76,0-5,2.24-5,5s2.24,5,5,5s5-2.24,5-5S20.76,13,18,13z M21,18.5h-2.5V21h-1v-2.5H15v-1h2.5V15h1v2.5H21V18.5z" /></ns0:g></ns0:g></ns0:g></g></svg>