<svg viewBox="0 0 1024 1024" width="200" height="200" xmlns="http://www.w3.org/2000/svg"><g transform="scale(42.666666666666664)"><ns0:g xmlns:ns0="http://www.w3.org/2000/svg"><ns0:rect fill="none" height="24" width="24" /></ns0:g><ns0:g xmlns:ns0="http://www.w3.org/2000/svg"><ns0:g><ns0:g opacity=".3"><ns0:path d="M12,5.5L6,10v9h5.08c-0.62-4.3,2.72-8,6.92-8v-1L12,5.5z" /></ns0:g><ns0:path d="M6,19v-9l6-4.5l6,4.5v1c0.7,0,1.37,0.1,2,0.29V9l-8-6L4,9v12h7.68c-0.3-0.62-0.5-1.29-0.6-2H6z" /><ns0:g><ns0:path d="M18,13c-2.76,0-5,2.24-5,5s2.24,5,5,5s5-2.24,5-5S20.76,13,18,13z M21,18.5h-2.5V21h-1v-2.5H15v-1h2.5V15h1v2.5H21V18.5z" /></ns0:g></ns0:g></ns0:g></g></svg>