<svg viewBox="0 0 1024 1024" width="200" height="200" xmlns="http://www.w3.org/2000/svg"><g transform="scale(42.666666666666664)"><ns0:g xmlns:ns0="http://www.w3.org/2000/svg"><ns0:rect fill="none" height="24" width="24" /></ns0:g><ns0:g xmlns:ns0="http://www.w3.org/2000/svg"><ns0:g><ns0:g><ns0:g opacity=".3"><ns0:polygon points="4,4 4,17.17 5.17,16 15,16 15,10 20,10 20,4" /></ns0:g><ns0:path d="M5.17,16L4,17.17V4h16v6h2V4c0-1.1-0.9-2-2-2H4C2.9,2,2.01,2.9,2.01,4L2,22l4-4h9v-2H5.17z" /></ns0:g><ns0:g><ns0:polygon points="19,23 22.5,16 20.3,16 22,12 17,12 17,18 19,18" /></ns0:g></ns0:g></ns0:g></g></svg>