<svg viewBox="0 0 1024 1024" width="200" height="200" xmlns="http://www.w3.org/2000/svg"><g transform="scale(51.2)"><ns0:g xmlns:ns0="http://www.w3.org/2000/svg"><ns0:rect fill="none" height="20" width="20" /></ns0:g><ns0:g xmlns:ns0="http://www.w3.org/2000/svg"><ns0:path d="M16,4H4C3.45,4,3,4.45,3,5v10c0,0.55,0.45,1,1,1h12c0.55,0,1-0.45,1-1V5 C17,4.45,16.55,4,16,4z M9,13H5v-1h4V13z M9,10.5H5v-1h4V10.5z M9,8H5V7h4V8z M11.97,11.77l-1.41-1.41l0.71-0.71l0.71,0.71 l2.12-2.12l0.71,0.71L11.97,11.77z" fill-rule="evenodd" /></ns0:g></g></svg>