<svg viewBox="0 0 1024 1024" width="200" height="200" xmlns="http://www.w3.org/2000/svg"><g transform="scale(51.2)"><ns0:g xmlns:ns0="http://www.w3.org/2000/svg"><ns0:rect fill="none" height="20" width="20" x="0" /></ns0:g><ns0:g xmlns:ns0="http://www.w3.org/2000/svg"><ns0:g><ns0:path d="M10,3c-3.87,0-7,3.13-7,7c0,3.87,3.13,7,7,7s7-3.13,7-7C17,6.13,13.87,3,10,3z M10,16c-3.31,0-6-2.69-6-6 c0-3.31,2.69-6,6-6s6,2.69,6,6C16,13.31,13.31,16,10,16z" /><ns0:circle cx="6.5" cy="10" r="1" /><ns0:circle cx="13.5" cy="10" r="1" /><ns0:circle cx="10" cy="10" r="1" /></ns0:g></ns0:g></g></svg>