<svg viewBox="0 0 1024 1024" width="200" height="200" xmlns="http://www.w3.org/2000/svg"><g transform="scale(42.666666666666664)"><ns0:g xmlns:ns0="http://www.w3.org/2000/svg"><ns0:rect fill="none" height="24" width="24" /></ns0:g><ns0:g xmlns:ns0="http://www.w3.org/2000/svg"><ns0:g><ns0:path d="M3,9H1v11c0,1.11,0.89,2,2,2h16v-2H3V9z" /><ns0:path d="M18,5V3c0-1.11-0.89-2-2-2h-4c-1.11,0-2,0.89-2,2v2H5v11c0,1.11,0.89,2,2,2h14c1.11,0,2-0.89,2-2V5H18z M12,3h4v2h-4V3z M12,15V8l5.5,3.5L12,15z" /></ns0:g></ns0:g></g></svg>