<svg viewBox="0 0 1024 1024" width="200" height="200" xmlns="http://www.w3.org/2000/svg"><g transform="scale(42.666666666666664)"><ns0:g xmlns:ns0="http://www.w3.org/2000/svg"><ns0:rect fill="none" height="24" width="24" /><ns0:rect fill="none" height="24" width="24" /></ns0:g><ns0:g xmlns:ns0="http://www.w3.org/2000/svg"><ns0:path d="M22,12c0-5.52-4.48-10-10-10C6.48,2,2,6.48,2,12s4.48,10,10,10C17.52,22,22,17.52,22,12z M12,14.79V13H9 c-0.55,0-1-0.45-1-1s0.45-1,1-1h3V9.21c0-0.45,0.54-0.67,0.85-0.35l2.79,2.79c0.2,0.2,0.2,0.51,0,0.71l-2.79,2.79 C12.54,15.46,12,15.24,12,14.79z" /></ns0:g></g></svg>