<svg viewBox="0 0 1024 1024" width="200" height="200" xmlns="http://www.w3.org/2000/svg"><g transform="scale(51.2)"><ns0:g xmlns:ns0="http://www.w3.org/2000/svg"><ns0:rect fill="none" height="20" width="20" /></ns0:g><ns0:g xmlns:ns0="http://www.w3.org/2000/svg"><ns0:g><ns0:path d="M16.5,10c0-3.58-2.92-6.5-6.5-6.5S3.5,6.42,3.5,10s2.92,6.5,6.5,6.5S16.5,13.58,16.5,10z M10,10.75H7v-1.5 h3V7l3,3l-3,3V10.75z" opacity=".3" /><ns0:path d="M10,7l3,3l-3,3v-2.25H7v-1.5h3V7z M18,10c0-4.42-3.58-8-8-8s-8,3.58-8,8s3.58,8,8,8S18,14.42,18,10z M3.5,10 c0-3.58,2.92-6.5,6.5-6.5s6.5,2.92,6.5,6.5s-2.92,6.5-6.5,6.5S3.5,13.58,3.5,10z" /></ns0:g></ns0:g></g></svg>