<svg viewBox="0 0 1024 1024" width="200" height="200" xmlns="http://www.w3.org/2000/svg"><g transform="scale(51.2)"><ns0:g xmlns:ns0="http://www.w3.org/2000/svg"><ns0:rect fill="none" height="20" width="20" /></ns0:g><ns0:g xmlns:ns0="http://www.w3.org/2000/svg"><ns0:path d="M18,10c0-0.41-0.34-0.75-0.75-0.75h-3.32C13.58,7.4,11.95,6,10,6S6.42,7.4,6.07,9.25H2.75C2.34,9.25,2,9.59,2,10 s0.34,0.75,0.75,0.75h3.32C6.42,12.6,8.05,14,10,14s3.58-1.4,3.93-3.25h3.32C17.66,10.75,18,10.41,18,10z M10,12.5 c-1.38,0-2.5-1.12-2.5-2.5c0-1.38,1.12-2.5,2.5-2.5s2.5,1.12,2.5,2.5C12.5,11.38,11.38,12.5,10,12.5z" /></ns0:g></g></svg>