<svg viewBox="0 0 1024 1024" width="200" height="200" xmlns="http://www.w3.org/2000/svg"><g transform="scale(51.2)"><ns0:g xmlns:ns0="http://www.w3.org/2000/svg"><ns0:rect fill="none" height="20" width="20" /></ns0:g><ns0:g xmlns:ns0="http://www.w3.org/2000/svg"><ns0:g><ns0:path d="M3.75,13h12.5c0.41,0,0.75-0.34,0.75-0.75v0c0-0.41-0.34-0.75-0.75-0.75H3.75C3.34,11.5,3,11.84,3,12.25v0 C3,12.66,3.34,13,3.75,13z" /><ns0:path d="M3.75,8.5h12.5C16.66,8.5,17,8.16,17,7.75v0C17,7.34,16.66,7,16.25,7H3.75C3.34,7,3,7.34,3,7.75v0 C3,8.16,3.34,8.5,3.75,8.5z" /><ns0:path d="M3,3.25L3,3.25C3,3.66,3.34,4,3.75,4h12.5C16.66,4,17,3.66,17,3.25v0c0-0.41-0.34-0.75-0.75-0.75H3.75 C3.34,2.5,3,2.84,3,3.25z" /><ns0:path d="M3.75,17.5h12.5c0.41,0,0.75-0.34,0.75-0.75l0,0c0-0.41-0.34-0.75-0.75-0.75H3.75C3.34,16,3,16.34,3,16.75l0,0 C3,17.16,3.34,17.5,3.75,17.5z" /></ns0:g></ns0:g></g></svg>