<svg viewBox="0 0 1024 1024" width="200" height="200" xmlns="http://www.w3.org/2000/svg"><g transform="scale(42.666666666666664)"><ns0:g xmlns:ns0="http://www.w3.org/2000/svg"><ns0:rect fill="none" height="24" width="24" /><ns0:rect fill="none" height="24" width="24" /></ns0:g><ns0:g xmlns:ns0="http://www.w3.org/2000/svg"><ns0:g><ns0:path d="M3,3L3,3c0,0.55,0.45,1,1,1h16c0.55,0,1-0.45,1-1v0c0-0.55-0.45-1-1-1H4C3.45,2,3,2.45,3,3z" /><ns0:path d="M4,22h16c0.55,0,1-0.45,1-1v0c0-0.55-0.45-1-1-1H4c-0.55,0-1,0.45-1,1v0C3,21.55,3.45,22,4,22z" /><ns0:path d="M4,16h16c0.55,0,1-0.45,1-1v0c0-0.55-0.45-1-1-1H4c-0.55,0-1,0.45-1,1v0C3,15.55,3.45,16,4,16z" /><ns0:path d="M4,10h16c0.55,0,1-0.45,1-1v0c0-0.55-0.45-1-1-1H4C3.45,8,3,8.45,3,9v0C3,9.55,3.45,10,4,10z" /></ns0:g></ns0:g></g></svg>