<svg viewBox="0 0 1024 1024" width="200" height="200" xmlns="http://www.w3.org/2000/svg"><g transform="scale(51.2)"><ns0:g xmlns:ns0="http://www.w3.org/2000/svg"><ns0:rect fill="none" height="20" width="20" /></ns0:g><ns0:g xmlns:ns0="http://www.w3.org/2000/svg"><ns0:path d="M14.38,15.5H9.12L5.62,12l0.34-0.34L9,12.42V5c0-0.28,0.22-0.5,0.5-0.5S10,4.72,10,5v4.5h2.15l2.58,1.2 c0.19,0.1,0.3,0.3,0.27,0.52L14.38,15.5z" opacity=".3" /><ns0:path d="M15.39,9.36L12.5,8h-1V5c0-1.1-0.9-2-2-2s-2,0.9-2,2v5.5l-1.18-0.29c-0.44-0.11-1-0.03-1.42,0.39L3.5,12l4.56,4.56 C8.34,16.84,8.72,17,9.12,17h5.26c0.75,0,1.38-0.55,1.48-1.29l0.61-4.29C16.6,10.57,16.16,9.74,15.39,9.36z M14.38,15.5H9.12 L5.62,12l0.34-0.34L9,12.42V5c0-0.28,0.22-0.5,0.5-0.5S10,4.72,10,5v4.5h2.15l2.58,1.2c0.19,0.1,0.3,0.3,0.27,0.52L14.38,15.5z" /></ns0:g></g></svg>