<svg viewBox="0 0 1024 1024" width="200" height="200" xmlns="http://www.w3.org/2000/svg"><g transform="scale(51.2)"><ns0:g xmlns:ns0="http://www.w3.org/2000/svg"><ns0:rect fill="none" height="20" width="20" /></ns0:g><ns0:g xmlns:ns0="http://www.w3.org/2000/svg"><ns0:g><ns0:path d="M16.51,3.49C14.87,1.96,12.56,1,10,1S5.13,1.96,3.49,3.49L2,2v4h4L4.69,4.69C6.02,3.47,7.91,2.7,10,2.7 s3.98,0.77,5.31,1.99L14,6h4V2L16.51,3.49z" /><ns0:path d="M10.5,11V6.25C10.5,5.56,9.94,5,9.25,5S8,5.56,8,6.25V15l-3-1l-1,1l4,4h7.16l1-6l-4-2H10.5z" /></ns0:g></ns0:g></g></svg>