<svg viewBox="0 0 1024 1024" width="200" height="200" xmlns="http://www.w3.org/2000/svg"><g transform="scale(42.666666666666664)"><ns0:g xmlns:ns0="http://www.w3.org/2000/svg"><ns0:rect fill="none" height="24" width="24" y="0" /></ns0:g><ns0:g xmlns:ns0="http://www.w3.org/2000/svg"><ns0:g><ns0:polygon points="18,1 18,3 21,3 21,6 23,6 23,1" /><ns0:polygon points="21,21 18,21 18,23 23,23 23,18 21,18" /><ns0:polygon points="3,3 6,3 6,1 1,1 1,6 3,6" /><ns0:polygon points="3,18 1,18 1,23 6,23 6,21 3,21" /><ns0:path d="M19,7.97l-7-4.03L5,7.97v8.06l7,4.03l7-4.03V7.97z M11,17.17l-4-2.3v-4.63l4,2.33V17.17z M12,10.84L8.04,8.53L12,6.25 l3.96,2.28L12,10.84z M17,14.87l-4,2.3v-4.6l4-2.33V14.87z" /></ns0:g></ns0:g></g></svg>