<svg viewBox="0 0 1024 1024" width="200" height="200" xmlns="http://www.w3.org/2000/svg"><g transform="scale(51.2)"><ns0:g xmlns:ns0="http://www.w3.org/2000/svg"><ns0:rect fill="none" height="20" width="20" x="0" /></ns0:g><ns0:g xmlns:ns0="http://www.w3.org/2000/svg"><ns0:g><ns0:rect height="1" width="2" x="5" y="11" /><ns0:polygon points="15,12 15,11 12.41,11 13.41,12" /><ns0:path d="M16,5v9.59l0.87,0.87C16.95,15.32,17,15.17,17,15V5c0-0.55-0.45-1-1-1H5.41l1,1H16z" /><ns0:path d="M2.93,2.93L2.22,3.64l0.9,0.9C3.05,4.68,3,4.83,3,5v10c0,0.55,0.45,1,1,1h10.59l1.78,1.78l0.71-0.71L2.93,2.93z M4,15 V5.41L9.59,11H8v1h2.59l1,1H5v1h7v-0.59L13.59,15H4z" /></ns0:g></ns0:g></g></svg>