<svg viewBox="0 0 1024 1024" width="200" height="200" xmlns="http://www.w3.org/2000/svg"><g transform="scale(42.666666666666664)"><ns0:g xmlns:ns0="http://www.w3.org/2000/svg"><ns0:rect fill="none" height="24" width="24" y="0" /></ns0:g><ns0:g xmlns:ns0="http://www.w3.org/2000/svg"><ns0:g><ns0:path d="M4,17.17L5.17,16H20V4H4V17.17z M10.43,8.43L12,5l1.57,3.43L17,10l-3.43,1.57 L12,15l-1.57-3.43L7,10L10.43,8.43z" enable-background="new" opacity=".3" /><ns0:path d="M20,2H4C2.9,2,2,2.9,2,4v18l4-4h14c1.1,0,2-0.9,2-2V4C22,2.9,21.1,2,20,2z M20,16H5.17L4,17.17V4h16V16z" /><ns0:polygon points="12,15 13.57,11.57 17,10 13.57,8.43 12,5 10.43,8.43 7,10 10.43,11.57" /></ns0:g></ns0:g></g></svg>