<svg viewBox="0 0 1024 1024" width="200" height="200" xmlns="http://www.w3.org/2000/svg"><g transform="scale(51.2)"><ns0:g xmlns:ns0="http://www.w3.org/2000/svg"><ns0:rect fill="none" height="20" width="20" /></ns0:g><ns0:g xmlns:ns0="http://www.w3.org/2000/svg"><ns0:rect height="2" opacity=".3" width="11" x="4.5" y="5.5" /><ns0:path d="M15.5,4H14V2h-1.5v2h-5V2H6v2H4.5C3.67,4,3,4.68,3,5.5v11C3,17.32,3.67,18,4.5,18h11c0.83,0,1.5-0.68,1.5-1.5v-11 C17,4.68,16.33,4,15.5,4z M15.5,16.5h-11V9h11V16.5z M15.5,7.5h-11v-2h11V7.5z M7.5,12H6v-1.5h1.5V12z M10.75,12h-1.5v-1.5h1.5V12z M14,12h-1.5v-1.5H14V12z M7.5,15H6v-1.5h1.5V15z M10.75,15h-1.5v-1.5h1.5V15z M14,15h-1.5v-1.5H14V15z" /></ns0:g></g></svg>