<svg viewBox="0 0 1024 1024" width="200" height="200" xmlns="http://www.w3.org/2000/svg"><g transform="scale(51.2)"><ns0:g xmlns:ns0="http://www.w3.org/2000/svg"><ns0:rect fill="none" height="20" width="20" /></ns0:g><ns0:g xmlns:ns0="http://www.w3.org/2000/svg"><ns0:g><ns0:path d="M8,11c1.66,0,3-1.34,3-3S9.66,5,8,5S5,6.34,5,8S6.34,11,8,11z" /><ns0:path d="M13.03,13.37C11.56,12.5,9.84,12,8,12s-3.56,0.5-5.03,1.37C2.36,13.72,2,14.39,2,15.09V17h12v-1.91 C14,14.39,13.64,13.72,13.03,13.37z" /><ns0:path d="M15.16,12.61l0.97-1.17C15.14,10.61,14.5,9.39,14.5,8s0.64-2.61,1.63-3.44l-0.97-1.17C13.84,4.49,13,6.15,13,8 S13.84,11.51,15.16,12.61z" /><ns0:path d="M17.09,5.71C16.43,6.26,16,7.07,16,8s0.43,1.74,1.09,2.29l0.96-1.15C17.71,8.87,17.5,8.46,17.5,8s0.21-0.87,0.54-1.15 L17.09,5.71z" /></ns0:g></ns0:g></g></svg>