<svg viewBox="0 0 1024 1024" width="200" height="200" xmlns="http://www.w3.org/2000/svg"><g transform="scale(51.2)"><ns0:g xmlns:ns0="http://www.w3.org/2000/svg"><ns0:rect fill="none" height="20" width="20" /></ns0:g><ns0:g xmlns:ns0="http://www.w3.org/2000/svg"><ns0:circle cx="10" cy="12" opacity=".3" r="2.5" /><ns0:path d="M10.75,4.87l1.19,1.19L13,5l-3-3L7,5l1.06,1.06l1.19-1.19l0,3.2C7.4,8.42,6,10.05,6,12c0,2.21,1.79,4,4,4 c2.21,0,4-1.79,4-4c0-1.95-1.4-3.58-3.25-3.93L10.75,4.87z M10,14.5c-1.38,0-2.5-1.12-2.5-2.5S8.62,9.5,10,9.5 c1.38,0,2.5,1.12,2.5,2.5S11.38,14.5,10,14.5z" /></ns0:g></g></svg>