<svg viewBox="0 0 1024 1024" width="200" height="200" xmlns="http://www.w3.org/2000/svg"><g transform="scale(51.2)"><ns0:g xmlns:ns0="http://www.w3.org/2000/svg"><ns0:rect fill="none" height="20" width="20" /></ns0:g><ns0:g xmlns:ns0="http://www.w3.org/2000/svg"><ns0:g><ns0:path d="M10.71,4.71c-0.39-0.39-1.02-0.39-1.41,0L7.16,6.84c-0.29,0.29-0.29,0.77,0,1.06s0.77,0.29,1.06,0L10,6.12l1.78,1.78 c0.29,0.29,0.77,0.29,1.06,0s0.29-0.77,0-1.06L10.71,4.71z" /><ns0:path d="M8.22,3.9L10,2.12l1.78,1.78c0.29,0.29,0.77,0.29,1.06,0s0.29-0.77,0-1.06l-2.13-2.13c-0.39-0.39-1.02-0.39-1.41,0 L7.16,2.84c-0.29,0.29-0.29,0.77,0,1.06S7.93,4.19,8.22,3.9z" /><ns0:path d="M11.78,12.1L10,13.88L8.22,12.1c-0.29-0.29-0.77-0.29-1.06,0c-0.29,0.29-0.29,0.77,0,1.06l2.13,2.13 c0.39,0.39,1.02,0.39,1.41,0l2.13-2.13c0.29-0.29,0.29-0.77,0-1.06C12.55,11.81,12.07,11.81,11.78,12.1z" /><ns0:path d="M11.78,16.1L10,17.88L8.22,16.1c-0.29-0.29-0.77-0.29-1.06,0c-0.29,0.29-0.29,0.77,0,1.06l2.13,2.13 c0.39,0.39,1.02,0.39,1.41,0l2.13-2.13c0.29-0.29,0.29-0.77,0-1.06C12.55,15.81,12.07,15.81,11.78,16.1z" /></ns0:g></ns0:g></g></svg>