<svg viewBox="0 0 1024 1024" width="200" height="200" xmlns="http://www.w3.org/2000/svg"><g transform="scale(51.2)"><ns0:rect xmlns:ns0="http://www.w3.org/2000/svg" fill="none" height="20" width="20" y="0" /><ns0:path xmlns:ns0="http://www.w3.org/2000/svg" d="M6.22,7.28L4.5,6.5l1.72-0.78L7,4l0.78,1.72L9.5,6.5L7.78,7.28L7,9L6.22,7.28z M7,17l0.78-1.72L9.5,14.5l-1.72-0.78L7,12 l-0.78,1.72L4.5,14.5l1.72,0.78L7,17z M4.5,12l0.47-1.03L6,10.5l-1.03-0.47L4.5,9l-0.47,1.03L3,10.5l1.03,0.47L4.5,12z M15.5,18 c-3.21-1.23-5.5-4.36-5.5-8c0-2.55,1.12-4.89,2.89-6.5L10,3.5V2h5.5v5.5H14l0-2.97c-1.52,1.33-2.5,3.31-2.5,5.47 c0,2.81,1.64,5.23,4,6.37L15.5,18z M20,11.5h-1.5V10H17v1.5h-1.5V13H17v1.5h1.5V13H20V11.5z" /></g></svg>