<svg viewBox="0 0 1024 1024" width="200" height="200" xmlns="http://www.w3.org/2000/svg"><g transform="scale(42.666666666666664)"><ns0:rect xmlns:ns0="http://www.w3.org/2000/svg" fill="none" height="24" width="24" /><ns0:path xmlns:ns0="http://www.w3.org/2000/svg" d="M13,3c-4.97,0-9,4.03-9,9H1l4,4l4-4H6c0-3.86,3.14-7,7-7s7,3.14,7,7s-3.14,7-7,7c-1.9,0-3.62-0.76-4.88-1.99L6.7,18.42 C8.32,20.01,10.55,21,13,21c4.97,0,9-4.03,9-9S17.97,3,13,3z M15,11v-1c0-1.1-0.9-2-2-2s-2,0.9-2,2v1h-1v5h6v-5H15z M14,11h-2v-1 c0-0.55,0.45-1,1-1s1,0.45,1,1V11z" /></g></svg>