<svg viewBox="0 0 1024 1024" width="200" height="200" xmlns="http://www.w3.org/2000/svg"><g transform="scale(42.666666666666664)"><ns0:g xmlns:ns0="http://www.w3.org/2000/svg"><ns0:rect fill="none" height="24" width="24" /></ns0:g><ns0:g xmlns:ns0="http://www.w3.org/2000/svg"><ns0:g><ns0:path d="M5,19h14V5H5V19z M15,7h2v2h-2V7z M15,11h2v2h-2V11z M11,7h2v2h-2V7z M11,11h2v2h-2V11z M7,7h2v2H7V7z M7,11h2v2H7V11z" opacity=".3" /><ns0:rect height="2" width="2" x="7" y="7" /><ns0:rect height="2" width="2" x="7" y="11" /><ns0:path d="M3,3v18h18V3H3z M19,19H5V5h14V19z" /><ns0:rect height="2" width="2" x="11" y="7" /><ns0:rect height="2" width="2" x="15" y="11" /><ns0:rect height="2" width="2" x="11" y="11" /><ns0:rect height="2" width="2" x="15" y="7" /></ns0:g></ns0:g></g></svg>