<svg viewBox="0 0 1024 1024" width="200" height="200" xmlns="http://www.w3.org/2000/svg"><g transform="scale(42.666666666666664)"><ns0:g xmlns:ns0="http://www.w3.org/2000/svg"><ns0:rect fill="none" height="24" width="24" /></ns0:g><ns0:g xmlns:ns0="http://www.w3.org/2000/svg"><ns0:g><ns0:polygon points="19,19 5,19 5,5 14,5 14,3 3,3 3,21 21,21 21,10 19,10" /><ns0:rect height="10" width="2" x="11" y="7" /><ns0:rect height="4" width="2" x="15" y="13" /><ns0:rect height="7" width="2" x="7" y="10" /><ns0:polygon points="19,5 19,3 17,3 17,5 15,5 15,7 17,7 17,9 19,9 19,7 21,7 21,5" /></ns0:g></ns0:g></g></svg>