<svg viewBox="0 0 1024 1024" width="200" height="200" xmlns="http://www.w3.org/2000/svg"><g transform="scale(42.666666666666664)"><ns0:path xmlns:ns0="http://www.w3.org/2000/svg" d="M0 0h24v24H0V0z" fill="none" /><ns0:path xmlns:ns0="http://www.w3.org/2000/svg" d="M5 19h14V5H5v14zm4-5.86l2.14 2.58 3-3.87L18 17H6l3-3.86z" opacity=".3" /><ns0:path xmlns:ns0="http://www.w3.org/2000/svg" d="M3 5v14c0 1.1.9 2 2 2h14c1.1 0 2-.9 2-2V5c0-1.1-.9-2-2-2H5c-1.1 0-2 .9-2 2zm16 14H5V5h14v14zm-4.86-7.14l-3 3.86L9 13.14 6 17h12z" /></g></svg>