<svg viewBox="0 0 1024 1024" width="200" height="200" xmlns="http://www.w3.org/2000/svg"><g transform="scale(42.666666666666664)"><ns0:g xmlns:ns0="http://www.w3.org/2000/svg"><ns0:rect fill="none" height="24" width="24" /><ns0:rect fill="none" height="24" width="24" /></ns0:g><ns0:g xmlns:ns0="http://www.w3.org/2000/svg"><ns0:g><ns0:path d="M15,5L15,5c0,0.55,0.45,1,1,1h2v12h-2c-0.55,0-1,0.45-1,1v0c0,0.55,0.45,1,1,1h2c1.1,0,2-0.9,2-2V6c0-1.1-0.9-2-2-2h-2 C15.45,4,15,4.45,15,5z" /><ns0:path d="M6,20h2c0.55,0,1-0.45,1-1v0c0-0.55-0.45-1-1-1H6V6h2c0.55,0,1-0.45,1-1v0c0-0.55-0.45-1-1-1H6C4.9,4,4,4.9,4,6v12 C4,19.1,4.9,20,6,20z" /></ns0:g></ns0:g></g></svg>