<svg viewBox="0 0 1024 1024" width="200" height="200" xmlns="http://www.w3.org/2000/svg"><g transform="scale(51.2)"><ns0:g xmlns:ns0="http://www.w3.org/2000/svg"><ns0:rect fill="none" height="20" width="20" /></ns0:g><ns0:g xmlns:ns0="http://www.w3.org/2000/svg"><ns0:g /><ns0:g><ns0:path d="M14,15H5V6h6V5H5C4.45,5,4,5.45,4,6V15c0,0.55,0.45,1,1,1H14c0.55,0,1-0.45,1-1V9h-1V15z" /><ns0:polygon points="7,8 7,9 11,9 12,9 12,8" /><ns0:rect height="1" width="5" x="7" y="10" /><ns0:rect height="1" width="5" x="7" y="12" /><ns0:polygon points="15,3 14,3 14,5 14,5 12,5 12,6 14,6 14,8 15,8 15,6 15,6 17,6 17,5 15,5" /></ns0:g></ns0:g></g></svg>