<svg viewBox="0 0 1024 1024" width="200" height="200" xmlns="http://www.w3.org/2000/svg"><g transform="scale(42.666666666666664)"><ns0:g xmlns:ns0="http://www.w3.org/2000/svg"><ns0:path d="M0,0h24v24H0V0z" fill="none" /></ns0:g><ns0:g xmlns:ns0="http://www.w3.org/2000/svg"><ns0:g><ns0:polygon points="15.5,12 15.5,14.5 8.5,14.5 8.5,12 7.52,12 6.5,12 6.5,16.5 17.5,16.5 17.5,12" /><ns0:polygon points="10,10 10,13 14,13 14,10 16.25,9.99 16.25,7.5 7.75,7.5 7.75,9.99" /><ns0:path d="M22,2H2v20h20V2z M19,9.99V18H5v-8l1.25-0.01V6h11.5v3.99H19z" /></ns0:g></ns0:g></g></svg>