<svg viewBox="0 0 1024 1024" width="200" height="200" xmlns="http://www.w3.org/2000/svg"><g transform="scale(42.666666666666664)"><ns0:g xmlns:ns0="http://www.w3.org/2000/svg"><ns0:path d="M0,0h24v24H0V0z" fill="none" /></ns0:g><ns0:g xmlns:ns0="http://www.w3.org/2000/svg"><ns0:g><ns0:path d="M6,10v9h12v-9l-6-4.5L6,10z M14,12v1l2-1.06v4.12L14,15v1c0,0.55-0.45,1-1,1H9c-0.55,0-1-0.45-1-1v-4 c0-0.55,0.45-1,1-1h4C13.55,11,14,11.45,14,12z" opacity=".3" /><ns0:path d="M8,12v4c0,0.55,0.45,1,1,1h4c0.55,0,1-0.45,1-1v-1l2,1.06v-4.12L14,13v-1c0-0.55-0.45-1-1-1H9C8.45,11,8,11.45,8,12z" /><ns0:path d="M12,3L4,9v12h16V9L12,3z M18,19H6v-9l6-4.5l6,4.5V19z" /></ns0:g></ns0:g></g></svg>