<svg viewBox="0 0 1024 1024" width="200" height="200" xmlns="http://www.w3.org/2000/svg"><g transform="scale(42.666666666666664)"><ns0:g xmlns:ns0="http://www.w3.org/2000/svg"><ns0:path d="M0,0h24v24H0V0z" fill="none" /></ns0:g><ns0:g xmlns:ns0="http://www.w3.org/2000/svg"><ns0:g><ns0:path d="M13,19h5V5h-5V19z M14,11h2v2h-2V11z" opacity=".3" /><ns0:path d="M6,19h5V5H6V19z M8,11h2v2H8V11z" opacity=".3" /><ns0:path d="M20,19V5c0-1.1-0.9-2-2-2H6C4.9,3,4,3.9,4,5v14H3v2h18v-2H20z M11,19H6V5h5V19z M18,19h-5V5h5V19z" /><ns0:rect height="2" width="2" x="8" y="11" /><ns0:rect height="2" width="2" x="14" y="11" /></ns0:g></ns0:g></g></svg>