<svg viewBox="0 0 1024 1024" width="200" height="200" xmlns="http://www.w3.org/2000/svg"><g transform="scale(51.2)"><ns0:g xmlns:ns0="http://www.w3.org/2000/svg"><ns0:rect fill="none" height="20" width="20" x="0" /></ns0:g><ns0:g xmlns:ns0="http://www.w3.org/2000/svg"><ns0:g><ns0:path d="M15.5,3h-11C3.67,3,3,3.67,3,4.5v11C3,16.33,3.67,17,4.5,17h11c0.83,0,1.5-0.67,1.5-1.5v-11C17,3.67,16.33,3,15.5,3z M15.5,15.5h-11v-11h11V15.5z" /><ns0:polygon points="8,12 9,12 9,8 7,8 7,9 8,9" /><ns0:path d="M10.5,12h2c0.28,0,0.5-0.22,0.5-0.5v-3C13,8.22,12.78,8,12.5,8h-2C10.22,8,10,8.22,10,8.5v3C10,11.78,10.22,12,10.5,12z M11,9h1v0.75h-1V9z M11,10.25h1V11h-1V10.25z" /></ns0:g></ns0:g></g></svg>