<svg viewBox="0 0 1024 1024" width="200" height="200" xmlns="http://www.w3.org/2000/svg"><g transform="scale(51.2)"><ns0:g xmlns:ns0="http://www.w3.org/2000/svg"><ns0:rect fill="none" height="20" width="20" /></ns0:g><ns0:g xmlns:ns0="http://www.w3.org/2000/svg"><ns0:g><ns0:path d="M13.23,8.6l-3.46-2c-1.43-0.83-1.93-2.67-1.1-4.1l0.5-0.87L8.3,1.14L7.8,2C6.7,3.92,7.35,6.36,9.27,7.47l-4.5,7.79 l0.87,0.5l1.5-2.6l1.73,1l-3,5.2l0.87,0.5l6-10.39c1.43,0.83,1.93,2.67,1.1,4.1l-0.5,0.87l0.87,0.5l0.5-0.87 C15.8,12.15,15.14,9.71,13.23,8.6z" /><ns0:circle cx="11" cy="2" r="1" /><ns0:circle cx="12.5" cy="5.5" r="1.5" /></ns0:g></ns0:g></g></svg>