<svg viewBox="0 0 1024 1024" width="200" height="200" xmlns="http://www.w3.org/2000/svg"><g transform="scale(51.2)"><ns0:g xmlns:ns0="http://www.w3.org/2000/svg"><ns0:rect fill="none" height="20" width="20" /></ns0:g><ns0:g xmlns:ns0="http://www.w3.org/2000/svg"><ns0:g><ns0:circle cx="8" cy="7" opacity=".3" r="2" /><ns0:path d="M8,12c2.2,0,5,1.04,5,1.86V15H3v-1.14C3,13.04,5.8,12,8,12z" opacity=".3" /><ns0:path d="M2,13.86V16h12v-2.14c0-1.9-4-2.86-6-2.86C6,11,2,11.96,2,13.86z M3,13.86C3,13.04,5.8,12,8,12c2.2,0,5,1.04,5,1.86V15H3 V13.86z" /><ns0:path d="M11,7c0-1.66-1.34-3-3-3C6.34,4,5,5.34,5,7c0,1.66,1.34,3,3,3C9.66,10,11,8.66,11,7z M10,7c0,1.1-0.9,2-2,2S6,8.1,6,7 s0.9-2,2-2S10,5.9,10,7z" /><ns0:rect height="1" width="4" x="13" y="9" /></ns0:g></ns0:g></g></svg>