<svg viewBox="0 0 1024 1024" width="200" height="200" xmlns="http://www.w3.org/2000/svg"><g transform="scale(51.2)"><ns0:g xmlns:ns0="http://www.w3.org/2000/svg"><ns0:rect fill="none" height="20" width="20" /></ns0:g><ns0:g xmlns:ns0="http://www.w3.org/2000/svg"><ns0:g><ns0:path d="M8.27,10h3.46c0.93,0,1.63-0.83,1.48-1.75l-0.3-1.79C12.67,5.04,11.44,4,10,4S7.33,5.04,7.09,6.47l-0.3,1.79 C6.64,9.17,7.34,10,8.27,10z" /><ns0:path d="M15.03,12.37C13.56,11.5,11.84,11,10,11s-3.56,0.5-5.03,1.37C4.36,12.72,4,13.39,4,14.09V16h12v-1.91 C16,13.39,15.64,12.72,15.03,12.37z" /></ns0:g></ns0:g></g></svg>