<svg viewBox="0 0 1024 1024" width="200" height="200" xmlns="http://www.w3.org/2000/svg"><g transform="scale(42.666666666666664)"><ns0:g xmlns:ns0="http://www.w3.org/2000/svg"><ns0:rect fill="none" height="24" width="24" /><ns0:rect fill="none" height="24" width="24" /></ns0:g><ns0:g xmlns:ns0="http://www.w3.org/2000/svg"><ns0:g /><ns0:g><ns0:g><ns0:path d="M16.67,13.13C18.04,14.06,19,15.32,19,17v3h3c0.55,0,1-0.45,1-1v-2 C23,14.82,19.43,13.53,16.67,13.13z" fill-rule="evenodd" /></ns0:g><ns0:g><ns0:circle cx="9" cy="8" fill-rule="evenodd" r="4" /></ns0:g><ns0:g><ns0:path d="M15,12c2.21,0,4-1.79,4-4c0-2.21-1.79-4-4-4c-0.47,0-0.91,0.1-1.33,0.24 C14.5,5.27,15,6.58,15,8s-0.5,2.73-1.33,3.76C14.09,11.9,14.53,12,15,12z" fill-rule="evenodd" /></ns0:g><ns0:g><ns0:path d="M9,13c-2.67,0-8,1.34-8,4v2c0,0.55,0.45,1,1,1h14c0.55,0,1-0.45,1-1v-2 C17,14.34,11.67,13,9,13z" fill-rule="evenodd" /></ns0:g></ns0:g></ns0:g></g></svg>