<svg viewBox="0 0 1024 1024" width="200" height="200" xmlns="http://www.w3.org/2000/svg"><g transform="scale(42.666666666666664)"><ns0:g xmlns:ns0="http://www.w3.org/2000/svg"><ns0:rect fill="none" height="24" width="24" /><ns0:rect fill="none" height="24" width="24" /></ns0:g><ns0:g xmlns:ns0="http://www.w3.org/2000/svg"><ns0:g><ns0:circle cx="9" cy="8" r="4" /><ns0:path d="M9,14c-2.67,0-8,1.34-8,4v1c0,0.55,0.45,1,1,1h14c0.55,0,1-0.45,1-1v-1C17,15.34,11.67,14,9,14z" /><ns0:polygon points="20,10 20,7 18,7 18,10 15,10 15,12 18,12 18,15 20,15 20,12 23,12 23,10" /></ns0:g></ns0:g></g></svg>