<svg viewBox="0 0 1024 1024" width="200" height="200" xmlns="http://www.w3.org/2000/svg"><g transform="scale(42.666666666666664)"><ns0:path xmlns:ns0="http://www.w3.org/2000/svg" d="M0 0h24v24H0V0z" fill="none" /><ns0:path xmlns:ns0="http://www.w3.org/2000/svg" d="M12 16c-2.69 0-5.77 1.28-6 2h12c-.2-.71-3.3-2-6-2z" opacity=".3" /><ns0:circle xmlns:ns0="http://www.w3.org/2000/svg" cx="12" cy="8" opacity=".3" r="2" /><ns0:path xmlns:ns0="http://www.w3.org/2000/svg" d="M12 14c-2.67 0-8 1.34-8 4v2h16v-2c0-2.66-5.33-4-8-4zm-6 4c.22-.72 3.31-2 6-2 2.7 0 5.8 1.29 6 2H6zm6-6c2.21 0 4-1.79 4-4s-1.79-4-4-4-4 1.79-4 4 1.79 4 4 4zm0-6c1.1 0 2 .9 2 2s-.9 2-2 2-2-.9-2-2 .9-2 2-2z" /></g></svg>