<svg viewBox="0 0 1024 1024" width="200" height="200" xmlns="http://www.w3.org/2000/svg"><g transform="scale(51.2)"><ns0:g xmlns:ns0="http://www.w3.org/2000/svg"><ns0:rect fill="none" height="20" width="20" /></ns0:g><ns0:g xmlns:ns0="http://www.w3.org/2000/svg"><ns0:g><ns0:g><ns0:path d="M3,14v2h1v-3C3.45,13,3,13.45,3,14z" /></ns0:g><ns0:g><ns0:polygon points="12.32,13 11.1,10.34 14,4 11.8,4 10,7.94 8.2,4 6,4 8.9,10.34 10,12.74 11.5,16 15,16 15,13" /></ns0:g><ns0:g><ns0:path d="M16,13v3h1v-2C17,13.45,16.55,13,16,13z" /></ns0:g><ns0:g><ns0:polygon points="7.68,13 5,13 5,16 8.5,16 9.45,13.94 8.35,11.54" /></ns0:g></ns0:g></ns0:g></g></svg>