<svg viewBox="0 0 1024 1024" width="200" height="200" xmlns="http://www.w3.org/2000/svg"><g transform="scale(42.666666666666664)"><ns0:g xmlns:ns0="http://www.w3.org/2000/svg"><ns0:rect fill="none" height="24" width="24" /></ns0:g><ns0:g xmlns:ns0="http://www.w3.org/2000/svg"><ns0:path d="M17.5,13.5H16v-3h1.5V13.5z M22,4h-5V2h-2v2H9V2H7v2H2v16h20V4z M9.5,12.5h-3v1h3V15H5v-3.5h3v-1H5V9h4.5V12.5z M12.75,18 h-1.5v-1.5h1.5V18z M12.75,14.5h-1.5V13h1.5V14.5z M12.75,11h-1.5V9.5h1.5V11z M12.75,7.5h-1.5V6h1.5V7.5z M19,9v6h-4.5V9H19z" /></ns0:g></g></svg>